<svg id="Calque_1" data-name="Calque 1" xmlns="http://www.w3.org/2000/svg" viewBox="0 0 1080.9 594.22"><defs><style>.cls-1{fill:#3a7cec;}.cls-2{fill:#ebac26;}.cls-3{fill:#2ba04d;}.cls-4{fill:#da3337;}.cls-5{fill:#e6ecee;}.cls-6{fill:#46a67c;}.cls-7{fill:#e44e52;}.cls-8{fill:#eec05f;}.cls-9{fill:#dae2e6;}.cls-10{fill:#5d95f3;}.cls-11{fill:#e15053;}.cls-12{fill:#5ab378;}.cls-13{fill:#e26f72;}.cls-14{fill:#528df1;}.cls-15{fill:#d6e1f3;}.cls-16{fill:#78a4f0;}.cls-17{fill:#44ad68;}.cls-18{fill:#eee0bc;}.cls-19{fill:#5aac95;}.cls-20{fill:#e6c4c3;}</style></defs><title>_brand_</title><path class="cls-1" d="M123,457.16c0,7.33-.31,14.68.12,22,.26,4.48-1.34,5.94-5.57,6.54-10.21,1.46-20.32,3.57-30.53,5.05-3.47.5-4.52,1.61-3.85,5.07q2.52,13,4.55,26.07c.41,2.62,1.37,3.32,3.9,2.88,19.35-3.37,38.74-6.57,58.07-10a16.49,16.49,0,0,0,13.19-13.41c1.07-7.1-1.94-12.48-8.72-16.43-7.74-4.51-15.75-3.1-23.82-1.54-6.33,1.22-6.34,1.22-6.34-4.95,0-15,.11-30-.09-45,0-3.39,1.09-4.52,4.28-5.11,9.53-1.76,15.07-8.37,14.82-17.16-.24-8.45-6.31-14.92-15.59-15.94-2.9-.32-3.49-1.28-3.47-3.92q.15-23.49,0-47c0-2.93.61-4.1,3.86-4,33.86,1.3,61.49,24.33,68.39,57.48,3.17,15.21,0,29.51-7.88,42.7-1.9,3.17-1.5,4.52,1.42,6.62,15.36,11.06,25.62,25.16,27.7,44.77C221.18,527,195.78,562,161,568.14c-37.85,6.74-75.78,13-113.65,19.59-3.22.56-4-.62-4.47-3.45q-6.9-41.62-14-83.22-8.14-48-16.36-96C10.1,391,7.7,376.89,5.14,362.81c-.78-4.28,2.61-3.19,4.38-3.51,15.89-2.82,31.82-5.43,47.74-8.13q29-4.92,58.07-9.87c.49-.08,1-.12,1.49-.18,6.17-.71,6.18-.71,6.18,5.68,0,14.5-.12,29,.08,43.49.06,3.78-.62,5.39-4.87,6C102.56,398.57,87,401.48,71.4,404c-2.76.45-3.61,1.52-3.07,4.32,1.5,7.85,3,15.71,4,23.63.59,4.59,1.94,5.92,6.85,4.92,13-2.65,26.26-4.5,39.36-6.87,3.36-.61,4.66-.23,4.5,3.63C122.78,441.48,123,449.33,123,457.16Z" transform="translate(-5.02 -4.94)"/><path class="cls-2" d="M858.51,381.66c1.4-3.65-.11-8.29,2.48-10.19s6.74.2,10.18.53c9.94,1,19.84,2.32,29.76,3.39,2.88.31,3.76,1.18,3.37,4.38-3.23,26.44-6.25,52.91-9.24,79.39-.28,2.42-.57,3.94-3.67,3.91-14.82-.16-29.65-.07-45.1-.07,3.65-7.24,6-14.34,5.78-22.19-.48-18.71-14.32-32.5-33.29-32.81-18.39-.3-34.17,14.25-34.94,32.21-.64,15.16,7.38,28.16,20.91,33.88,13.69,5.8,28.28,2.9,38.49-7.81a6.43,6.43,0,0,1,5.13-2.33c14,.1,28,.05,42,.06,1.94,0,4.2-.53,3.71,2.85-2.47,17.12-2.51,34.61-7.58,51.31-8.9,29.26-32.61,48.9-63.34,51.69-23.27,2.11-45.47-2.09-65.83-14.11a64.48,64.48,0,0,1-13.5-11.06c-1.86-1.93-2.19-3.18-.07-5.25,7-6.86,13.93-13.88,20.79-20.93,1.6-1.64,2.53-1.79,4.38-.06,14.7,13.8,32.65,17.51,51.9,15.12,11.86-1.47,19.09-9.24,22.44-21.61-5.9,2.73-11,5.83-16.75,7C797,524.73,772.18,516,753.3,493,725,458.6,733.75,400.19,770.11,375.19c24.77-17,58.87-17.22,80.57-.4C853.29,376.82,855.66,379.15,858.51,381.66Z" transform="translate(-5.02 -4.94)"/><path class="cls-3" d="M958.82,464c-7.5,20.26-4.51,36.26,8.63,48.25a39.53,39.53,0,1,0,52.21-59.36c-16.44-14.2-41.67-12.51-55.42,4.33-3.69,4.52-7.25,6-12.83,5.9-14.15-.37-28.32-.26-42.48,0-3.94.06-4.26-1.08-3.37-4.52,10.87-41.67,53.24-71.29,96-67,44.84,4.53,78.08,37.2,83.68,81.82,3.06,24.29-4.29,45.63-18.31,64.76-14.29,19.51-33.89,31.36-57.88,35-51.43,7.88-96.89-25-105.57-76.11a91.45,91.45,0,0,1,.18-29.85c.4-2.45,1.3-3.33,3.84-3.31C924.47,464.05,941.46,464,958.82,464Z" transform="translate(-5.02 -4.94)"/><path class="cls-4" d="M527.91,76.05c-12.74-4.94-25.31-10.39-38.28-14.68-10.87-3.59-22.15-6-33.32-8.58-8.75-2-17.61-3.64-26.44-5.37A50.48,50.48,0,0,0,414,47.08c-4.28.54-5.15,5.55-6.77,8.66-8.83,17-19.11,33.1-28.58,49.68-13.1,22.93-26.58,45.64-39.87,68.45-.66,1.14-1,2.5-1.66,3.61-1.51,2.39,0,3.88,1.83,4,5.7.21,10.34,3,15.29,5.24,21.34,9.58,42.33,19.89,62.41,31.89A485.88,485.88,0,0,1,522,303.87c7,7.38,12.84,15.79,20.77,22.27.23,1.73-.75,1.38-1.75,1l-7.88-5c-12.07-7-23.47-15-35.07-22.73-1.73-1.15-3.89-2.21-3.36-5-.1-3.43-3.46-3.73-5.39-5-24.1-16.3-49.85-29.69-76.19-41.91a674.63,674.63,0,0,0-92.48-35c-13.26-3.91-26.59-7.68-40.2-10.31-4.23-.82-1.3-2.94-.6-4.19q12.21-21.8,24.63-43.47Q333.39,103.81,362.38,53c8.66-15.16,17.47-30.23,26.1-45.4,1.38-2.44,2.73-3.24,5.56-2.35C402.59,8,411.32,10.14,419.81,13c6.81,2.3,13.49,5.08,20.24,7.55A290.22,290.22,0,0,1,471.66,34.9a306.57,306.57,0,0,1,54.37,35c1.92,1.77,3.19,4.27,5.91,5.12h0C531.18,77.7,529.42,76.35,527.91,76.05Z" transform="translate(-5.02 -4.94)"/><path class="cls-1" d="M563,320.49c-2.71,2-6.54,1.85-8.81,4.66-1.22.41-2.29.58-2.26-1.25,12.07-14.79,25.74-28.07,39.34-41.41,17.27-16.94,36.42-31.63,56-45.68,12.6-9,26-16.94,39.41-24.72,14.76-8.54,30.16-15.77,45.57-23a197.63,197.63,0,0,1,19.48-8.38c2.81-1,2.74-4.46.92-7.52-8.07-13.58-15.92-27.29-23.86-40.95-9-15.6-18.57-30.93-27.07-46.85-1.23-2.31-3.16-4.24-4.76-6.35-2.44-1.28-3-4-4.67-5.94-2.41-5.29-6.82-9.55-8.09-15.45-1.86-9-4-10.81-12.64-10.76-9.12,0-17.81,2.52-26.66,4.24-8.21,1.6-16.47,3-24.52,5.19a312.19,312.19,0,0,0-45.43,15.58c-1.92.85-4.34.29-5.91,2.11a33.5,33.5,0,0,0-5.52,1.86c-1.32.69-3,1.61-3.58-1a3.33,3.33,0,0,1,2-1.94c1.91-.29,2.85-1.85,4.05-3.07a324.36,324.36,0,0,1,41.72-28.3,314.71,314.71,0,0,1,39-19.27c12.76-5.17,25.67-10,39.13-13.37,3.39-.84,7-1.35,10.33-2.8,2.89-1.28,4.54-.33,6.18,2.51Q752.07,94.45,802,180.11q5.4,9.28,10.84,18.55c1.19,2,1.24,3-1.58,3.66-11.91,2.65-23.68,5.9-35.46,9.14-18.26,5-36.13,11.17-53.77,17.93-16.56,6.33-32.72,13.62-48.84,21.05-21.76,10-42.57,21.67-63.06,34-3.33,2-7.23,3.55-9.09,7.45-.16,1.66-1.34,2.62-2.54,3.47-9,6.33-17.72,13.13-26.93,19.2-1.63.76-2.91,2.06-4.51,2.85C565.74,318.46,564,319,563,320.49Z" transform="translate(-5.02 -4.94)"/><path class="cls-2" d="M494.67,294.45c.68,1.85,2.27,2.75,3.8,3.77q15.51,10.33,31,20.77c1.33.89,3.11,1.36,3.67,3.17C526,320.39,520,316,513.39,313q-23.33-10.36-47.21-19.25c-13.42-5-27.2-8.86-40.84-13.07-6.32-1.95-13.22-2.84-19.76-4.35-7.52-1.74-15-3.63-22.64-4.82-12.23-1.91-24.38-4.16-36.69-5.66-30.29-3.71-60.69-3.8-91-2.8a385.15,385.15,0,0,0-51.83,5c-8.44,1.44-16.83,3.54-25.43,4-1.65.08-3,.93-5.74,2l16.58-29.19q41-72.09,82-144.15C281,82.89,291.25,65.08,301.4,47.18A5.69,5.69,0,0,1,307,43.94c14.65-.23,29.12,1.67,43.59,3.6.49.06,1,.09,1.49.13,9.75.77,9.77.78,5,9.07-4.19,7.38-8.55,14.68-12.6,22.15-1.62,3-3.52,4.34-7.06,4.16-5.15-.27-10.33.26-15.49.1-3.25-.1-5.19,1.13-6.79,3.91-11.3,19.58-22.77,39.05-34.09,58.61-13.91,24-27.68,48.14-41.66,72.12-2,3.44-1.4,3.91,2.31,4.13A592.28,592.28,0,0,1,309,229.69a521.58,521.58,0,0,1,59,13.45,609,609,0,0,1,73.66,26.63c16.1,7.15,31.77,15.07,47.31,23.3C490.78,294,492.54,295,494.67,294.45Z" transform="translate(-5.02 -4.94)"/><path class="cls-3" d="M571,313.75l30.08-21.89c3.92,1.28,6.67-1.47,9.61-3a563.77,563.77,0,0,1,73.61-32.68c16.93-6.1,34-11.9,51.39-16.29,13.76-3.46,27.6-6.68,41.66-9,8.82-1.45,17.63-3.07,26.48-4.32,9-1.28,18.12-2.33,27.21-3.25,6.78-.69,13.6-1.1,20.42-1.44,3.32-.16,2.5-1.43,1.38-3.35q-11.24-19.15-22.33-38.38Q806.27,138,782.12,95.86c-1.9-3.31-4-6.5-5.9-9.82-1.23-2.17-2.92-2.83-5.35-2.8-5.33.06-10.66-.27-16-.21a4.85,4.85,0,0,1-4.81-2.77c-5.45-9.74-11-19.44-16.45-29.16-.77-1.39-2.28-3.21,1-3.39,17-.92,33.89-4.36,51-3.75a4.85,4.85,0,0,1,4.7,2.77c13,22.78,26.07,45.47,39,68.25Q874.23,193.7,919,272.47a3.67,3.67,0,0,1,.23.95c-9.61-1.83-19.33-3.15-28.9-5.07-15.3-3.08-31-2.51-46.26-5.28a42.32,42.32,0,0,0-7.48-.24c-20.16,0-40.4-1.05-60.46.36-15.24,1.06-30.63,1.7-45.8,4.76-7.81,1.57-15.79,3-23.76,4-11.61,1.54-22.88,4.78-34.23,7.54-10.66,2.58-21.23,5.59-31.71,8.86-7.64,2.39-15,5.71-22.59,8.27-15.36,5.16-29.9,12.24-44.79,18.52C571.91,315.59,570.8,315.69,571,313.75Z" transform="translate(-5.02 -4.94)"/><path class="cls-4" d="M361.25,442c-6.33,0-12.66-.12-19,.05-2.69.08-3.6-.82-4.17-3.5A33.71,33.71,0,0,0,300.26,412C282.82,414.22,270,430,271,447.86c.95,17.32,15.52,31.39,33.12,32a33.86,33.86,0,0,0,34.72-32.2c.22-4.23,1.66-4.75,5.22-4.7,11.65.18,23.32.26,35,0,4.07-.11,4.95,1.17,4.85,5-1.14,42.85-37.1,77.18-80.24,76.45a78.74,78.74,0,1,1,79.78-86.11c.34,3.47-.75,3.86-3.63,3.78C373.59,441.89,367.42,442,361.25,442Z" transform="translate(-5.02 -4.94)"/><path class="cls-4" d="M423.08,443c6,0,12,.17,18-.07,3.2-.13,4.46.72,5.26,4.08a33.66,33.66,0,0,0,31.53,26c15.38.53,29.16-8.76,33.69-23.18,4.21-13.42,1.4-25.55-8.77-35.29s-22.47-12.27-35.61-7.17c-13.31,5.17-20.7,15.44-21.65,29.69-.28,4.28-1.46,5.09-5.41,5-11.49-.27-23-.33-34.48,0-4.42.13-5.1-1.39-5-5.36a78.77,78.77,0,0,1,67.17-75.64c38.59-5.58,75.8,17.89,86.91,54.8A78.87,78.87,0,0,1,513,510.27c-48.49,23.21-106.45-9.12-112.06-62.42-.42-4,.65-5.16,4.63-4.94C411.4,443.25,417.25,443,423.08,443Z" transform="translate(-5.02 -4.94)"/><path class="cls-2" d="M626.86,375.92c8.7-6.4,17.38-10.79,27.1-12.82,28-5.87,54.3,8.06,66.22,35.06,5.77,13.07,7.79,26.85,7.08,41-1.31,25.93-3,51.85-4.45,77.78-.18,3.42-1.42,4.5-4.9,4.24-12.45-.93-24.91-1.73-37.39-2.22-3.91-.15-3.72-2.12-3.54-4.83,1.54-23.76,3-47.52,4.54-71.28.48-7.38.15-14.64-2.3-21.7-3.4-9.83-9.7-16.79-20.18-18.75s-19,1.94-26,9.54c-6.34,6.91-9.29,15.41-9.93,24.55-1.62,23.25-2.92,46.52-4.32,69.78-.5,8.38-.45,8.45-8.84,8-10.8-.64-21.59-1.49-32.4-2-3.09-.15-3.9-1.18-3.7-4.21,1.7-25.24,3.26-50.5,4.85-75.75,1.4-22.27,2.89-44.52,4.08-66.8.2-3.79,1.3-4.75,5-4.46,12,.93,23.92,1.62,35.89,2.19,3.67.18,4.56,1.69,3.86,5.05A72.4,72.4,0,0,0,626.86,375.92Z" transform="translate(-5.02 -4.94)"/><path class="cls-4" d="M282.94,556C321.19,577.5,362.46,585,405.8,581.86c36.81-2.64,71.29-13,102.52-33.16,2.49-1.61,4.94-3.26,7.4-4.89,1.22-.19,1.72.32,1.49,1.53-28.51,33.9-66.47,48.25-109.19,52.75-7,1.95-14.16.57-21.24.84-3.26.13-6.65.73-9.8-.85-20.08-2.13-39.74-6.16-58-15a168.82,168.82,0,0,1-38-26C280.9,555.35,281.69,555.25,282.94,556Z" transform="translate(-5.02 -4.94)"/><path class="cls-3" d="M695.85,80.24c1.28,2.61,3,4.54-2.27,5.23-15,2-30,4.19-44.76,7.45a424.24,424.24,0,0,0-43.27,12c-15.8,5.3-31.3,11.35-46.55,18-1.44.52-3.08,1.51-3.16-1.29a405,405,0,0,1,88.34-49.19c12.6-5.13,25.58-9.17,38.52-13.32,4.42,2.51,5.2,7.68,8.16,11.28a20.69,20.69,0,0,1,1.62,3A17.13,17.13,0,0,1,695.85,80.24Z" transform="translate(-5.02 -4.94)"/><path class="cls-2" d="M533.05,123a376.1,376.1,0,0,0-40.92-16.19c-14.23-4.66-28.5-9.3-43.2-12.52-10.16-2.23-20.39-3.89-30.58-5.79-7.13-1.34-14.4-1.64-21.45-3.35-1.53-.38-2.12-.8-1.31-2.26C399.7,75.43,403.79,68,408,60.58a2.17,2.17,0,0,1,3-1c10.83,4.7,22.34,7.49,33.33,11.81a400.2,400.2,0,0,1,46.57,21.8,395.45,395.45,0,0,1,45.24,28.76C535.77,124.32,534.35,123.48,533.05,123Z" transform="translate(-5.02 -4.94)"/><path class="cls-5" d="M692,74q-4.63-7.42-9.25-14.85l1.49-1.51a96.81,96.81,0,0,1,9,15C693.57,73.82,693,74.16,692,74Z" transform="translate(-5.02 -4.94)"/><path class="cls-6" d="M555.84,121.68c.63,1.45,2,1.2,3.16,1.29a33.35,33.35,0,0,1-8,4,1.5,1.5,0,0,1,0-2.11Z" transform="translate(-5.02 -4.94)"/><path class="cls-7" d="M527.91,76.05c1.35-.33,3,.46,4-1,2.67.33,3.39,2.73,4.54,5Z" transform="translate(-5.02 -4.94)"/><path class="cls-8" d="M533.05,123c1.09-.1,2.32.22,3-1,2,1.24,4.33,2.13,5.74,4.21,0,1.66-.72,1.57-1.79.81Z" transform="translate(-5.02 -4.94)"/><path class="cls-9" d="M692,74l1.24-1.37a18.81,18.81,0,0,1,3.76,6.4l-1.1,1.19A18.27,18.27,0,0,1,692,74Z" transform="translate(-5.02 -4.94)"/><path class="cls-10" d="M554,79c1.68-1,2.88-2.77,5-3.1a2.33,2.33,0,0,1,1.41,1.35c-2,1.42-3.68,3.37-6.32,3.7A1.3,1.3,0,0,1,554,79Z" transform="translate(-5.02 -4.94)"/><path class="cls-11" d="M517.21,545.34l-1.49-1.53,6.43-5.48A9.93,9.93,0,0,1,517.21,545.34Z" transform="translate(-5.02 -4.94)"/><path class="cls-12" d="M571,313.75c.3,1.19,1.35,1.17,2.24,1.41a15.07,15.07,0,0,1-6.07,3.14,1.1,1.1,0,0,1-.32-1.5A7.93,7.93,0,0,1,571,313.75Z" transform="translate(-5.02 -4.94)"/><path class="cls-13" d="M282.94,556c-.79.1-1.62.13-2,1-2.43-1.12-3.89-3.24-5.08-5.83Z" transform="translate(-5.02 -4.94)"/><path class="cls-14" d="M560.35,77.24l-1.41-1.35,1-1c3.32,2.68,5.89-2.42,9.1-.88C566.2,75.26,563.59,77.09,560.35,77.24Z" transform="translate(-5.02 -4.94)"/><path class="cls-15" d="M554,79l.06,2c-1,2-2.51,2.4-5.16,1.38Z" transform="translate(-5.02 -4.94)"/><path class="cls-7" d="M531.94,75c-3.35-.12-4.7-2.54-5.91-5.12C528.64,70.89,529.83,73.49,531.94,75Z" transform="translate(-5.02 -4.94)"/><path class="cls-16" d="M551.89,323.9l2.26,1.25-4.71,2.93C548.72,325.42,550.66,324.87,551.89,323.9Z" transform="translate(-5.02 -4.94)"/><path class="cls-17" d="M566.83,316.8c.11.5.21,1,.32,1.5-.77,1.92-2.84,1.37-4.19,2.19C563.37,318.34,565.05,317.52,566.83,316.8Z" transform="translate(-5.02 -4.94)"/><path class="cls-14" d="M566,69.89c-.65,2-1.58,3.52-4.05,3.07C563.38,72.09,564,70.14,566,69.89Z" transform="translate(-5.02 -4.94)"/><path class="cls-18" d="M540,127c.7,0,1.43,0,1.79-.81.74.06,2.1.07,1.59,1C542.51,128.69,541.11,128.23,540,127Z" transform="translate(-5.02 -4.94)"/><path class="cls-19" d="M551,124.9c0,.71,0,1.41,0,2.11-.88.49-2.13,2-2.69.53C547.64,125.81,550,125.76,551,124.9Z" transform="translate(-5.02 -4.94)"/><path class="cls-20" d="M541,327.16c.73-.1,1.48-.14,1.75-1,1.07.33,1.78,1.21.89,2S541.63,328.16,541,327.16Z" transform="translate(-5.02 -4.94)"/></svg>