<svg id="Calque_1" data-name="Calque 1" xmlns="http://www.w3.org/2000/svg" viewBox="0 0 300 190.61"><defs><style>.cls-1{fill:#424242;}.cls-2{fill:#131313;}.cls-3{fill:#3a7cec;}.cls-4{fill:#ebac26;}.cls-5{fill:#2ba04d;}.cls-6{fill:#da3337;}.cls-7{fill:#111;}.cls-8{fill:#030303;}.cls-9{fill:#0b0b0b;}.cls-10{fill:#070707;}.cls-11{fill:#0f0f0f;}.cls-12{fill:#050505;}.cls-13{fill:#161616;}.cls-14{fill:#010101;}.cls-15{fill:#020202;}.cls-16{fill:#0a0a0a;}.cls-17{fill:#0c0c0c;}.cls-18{fill:#080808;}.cls-19{fill:#0d0d0d;}.cls-20{fill:#343434;}.cls-21{fill:#333;}.cls-22{fill:#141414;}.cls-23{fill:#e4eaec;}.cls-24{fill:#1d1d1d;}.cls-25{fill:#101010;}.cls-26{fill:#1c1c1c;}.cls-27{fill:#4aa681;}.cls-28{fill:#121212;}.cls-29{fill:#edbe59;}.cls-30{fill:#202020;}.cls-31{fill:#3e3e3e;}.cls-32{fill:#6598ef;}.cls-33{fill:#d8e0e5;}.cls-34{fill:#59b178;}.cls-35{fill:#262626;}.cls-36{fill:#0e0e0e;}.cls-37{fill:#dce5f4;}.cls-38{fill:#585858;}.cls-39{fill:#61b97a;}.cls-40{fill:#151515;}.cls-41{fill:#242424;}.cls-42{fill:#4b8bf9;}.cls-43{fill:#494949;}.cls-44{fill:#e25c5f;}.cls-45{fill:#2a2a2a;}.cls-46{fill:#edd5d2;}.cls-47{fill:#272727;}.cls-48{fill:#3a3a3a;}.cls-49{fill:#323232;}.cls-50{fill:#060606;}.cls-51{fill:#c0d0ef;}.cls-52{fill:#3b3b3b;}.cls-53{fill:#454545;}.cls-54{fill:#eedcb0;}.cls-55{fill:#535353;}.cls-56{fill:#505050;}.cls-57{fill:#e15a5e;}.cls-58{fill:#545454;}.cls-59{fill:#fefefe;}.cls-60{fill:#e9e9e9;}.cls-61{fill:#4b4b4b;}</style></defs><title>_logo-text_</title><path class="cls-1" d="M107.34,193.3l-.8-.57a.31.31,0,0,1,.23-.2l1.46.45c-.12.27-.46.11-.61.32Z" transform="translate(-5 -2.7)"/><path class="cls-2" d="M107.62,193.3l.61-.32c.45.05,1-.22,1.31.32Z" transform="translate(-5 -2.7)"/><path class="cls-3" d="M63.83,137.65c-.42-5-3.15-8.7-7-11.7-1.55-1.22-1.57-1.21-.64-3a17.14,17.14,0,0,0,2.1-8,19,19,0,0,0-5-12.37c-5.49-5.91-12.24-7.55-20-6.08C24.4,98.13,15.44,99.56,6.49,101c-1.18.19-1.7.25-1.41,1.83,2,10.86,3.75,21.76,5.59,32.65q2.37,14,4.71,27.93c.16,1,.44,1.24,1.51,1.05,9.93-1.74,19.88-3.41,29.82-5.08C57.79,157.55,64.76,148.73,63.83,137.65Zm-38.44-15a1.11,1.11,0,0,1-1,.53,1.25,1.25,0,0,1-.85-2.13,1.66,1.66,0,0,1-.16-.21,1.26,1.26,0,0,1,.45-2.27,2.37,2.37,0,0,1,.09-.36A5.47,5.47,0,0,1,24,116.7a1,1,0,0,1-.3,0,1.23,1.23,0,0,1-1.13-1.7,1.26,1.26,0,0,1,.77-2.22,1.14,1.14,0,0,1,.95.46,1.21,1.21,0,0,1,.48-.1,1.16,1.16,0,0,1,1,.47,4.71,4.71,0,0,1,2.85-1,4.79,4.79,0,0,1,2.63-.72,5.47,5.47,0,0,1,1.1.11,4.47,4.47,0,0,1,.92-.1,4.79,4.79,0,0,1,2.63-.73,4.41,4.41,0,0,1,.52,0,5.06,5.06,0,0,1,2-.38c6.41,0,6.4,9.93,0,9.93l-.52,0a5.08,5.08,0,0,1-1.85.37,4.82,4.82,0,0,1-2.63.73,5.27,5.27,0,0,1-1.08-.11,5.64,5.64,0,0,1-.94.1,5.16,5.16,0,0,1-5.39-.08A1.18,1.18,0,0,1,25.39,122.65Zm18.32,22.14a4.41,4.41,0,0,1-.52,0,5.06,5.06,0,0,1-2,.39H41a4.8,4.8,0,0,1-2.64.72,6.3,6.3,0,0,1-.89-.07,6.42,6.42,0,0,1-.89.07h-.05a1.13,1.13,0,0,1-1,.57,1.24,1.24,0,0,1-.45-.09,4.91,4.91,0,0,1-2.41.59,5.22,5.22,0,0,1-1.28-.15,1.12,1.12,0,0,1-.87.36,1.13,1.13,0,0,1-.71-.22,1.16,1.16,0,0,1-.72.22,1.25,1.25,0,0,1-.47-2.39,5.59,5.59,0,0,1-.48-4.49,1.41,1.41,0,0,1-.48.09,1.25,1.25,0,0,1,0-2.49,1.15,1.15,0,0,1,1.18,1,4.38,4.38,0,0,1,2.87-1.77,4.74,4.74,0,0,1,2.75-.81h.2a5.14,5.14,0,0,1,2-.36,6.3,6.3,0,0,1,.89.07,6.3,6.3,0,0,1,.89-.07h.23a4.72,4.72,0,0,1,2.64-.73,4.24,4.24,0,0,1,.51,0,5,5,0,0,1,2-.39C50.11,134.85,50.1,144.79,43.71,144.79Z" transform="translate(-5 -2.7)"/><path class="cls-4" d="M253.77,105.61c-2.82-.29-5.64-.66-8.46-1-.91-.1-2-.51-2.68-.13s-.31,1.77-.64,2.66c0,0-.06,0-.14.12-.74-.64-1.46-1.34-2.25-1.94-6.93-5.21-17.89-4.33-24.55,2.1-6,5.74-7.73,13-6.64,20.92,2.08,15.26,19.11,21.53,29.14,15.16a6.87,6.87,0,0,1-5.68,5.91c-5.5.87-10.59-.19-14.82-4.07-.56-.52-.8-.49-1.28,0-1.46,1.53-3,3-4.45,4.5-2.14,2.16-2.21,2.24.21,4.11,6.71,5.2,14.38,6.67,22.59,5.25A19,19,0,0,0,248.64,148a30.54,30.54,0,0,0,2.31-9.85c1.18-10.47,2.44-20.93,3.7-31.4C254.73,106,254.56,105.7,253.77,105.61ZM230.43,134a10.11,10.11,0,0,1-9.94-9.94c-.24-5.36,4.74-9.93,9.94-9.93a10.1,10.1,0,0,1,9.93,9.93C240.6,129.45,235.62,134,230.43,134Z" transform="translate(-5 -2.7)"/><path class="cls-5" d="M279.49,110A25.43,25.43,0,1,0,305,135.46,25.37,25.37,0,0,0,279.49,110Zm.3,36.69c-6.27,0-10.91-5.13-11.18-11.18s5.33-11.18,11.18-11.18c6.26,0,10.9,5.12,11.18,11.18S285.63,146.71,279.79,146.71Z" transform="translate(-5 -2.7)"/><path class="cls-6" d="M140.74,83l-.09-.35a3.66,3.66,0,0,1-1.34-.89A149,149,0,0,0,118.12,70a156.69,156.69,0,0,0-16.85-6.83,148.3,148.3,0,0,0-16-4.74,40.44,40.44,0,0,0-3.94-1c-.87-.11-.45-.59-.23-1C82.54,54,84,51.42,85.44,48.87Q94.8,32.45,104.17,16c2.38-4.17,4.81-8.31,7.19-12.48.36-.63.69-1,1.5-.75,2.26.74,4.52,1.49,6.82,2.11a55,55,0,0,1,7.23,2.59,92.74,92.74,0,0,1,17.81,9.68c2.15,1.54,4.55,2.8,6.22,5a4.23,4.23,0,0,0,1.26.76c0,.42-.25.39-.53.22-2.61-1.08-5.18-2.28-7.85-3.2-2.85-1-5.71-1.94-8.63-2.68-3.55-.9-7.11-1.71-10.73-2.3a40.7,40.7,0,0,0-5.27-.61,1.72,1.72,0,0,0-1.74,1c-3,5.2-6,10.38-9,15.56-3.63,6.25-7.28,12.49-10.89,18.75-1,1.69-.93,1.74,1,2.2a32.53,32.53,0,0,1,5.28,2.29A127.73,127.73,0,0,1,119.11,62a152,152,0,0,1,13.33,9.23A135.86,135.86,0,0,1,147.6,84.83a64,64,0,0,1,6.25,7.34l-2.11-1.28c-3.42-1.94-6.62-4.22-9.89-6.38C141.29,84.14,140.61,83.82,140.74,83Z" transform="translate(-5 -2.7)"/><path class="cls-3" d="M159.6,90.51l-1.9.89c-.32.15-.64.33-.76-.21a62.72,62.72,0,0,1,6.21-6.92,139.13,139.13,0,0,1,19.18-16.42,127.62,127.62,0,0,1,15.38-9.58c4.71-2.43,9.4-5,14.48-6.67.85-.28.89-1.17.38-2q-3.45-5.87-6.84-11.76c-2.45-4.22-5-8.36-7.32-12.67a14.4,14.4,0,0,0-1.31-1.74c-.66-.36-.82-1.12-1.28-1.64-.66-1.46-1.88-2.63-2.22-4.25-.09-.89-.74-1.54-1-2.36a1.23,1.23,0,0,0-1.3-.82,24,24,0,0,0-3.29.07c-3.06.55-6.1,1.19-9.14,1.88-2.59.59-5.19,1.18-7.72,2s-5,1.85-7.44,2.8c-1.26.48-2.51,1-3.76,1.48-.46,0-.91.63-1.37,0a45.76,45.76,0,0,1,6.31-5,79.24,79.24,0,0,1,8.32-5.19,103.61,103.61,0,0,1,11.16-5.31c3.43-1.42,7-2.39,10.5-3.65.83-.3,1.78-.25,2.65-.56s.76.52,1,.89q7.23,12.35,14.42,24.72l15.91,27.35c.8,1.38.79,1.33-.73,1.74-5.64,1.52-11.3,3-16.83,4.84a201.08,201.08,0,0,0-19.95,8,183.72,183.72,0,0,0-18.44,9.93c-.92.56-2,1-2.46,2.09,0,.44-.36.61-.64.82-2.7,2-5.41,4-8.21,5.84A6.55,6.55,0,0,0,159.6,90.51Z" transform="translate(-5 -2.7)"/><path class="cls-4" d="M140.74,83A2.62,2.62,0,0,0,142,84.18l8.87,5.92c.33.23.74.38.92.79-2.08-.57-3.83-1.84-5.78-2.7-4.24-1.87-8.52-3.63-12.87-5.23-3.75-1.38-7.57-2.5-11.39-3.61-1.81-.53-3.7-.9-5.57-1.27-2.09-.41-4.14-1-6.25-1.33-3.41-.53-6.79-1.15-10.22-1.58a163.15,163.15,0,0,0-25.48-.78,108.56,108.56,0,0,0-14.13,1.42,76,76,0,0,1-8.49,1.27c2.53-4.46,5-8.85,7.51-13.24q9.75-17.16,19.51-34.3c2.87-5.05,5.78-10.07,8.65-15.11a1.56,1.56,0,0,1,1.53-.9,109.48,109.48,0,0,1,12,1l.28,0c2.89.3,2.89.3,1.41,2.89-1.09,1.92-2.22,3.81-3.26,5.74a1.89,1.89,0,0,1-2,1.22,13.37,13.37,0,0,0-1.79,0c-4,.07-3.92.1-5.88,3.54-4.07,7.16-8.2,14.29-12.31,21.43Q73.53,55.68,69.88,62c-.4.69-.34.93.51,1a152.11,152.11,0,0,1,18.68,2.12q5.84,1,11.6,2.51,5.1,1.29,10.1,2.86A156.78,156.78,0,0,1,126,76.19c4.66,2,9.16,4.33,13.63,6.73C140,83.13,140.36,83.31,140.74,83Z" transform="translate(-5 -2.7)"/><path class="cls-5" d="M161.38,88.94l9-6.48c1,.29,1.76-.4,2.53-.8a164.43,164.43,0,0,1,16.28-7.54c4.23-1.69,8.53-3.18,12.87-4.55,2.32-.74,4.7-1.34,7.09-1.92,2.74-.66,5.49-1.32,8.25-1.86s5.48-1,8.23-1.38c4.13-.61,8.28-.91,12.41-1.39.85-.1,2.1.33,2.43-.35s-.68-1.46-1.11-2.21L226.52,38.11c-2.45-4.24-4.93-8.47-7.36-12.71a1.65,1.65,0,0,0-1.65-.94c-1.42,0-2.85-.07-4.27-.05a1.43,1.43,0,0,1-1.45-.79c-1.49-2.69-3-5.35-4.53-8-.24-.43-.64-.93.33-1,3.91-.32,7.81-.71,11.72-1,3.13-.21,3.15-.15,4.66,2.46q5.84,10.17,11.64,20.35Q246.76,56,257.88,75.62c.15.28.29.58.43.86-.42.91-1.14.32-1.73.35-5.21-.8-10.41-1.52-15.66-2a166.19,166.19,0,0,0-21.51-.35,82.12,82.12,0,0,0-13.14,1.35c-2.16.42-4.37.71-6.54,1.1-3.17.56-6.31,1.28-9.44,2a63.27,63.27,0,0,0-6.92,1.92c-2.45.89-5,1.58-7.39,2.59-2,.85-4.17,1.5-6.21,2.39l-7.86,3.43C161.62,89.34,161.33,89.46,161.38,88.94Z" transform="translate(-5 -2.7)"/><path class="cls-6" d="M88.2,103.23a21.88,21.88,0,1,0,21.87,21.88A21.86,21.86,0,0,0,88.2,103.23Zm.22,31.86a10.12,10.12,0,0,1-9.94-9.94c-.24-5.36,4.74-9.93,9.94-9.93a10.11,10.11,0,0,1,9.94,9.93C98.6,130.52,93.62,135.09,88.42,135.09Z" transform="translate(-5 -2.7)"/><path class="cls-6" d="M136.59,101.37a21.89,21.89,0,1,0,21.91,21.88A21.89,21.89,0,0,0,136.59,101.37Zm.12,32.29a10.11,10.11,0,0,1-9.94-9.94c-.24-5.36,4.74-9.93,9.94-9.93a10.12,10.12,0,0,1,9.94,9.93C146.89,129.09,141.91,133.66,136.71,133.66Z" transform="translate(-5 -2.7)"/><path class="cls-4" d="M177.58,105.66c1-.63,1.88-1.23,2.8-1.72,9.59-5.19,20.68-.5,23.91,10,1.33,4.35,1.29,8.77,1,13.22-.35,5.68-.72,11.36-1.06,17-.12,1.93-.08,1.91-2,1.79-3.25-.21-6.5-.43-9.75-.58-.93,0-1.09-.31-1-1.23.47-7,.87-14,1.29-21a12.33,12.33,0,0,0-.92-5.66c-2.14-5-8-6.11-12-2.38a11.38,11.38,0,0,0-3.38,8c-.41,6.5-.83,13-1.18,19.51-.07,1.27-.45,1.71-1.79,1.58-3.24-.32-6.5-.51-9.75-.69-.87,0-1-.35-.93-1.18.55-8.2,1-16.39,1.53-24.59.31-5,.69-10.07,1-15.1,0-.87.26-1.19,1.19-1.12,3.39.25,6.78.44,10.16.61.88,0,1.24.37,1.09,1.27C177.69,104.13,177.66,104.81,177.58,105.66Z" transform="translate(-5 -2.7)"/><path class="cls-6" d="M147.84,152a31.23,31.23,0,0,1-3.69,3.85c-6.81,6.78-15.3,9.9-24.56,11.18a48.4,48.4,0,0,1-27.42-3.76A47.11,47.11,0,0,1,81,155.63s0-.16,0-.12c22.86,11.09,45.09,10.58,66.56-3.79C147.84,151.63,147.91,151.75,147.84,152Z" transform="translate(-5 -2.7)"/><path class="cls-5" d="M196.8,23.73c.45.8.51,1.17-.69,1.34-4.18.57-8.38,1.09-12.47,2.06a125.62,125.62,0,0,0-17.13,5.2c-2.45,1-4.85,2-7.33,2.92-1,.49-1,.49-1.44,0a111.72,111.72,0,0,1,26.48-14.47,56.36,56.36,0,0,1,9-2.85c1.23,1.1,1.79,2.64,2.66,4A4.62,4.62,0,0,1,196.8,23.73Z" transform="translate(-5 -2.7)"/><path class="cls-4" d="M151.1,35.24c-3.48-1.42-6.93-2.93-10.51-4.1-4.09-1.33-8.2-2.6-12.39-3.64-3.36-.83-6.78-1.25-10.15-2.05-1.52-.36-3.18-.11-4.8-.64-.15-.31.18-.58.34-.88.94-1.73,1.91-3.45,2.84-5.19.4-.74.73-1,1.7-.58a52.44,52.44,0,0,0,5.26,1.78,93.2,93.2,0,0,1,11.66,4.82,113.7,113.7,0,0,1,17.42,10.51C152.06,35.75,152.06,35.75,151.1,35.24Z" transform="translate(-5 -2.7)"/><path class="cls-7" d="M139.73,189.49a1.57,1.57,0,0,1-2,.18c-.44-.24-.32-1-.25-1.62a10.66,10.66,0,0,0-.2-4.86.19.19,0,0,1,0-.25c.64-1.79.37-2.9-1.09-3.66a9,9,0,0,0,1.08,0c1-.14,1.35.18,1.31,1.25-.09,2.51,0,5,0,7.53C138.63,188.79,138.61,189.59,139.73,189.49Z" transform="translate(-5 -2.7)"/><path class="cls-7" d="M81.71,179.75a1.29,1.29,0,0,0-.36,1.13c0,2.45,0,4.91,0,7.36,0,.69.2,1.15.94,1.25a.17.17,0,0,1,.06.18c0,.06,0,.09-.07.09H78.85c1.27-.33,1.56-.89,1.53-1.81-.08-2.23,0-4.47,0-6.7a2.07,2.07,0,0,0-.27-1.44C80.65,179.26,81,179.25,81.71,179.75Z" transform="translate(-5 -2.7)"/><path class="cls-8" d="M161.87,189.17c1.24-1.82.75-3.78.44-5.71,0-.25-.32-.45-.18-.75.92-.61.58-2.61-.55-3.29,2-.27,2-.27,2,1.65V188c0,.72-.1,1.49,1,1.63-1.09.7-1.81-.21-2.66-.22-.1,0-.14-.08-.11-.13A.14.14,0,0,1,161.87,189.17Z" transform="translate(-5 -2.7)"/><path class="cls-9" d="M230,182.6c-1.17,2-1.1,6.26.24,7.15h-2.9c1.35-1.12,1.26-7.39-.07-8.21,1.18-.62,1.83.1,2.37,1A.23.23,0,0,1,230,182.6Z" transform="translate(-5 -2.7)"/><path class="cls-10" d="M185.29,182c-1.21,1.65-.91,2.48,1,3,.83.23,1.67.46,2.47.76a1.74,1.74,0,0,1,1.23,2,1.72,1.72,0,0,1-1.67,1.65c-.31.14-.34,0-.31-.28a1.81,1.81,0,0,0,1.05-1.76c-.12-.9-1-1-1.65-1.2s-1.59-.38-2.36-.65a2,2,0,0,1-1.47-1.92,1.84,1.84,0,0,1,1.37-1.93C185.29,181.62,185.35,181.76,185.29,182Z" transform="translate(-5 -2.7)"/><path class="cls-11" d="M221.62,181.49c2.14-.15,2.14-.15,2.14,1.83,0,1.56,0,3.12,0,4.67,0,.75,0,1.47.9,1.78h-2.9C223.19,188.69,223.15,182.34,221.62,181.49Z" transform="translate(-5 -2.7)"/><path class="cls-12" d="M206.13,188.05c.09.71-.45,1.13-.77,2-1.27-2.53-2.43-4.82-3.57-7.12-.29-.59-.52-1.22-1.26-1.44h3.37c-1.4.54-1.15,1.4-.61,2.41.69,1.28,1.3,2.62,2,3.92.15.3.26,1,.79.27Z" transform="translate(-5 -2.7)"/><path class="cls-13" d="M110.46,186.73l-.93.46c1,.44,2.19.59,2.66,1.73a2.52,2.52,0,0,1,0,1.87c-.41,1.05-.9,2.13-2.49,2a9.27,9.27,0,0,0,.94-.85,2.32,2.32,0,0,0-1.42-4,3.46,3.46,0,0,0-1,0c-.92.11-1.67,0-1.8-1.14.31-.26.57-.14.82.11.1.1,0,.28.18.39,0-.15-.06-.29,0-.44a.67.67,0,0,1,.27-.26,7.48,7.48,0,0,1,2.26-.21A.67.67,0,0,1,110.46,186.73Z" transform="translate(-5 -2.7)"/><path class="cls-14" d="M126.19,181.53c1.84-.21,1.84-.21,1.84,1.57,0,1.56,0,3.12,0,4.68,0,.78-.07,1.58.86,2h-2.62C127.56,188.51,127.48,182.41,126.19,181.53Z" transform="translate(-5 -2.7)"/><path class="cls-8" d="M121.08,189.1c.9-2,.55-4.13.39-6.21-.06-.89-.88-1.14-1.63-1.4h3.52a1.94,1.94,0,0,0-.84,1.91c0,1.28,0,2.56,0,3.84a2,2,0,0,1-1.4,2.11q-.16-.06-.12-.15C121,189.13,121.05,189.1,121.08,189.1Z" transform="translate(-5 -2.7)"/><path class="cls-15" d="M173.15,189.13c1-2,.49-4.12.44-6.19,0-.79-.77-1.12-1.42-1.46h3.39c-1,.55-.95,1.34-.95,2.1,0,1.24,0,2.47,0,3.71a2,2,0,0,1-1.42,2.06c-.11,0-.14-.08-.12-.13S173.11,189.13,173.15,189.13Z" transform="translate(-5 -2.7)"/><path class="cls-16" d="M158.56,182a4.8,4.8,0,0,0,.54,7.28c0,.23,0,.37-.3.22-1.92-.65-2.58-2.2-2.64-4-.06-1.6.37-3.06,2.07-3.76C158.53,181.56,158.58,181.72,158.56,182Z" transform="translate(-5 -2.7)"/><path class="cls-8" d="M196.84,188.5a11.88,11.88,0,0,0,.54-3.85c0-.66-.31-.73-.8-.74.65-.44.59-1,.23-1.58-.06-.27,0-.41.33-.33a2.28,2.28,0,0,1,1.12,2.17c0,1.28,0,2.55,0,3.83,0,.72.05,1.37.88,1.67-1,.15-2,.54-1.82-1.16C197.36,188.13,197,188.47,196.84,188.5Z" transform="translate(-5 -2.7)"/><path class="cls-8" d="M169.31,189.43a2,2,0,0,1-1.68-2.16c0-1.37,0-2.75,0-4.12a1.49,1.49,0,0,0-.93-1.66h2.48c-1,1.41-.9,6.21.14,7.77Z" transform="translate(-5 -2.7)"/><path class="cls-8" d="M117.25,189.45a2,2,0,0,1-1.7-2.13c0-1.33,0-2.65,0-4,0-.78,0-1.57-.92-1.9h2.59c-1.22,1.18-.67,2.61-.71,3.93s-.37,2.77.77,3.88Z" transform="translate(-5 -2.7)"/><path class="cls-17" d="M217,181.71a3.82,3.82,0,0,1,2.61,3.85c-.07,1.83-.75,3.34-2.67,4a.54.54,0,0,1-.15-.38c.46-1,1.28-1.72,1.44-2.89.24-1.78-.61-3.05-1.65-4.29C216.65,181.72,216.74,181.56,217,181.71Z" transform="translate(-5 -2.7)"/><path class="cls-16" d="M213.89,189.46a3.6,3.6,0,0,1-2.46-3.56,4,4,0,0,1,2.26-4.15c.31-.24.5-.14.59.21a1.4,1.4,0,0,1-.4.71,4.17,4.17,0,0,0,.06,5.93,1.14,1.14,0,0,1,.34.59C214.24,189.42,214.17,189.6,213.89,189.46Z" transform="translate(-5 -2.7)"/><path class="cls-7" d="M110.46,186.73l-.36-.26c0-.49.41-.8.57-1.22a1.89,1.89,0,0,0-1.46-2.85c-.66-.55-1.52,0-2.21-.37a.32.32,0,0,1,0-.36,2.2,2.2,0,0,1,1.58-.27c.61,0,1.19.13,1.43-.64.11-.31.33-.46.62-.22s0,.38-.15.51c-.51.47-.14.58.26.81a2.6,2.6,0,0,1,1.51,2.56A2.5,2.5,0,0,1,110.46,186.73Z" transform="translate(-5 -2.7)"/><path class="cls-18" d="M133.51,182a5.09,5.09,0,0,0,0,6.85c.07.27,0,.4-.31.31-2.78-1.93-2.78-5.9,0-7.46C133.51,181.62,133.57,181.76,133.51,182Z" transform="translate(-5 -2.7)"/><path class="cls-19" d="M90.83,185.89a3.28,3.28,0,0,0,1.91,3.31c0,.24,0,.4-.3.26A3.66,3.66,0,0,1,89.87,186a3.86,3.86,0,0,1,2-4c.26-.1.38,0,.45.26-.37,1.06-1.21,1.94-1.17,3.15A1.38,1.38,0,0,1,90.83,185.89Z" transform="translate(-5 -2.7)"/><path class="cls-7" d="M142.31,185.85a3.66,3.66,0,0,0,.34,2.11c.08.33-.05.46-.38.41-1.72-2.29-1.34-4.88.91-6.34.27-.09.33.09.38.28-.15.82-.76,1.42-1,2.19C142.29,184.92,142.55,185.43,142.31,185.85Z" transform="translate(-5 -2.7)"/><path class="cls-16" d="M194.88,184.92c-.2.41-.65.48-1,.72-.93.69-1.5,1.53-.9,2.69a1.8,1.8,0,0,0,2.54.89,2.26,2.26,0,0,1,.53-.06c-.85,1-1.87.74-2.87.35a2,2,0,0,1-1.41-2c0-1.25.9-1.88,1.87-2.39.36-.19.76-.53,1.24-.24Z" transform="translate(-5 -2.7)"/><path class="cls-9" d="M107,181.67l0,.33c0,.43-.36.71-.56,1.06-.81,1.47-.41,2.45,1.19,2.91a.58.58,0,0,1-.08.73v.3c-.07.08-.14.09-.21,0l-.89-.3a2.42,2.42,0,0,1-1.65-2.78A2.49,2.49,0,0,1,107,181.67Z" transform="translate(-5 -2.7)"/><path class="cls-7" d="M92.77,181.54c2.86-.45,4.48,1,4.61,4a.66.66,0,0,1-.93-.09,3.39,3.39,0,0,1-.47-1.13A3.23,3.23,0,0,0,93.1,182C92.91,181.89,92.75,181.78,92.77,181.54Z" transform="translate(-5 -2.7)"/><path class="cls-20" d="M142.31,185.85c-.23-.45-.49-.9,0-1.37a7.37,7.37,0,0,0,5.29.07c.59-.46.69.47,1.14.4.42.83-.08.92-.72.91Z" transform="translate(-5 -2.7)"/><path class="cls-11" d="M148.71,185c-.17.14-.05,1-.55.24-.14-.2-.07-.52-.31-.71-.94-1.19-1.84-2.44-3.53-2.62a.25.25,0,0,1-.11-.21c0-.08,0-.13,0-.13C146.88,181.13,148.28,182.21,148.71,185Z" transform="translate(-5 -2.7)"/><path class="cls-21" d="M96.57,185.26c.17.36.5.32.81.32-.71.6-1.54.23-2.31.27-1.41.07-2.83,0-4.24,0v-.57A8.66,8.66,0,0,1,96.57,185.26Z" transform="translate(-5 -2.7)"/><path class="cls-22" d="M188,189.19l.31.28c-1.18.79-2.47.51-3.68.24-.68-.16-.76-1-1-2C185.09,189.11,186.35,189.91,188,189.19Z" transform="translate(-5 -2.7)"/><path class="cls-23" d="M195.72,22l-2.5-4.12.38-.38a29.66,29.66,0,0,1,2.47,4.13C196.16,22,196,22.06,195.72,22Z" transform="translate(-5 -2.7)"/><path class="cls-24" d="M144.07,189c1.44.71,2.64,0,3.94-.84-.65,1.54-2.76,2.23-3.91,1.43-.24-.17-.1-.4,0-.61Z" transform="translate(-5 -2.7)"/><path class="cls-25" d="M185.29,182l-.31-.29c1-.68,2.18-.36,3.27-.27.73.06.67.85.92,1.33.1.31,0,.38-.31.32C187.85,182.17,186.82,181.25,185.29,182Z" transform="translate(-5 -2.7)"/><path class="cls-11" d="M230.45,181.75c2.12-.94,2.75-.55,3,2-.65-1-1.28-1.76-2.39-1.75C230.75,182.16,230.47,182.24,230.45,181.75Z" transform="translate(-5 -2.7)"/><path class="cls-13" d="M196,181.75a4.52,4.52,0,0,0-3.58,1.56c.07-1.3.46-1.95,1.67-1.9a8,8,0,0,1,1.9.08c.07.06.09.11.07.17S196,181.75,196,181.75Z" transform="translate(-5 -2.7)"/><path class="cls-26" d="M92.44,189.46l.3-.26a4.8,4.8,0,0,0,3.65-.85C95.82,189.93,94.45,190.22,92.44,189.46Z" transform="translate(-5 -2.7)"/><path class="cls-9" d="M84.76,189.48c1.33-.2,1.79-1.4,2.61-2.4-.34,2.77-.41,2.84-2.6,2.68a.16.16,0,0,1-.07-.18C84.72,189.51,84.74,189.48,84.76,189.48Z" transform="translate(-5 -2.7)"/><path class="cls-17" d="M106.77,192.53l-.23.2c-1.91-1.13-2.11-1.79-.84-3A2.78,2.78,0,0,0,106.77,192.53Z" transform="translate(-5 -2.7)"/><path class="cls-27" d="M157.74,35.21c.47.65,1-.14,1.44,0a14.55,14.55,0,0,1-3.49,1.7A4.68,4.68,0,0,1,157.74,35.21Z" transform="translate(-5 -2.7)"/><path class="cls-24" d="M223.75,180.21a.82.82,0,0,1-.8.74c-.37,0-.61-.17-.6-.56a.71.71,0,0,1,.76-.76A.62.62,0,0,1,223.75,180.21Z" transform="translate(-5 -2.7)"/><path class="cls-28" d="M128,180.1c0,.52-.24.78-.66.83s-.67-.09-.71-.46.3-.76.73-.83A.54.54,0,0,1,128,180.1Z" transform="translate(-5 -2.7)"/><path class="cls-29" d="M151.1,35.24c.46-.13.9.56,1.37,0a4.15,4.15,0,0,1,1.46,1c0,.28-.06.4-.34.36C152.83,36.05,151.81,35.93,151.1,35.24Z" transform="translate(-5 -2.7)"/><path class="cls-30" d="M84.76,189.48v.28a6.57,6.57,0,0,1-2.5,0v-.27Z" transform="translate(-5 -2.7)"/><path class="cls-31" d="M81.71,179.75a1.25,1.25,0,0,0-1.63.06l-1.39-.46h4.54Z" transform="translate(-5 -2.7)"/><path class="cls-32" d="M158.56,22.55c.46.25.91-.17,1.37,0-.57.5-1.48.41-1.91,1.12-.33.09-.73.39-.8-.27C157.67,23.12,157.94,22.54,158.56,22.55Z" transform="translate(-5 -2.7)"/><path class="cls-33" d="M195.72,22l.35-.37a5.3,5.3,0,0,1,1,1.76l-.3.33A5.06,5.06,0,0,1,195.72,22Z" transform="translate(-5 -2.7)"/><path class="cls-34" d="M161.38,88.94c.09.26.33.24.53.29a8.85,8.85,0,0,1-2.31,1.28C159.87,89.62,160.71,89.37,161.38,88.94Z" transform="translate(-5 -2.7)"/><path class="cls-35" d="M133.51,182l-.3-.3c1-.47,2-.83,2.89.31A3.12,3.12,0,0,0,133.51,182Z" transform="translate(-5 -2.7)"/><path class="cls-13" d="M214.2,182l-.51-.23a3.85,3.85,0,0,1,3.33,0l-.34.24A4.28,4.28,0,0,1,214.2,182Z" transform="translate(-5 -2.7)"/><path class="cls-11" d="M213.89,189.46l.31-.23a4.86,4.86,0,0,1,2.75,0v.34A3.45,3.45,0,0,1,213.89,189.46Z" transform="translate(-5 -2.7)"/><path class="cls-36" d="M158.8,189.47l.3-.22a4.24,4.24,0,0,0,2.77-.08.41.41,0,0,1,0,.19A3,3,0,0,1,158.8,189.47Z" transform="translate(-5 -2.7)"/><path class="cls-37" d="M157.22,23.39c.17.36.49.29.8.27a3.51,3.51,0,0,1-1.89.75A2,2,0,0,1,157.22,23.39Z" transform="translate(-5 -2.7)"/><path class="cls-38" d="M172.11,189.77a2.13,2.13,0,0,1-2,0c0-.18.19-.19.3-.28h1.42C171.92,189.58,172.09,189.59,172.11,189.77Z" transform="translate(-5 -2.7)"/><path class="cls-38" d="M120.06,189.77a2.15,2.15,0,0,1-2,0c0-.18.19-.19.3-.27h1.43C119.87,189.58,120,189.59,120.06,189.77Z" transform="translate(-5 -2.7)"/><path class="cls-30" d="M158.56,182l-.33-.27a2.67,2.67,0,0,1,2.5-.15c0,.24,0,.34-.29.22A3.54,3.54,0,0,0,158.56,182Z" transform="translate(-5 -2.7)"/><path class="cls-39" d="M256.58,76.83c.55-.23,1.25.23,1.73-.35a1,1,0,0,1,.41,1.07C258.08,77,257.25,77.19,256.58,76.83Z" transform="translate(-5 -2.7)"/><path class="cls-36" d="M134.35,189.34c.9.49,1.86-.46,2.75.11a4.1,4.1,0,0,1-2.76.24A.25.25,0,0,1,134.35,189.34Z" transform="translate(-5 -2.7)"/><path class="cls-40" d="M210.17,181.56c-.71-.07-.67,1-1.41.88.27-.36,0-.62-.19-.88C209.07,181.25,209.59,181.46,210.17,181.56Z" transform="translate(-5 -2.7)"/><path class="cls-41" d="M142.27,188.37l.38-.41c.44.39.72,1,1.42,1v0C143.11,189.85,142.78,188.84,142.27,188.37Z" transform="translate(-5 -2.7)"/><path class="cls-42" d="M156.94,91.19c.2.26.49.19.76.21l-1.33.85c-.62-.14-.17-.39-.06-.61Z" transform="translate(-5 -2.7)"/><path class="cls-43" d="M194.88,184.92l0,0a1.08,1.08,0,0,1,1.13-.68C196,185,195.43,184.94,194.88,184.92Z" transform="translate(-5 -2.7)"/><path class="cls-44" d="M151.67,23.11l.53-.22a1,1,0,0,1,.72.69C152.27,23.94,152,23.38,151.67,23.11Z" transform="translate(-5 -2.7)"/><path class="cls-45" d="M230.45,181.75c.13.26.39.22.61.29l-1,.56-.36,0A1,1,0,0,1,230.45,181.75Z" transform="translate(-5 -2.7)"/><path class="cls-46" d="M139.31,81.71a3.39,3.39,0,0,1,1.34.89A1.22,1.22,0,0,1,139.31,81.71Z" transform="translate(-5 -2.7)"/><path class="cls-47" d="M134.35,189.34v.35a1.63,1.63,0,0,1-1.13-.51l.31-.31Z" transform="translate(-5 -2.7)"/><path class="cls-48" d="M196,181.75a2.26,2.26,0,0,0,0-.26,1.36,1.36,0,0,1,1.13.51l-.33.33Z" transform="translate(-5 -2.7)"/><path class="cls-49" d="M144.26,181.52v.3c-.1.47-.39.61-.84.47l-.24-.26C143.47,181.72,143.73,181.34,144.26,181.52Z" transform="translate(-5 -2.7)"/><path class="cls-50" d="M208.48,183.45a1.17,1.17,0,0,1-.61,1.05A1.24,1.24,0,0,1,208.48,183.45Z" transform="translate(-5 -2.7)"/><path class="cls-7" d="M172.11,189.77l-.3-.28,1.34-.36a.34.34,0,0,1,0,.22A1.25,1.25,0,0,1,172.11,189.77Z" transform="translate(-5 -2.7)"/><path class="cls-51" d="M156.31,91.64c0,.2-.32.44.06.61-.18.22-.49.39-.61.1S155.91,91.72,156.31,91.64Z" transform="translate(-5 -2.7)"/><path class="cls-52" d="M137.35,182.94l0,.25c-.3-.37-.94-.51-.78-1.18C136.9,182.22,137.29,182.44,137.35,182.94Z" transform="translate(-5 -2.7)"/><path class="cls-53" d="M92.77,181.54l.29.23c-.1.52-.38.7-.88.46l-.34-.28A1.27,1.27,0,0,1,92.77,181.54Z" transform="translate(-5 -2.7)"/><path class="cls-15" d="M206.13,188.05l-.08,0a2,2,0,0,1,.55-1.1h.1A1,1,0,0,1,206.13,188.05Z" transform="translate(-5 -2.7)"/><path class="cls-25" d="M120.06,189.77l-.3-.28,1.32-.39a.43.43,0,0,1,0,.25A1.3,1.3,0,0,1,120.06,189.77Z" transform="translate(-5 -2.7)"/><path class="cls-54" d="M153.59,36.65l.34-.36c.22.06.53.15.36.42S153.81,36.84,153.59,36.65Z" transform="translate(-5 -2.7)"/><path class="cls-18" d="M206.7,187h-.1a.86.86,0,0,1,.62-.85C207.06,186.49,207.14,186.86,206.7,187Z" transform="translate(-5 -2.7)"/><path class="cls-55" d="M87.76,186.06c.08.48.08.85-.22.86-.52,0-.18-.32-.1-.51S87.6,186.22,87.76,186.06Z" transform="translate(-5 -2.7)"/><path class="cls-25" d="M118.33,189.5l-.3.27c-.27-.07-.64.1-.78-.32a.31.31,0,0,1,0-.19Z" transform="translate(-5 -2.7)"/><path class="cls-56" d="M188.86,183.11l.31-.32c.25.26.54.6.16.85C189.13,183.78,189,183.33,188.86,183.11Z" transform="translate(-5 -2.7)"/><path class="cls-7" d="M170.39,189.49l-.3.28c-.28-.08-.66.09-.78-.34a.2.2,0,0,1,0-.17Z" transform="translate(-5 -2.7)"/><path class="cls-57" d="M147.84,152l-.28-.29c.23-.22.46-.72.78-.37S148.1,151.85,147.84,152Z" transform="translate(-5 -2.7)"/><path class="cls-58" d="M160.44,181.77l.29-.22c.29.09.6.13.74.46C161,182.44,160.76,182,160.44,181.77Z" transform="translate(-5 -2.7)"/><path class="cls-59" d="M27.07,137.72c-.57.09-.58.41-.52.78a1.13,1.13,0,0,1,1.06-.64,1.15,1.15,0,0,1,1.18,1,4.38,4.38,0,0,1,2.86-1.77l.23-.16Z" transform="translate(-5 -2.7)"/><path class="cls-59" d="M28.57,144.75a5.61,5.61,0,0,1-.48-4.5,1.21,1.21,0,0,1-.48.1,1.15,1.15,0,0,1-.8-.3q.53,3.13,1,6.27c.09.54.25.82.82.77A1.27,1.27,0,0,1,28.57,144.75Z" transform="translate(-5 -2.7)"/><path class="cls-59" d="M47.89,137.26a5.48,5.48,0,0,1-.68,6.08,4.57,4.57,0,0,0,1.49-2.69A3.83,3.83,0,0,0,47.89,137.26Z" transform="translate(-5 -2.7)"/><path class="cls-59" d="M43.22,115.72a4.7,4.7,0,0,0-.88-2.73,5.54,5.54,0,0,1,.66,4.1A4.73,4.73,0,0,0,43.22,115.72Z" transform="translate(-5 -2.7)"/><path class="cls-59" d="M25.15,113.25a1,1,0,0,1,.55.4,4.42,4.42,0,0,1,1.32-.72Z" transform="translate(-5 -2.7)"/><path class="cls-59" d="M25.41,122.63l0,.05,1.73-.3a4.89,4.89,0,0,1-1.17-.57A1.18,1.18,0,0,1,25.41,122.63Z" transform="translate(-5 -2.7)"/><path class="cls-59" d="M24,116.71a1.45,1.45,0,0,1-.3,0,1.15,1.15,0,0,1-.9-.38c.15.83.3,1.66.44,2.49a1.12,1.12,0,0,1,.61-.28,2.37,2.37,0,0,1,.09-.36A5.38,5.38,0,0,1,24,116.71Z" transform="translate(-5 -2.7)"/><path class="cls-59" d="M234.46,133.1a8.71,8.71,0,0,0,3.24-2.31A10.6,10.6,0,0,1,234.46,133.1Z" transform="translate(-5 -2.7)"/><path class="cls-59" d="M268.61,135.53c-.22-5,3.56-9.36,8.18-10.73a11,11,0,0,0-4.47,19A12.06,12.06,0,0,1,268.61,135.53Z" transform="translate(-5 -2.7)"/><path class="cls-59" d="M135.11,113.93a9.35,9.35,0,0,0-3.88,1.58A10.44,10.44,0,0,1,135.11,113.93Z" transform="translate(-5 -2.7)"/><path class="cls-60" d="M107.4,187a.17.17,0,0,0,.21,0l.33.36a.68.68,0,0,1-.84,0Z" transform="translate(-5 -2.7)"/><path class="cls-61" d="M108.16,184.6c-.11-.47.25-.56.57-.68a1.62,1.62,0,0,1-.55,1.14A.38.38,0,0,1,108.16,184.6Z" transform="translate(-5 -2.7)"/><path class="cls-19" d="M108.16,184.6l0,.46c-.08.35-.17.7-.58.83A1.71,1.71,0,0,1,108.16,184.6Z" transform="translate(-5 -2.7)"/></svg>