<svg id="Calque_1" data-name="Calque 1" xmlns="http://www.w3.org/2000/svg" viewBox="0 0 420 422.22"><defs><style>.cls-1{fill:#ebac26;}.cls-2{fill:#da3337;}.cls-3{fill:#3a7cec;}.cls-4{fill:#2ba04d;}.cls-5{fill:#2ba14d;}.cls-6{fill:#ebad26;}.cls-7{fill:#f7f6f4;}.cls-8{fill:#ebd6d2;}.cls-9{fill:#ead7c9;}.cls-10{fill:#e0595c;}.cls-11{fill:#53ad7e;}.cls-12{fill:#efc15e;}.cls-13{fill:#d8dfe0;}.cls-14{fill:#4fab79;}.cls-15{fill:#d9e2ed;}.cls-16{fill:#e7cb90;}.cls-17{fill:#d9e3f5;}.cls-18{fill:#72a0ec;}.cls-19{fill:#e7b0a7;}.cls-20{fill:#efca7c;}.cls-21{fill:#50a987;}.cls-22{fill:#6ebe85;}.cls-23{fill:#e26568;}.cls-24{fill:#6194ee;}.cls-25{fill:#e79799;}.cls-26{fill:#e27e81;}.cls-27{fill:#a1cac3;}.cls-28{fill:#5db478;}.cls-29{fill:#fefefe;}.cls-30{fill:#ecd7c9;}.cls-31{fill:#edddda;}.cls-32{fill:#f2ddd0;}.cls-33{fill:#eecfa4;}.cls-34{fill:#f6f2f2;}.cls-35{fill:#faf7f2;}.cls-36{fill:#dce8e3;}</style></defs><title>_logo_</title><path class="cls-1" d="M317.87,172.35A88.68,88.68,0,1,0,406.29,261,88.78,88.78,0,0,0,317.87,172.35ZM345.2,288.69A39.78,39.78,0,0,1,317.94,300c-10.45,0-19.72-4.36-27.27-11.29s-10.84-17.29-11.29-27.26c-.43-9.61,4.6-20.58,11.29-27.27a39.79,39.79,0,0,1,27.27-11.29c10.44,0,19.72,4.37,27.26,11.29s10.85,17.3,11.29,27.27C356.92,271,351.89,282,345.2,288.69Z" transform="translate(-5.82 -2.92)"/><path class="cls-2" d="M121.2,173.72A88.56,88.56,0,1,0,210,262,88.55,88.55,0,0,0,121.2,173.72ZM149,289.55a39.81,39.81,0,0,1-27.27,11.29c-10.44,0-19.72-4.37-27.26-11.29s-10.85-17.29-11.29-27.27c-.43-9.6,4.6-20.57,11.29-27.26a39.78,39.78,0,0,1,27.26-11.29c10.45,0,19.72,4.37,27.27,11.29s10.84,17.29,11.29,27.26C160.71,271.89,155.67,282.86,149,289.55Z" transform="translate(-5.82 -2.92)"/><path class="cls-2" d="M114.1,26.69c4.29-5.88,7.18-12.59,11-18.74,3.57-5.74,3.49-5.81,9.79-3.95,24.61,7.27,47.51,18,68,33.67,1.75,1.33,3.88,2.43,4.83,5.63-4.61-1.74-8.75-3.21-12.81-4.85-14.68-5.94-30-9.4-45.56-12-8.38-1.38-8.7-.88-13,7.92a17.62,17.62,0,0,1-2.8,6.34c-1.34,1.89-2.07,4.22-4.09,5.61L99.37,97.62c-1.5,2.57-1.46,3.58,2.06,4.84,12.32,4.41,24,10.41,35.36,16.86a283.39,283.39,0,0,1,67.38,53.37c2.53,2.7,4.94,5.52,7.4,8.29.79,1,.72,1.64-.75,1.62l-2.51-1.67c-7.37-4.45-14.91-8.65-21.63-14.09-.67-.88-1-2-2-2.65a13.76,13.76,0,0,0-3-1.65c-22.16-14.25-45.85-25.34-70.52-34.45a342,342,0,0,0-40.48-12.18c-6.62-1.55-7.06-2.72-3.66-8.63q17-29.64,33.9-59.38c1.62-1.74,2.45-4,3.56-6A20,20,0,0,1,105.69,40a30.82,30.82,0,0,0,2.36-4.38,32.43,32.43,0,0,1,2-3.44A21.5,21.5,0,0,1,114.1,26.69Z" transform="translate(-5.82 -2.92)"/><path class="cls-3" d="M223.74,42.15c9-8.17,19.25-14.55,29.78-20.49,13.68-7.72,28.37-13,43.31-17.65,3.75-1.16,6.32-.83,8.77,3.46,19.4,33.9,39.21,67.58,58.88,101.33,2.6,4.47,2.56,4.52-2.45,5.71a371,371,0,0,0-111,46.17c-1.17.73-2.74,1.07-2.53,3-4.51,4.83-10.39,7.82-15.6,11.71-1.52,1.09-3.32,1.76-4.72,3.05-1,.45-1.91,1-2.91,1.5L222,181.8c-1.63.07-1.41-.83-1-1.84a280.39,280.39,0,0,1,83.94-66c8-4.09,15.88-8.38,24.34-11.39,3.71-1.32,4.27-2.9,2.31-6.19-6.28-10.51-12.38-21.13-18.59-31.68-3.45-5.86-7-11.68-10.45-17.52-1.65-1-2.47-2.75-3.85-4a9.42,9.42,0,0,1-1.31-2.49,18.68,18.68,0,0,0-1.83-3.45,19.23,19.23,0,0,1-2.45-6.41c-2.11-4.78-4.52-5.47-12-4.19a242.94,242.94,0,0,0-55.77,16.29C224.44,43.53,223.72,43.62,223.74,42.15Z" transform="translate(-5.82 -2.92)"/><path class="cls-1" d="M186.89,166.22c7.16,4.87,14.74,9.14,21.42,14.71-9.21-4.05-18.3-8.42-27.66-12.1A311.21,311.21,0,0,0,54.34,147.76a264.72,264.72,0,0,0-43.07,5c-1.54.09-3.35,1.35-4.35-1Q42.26,89.69,77.55,27.6c1.26-2.21,2.72-2.77,5.1-2.88,7.3-.36,14.44,1.73,21.73,1.16a4.65,4.65,0,0,0,2.47.36c5.65.13,6,.73,3.54,5.79a22.18,22.18,0,0,0-1.9,3.08c-.64,1.36-1.47,2.62-2.23,3.92-.48.81-1,1.6-1.4,2.45-1.4,1.66-1.76,4-3.66,5.37a4.77,4.77,0,0,1-1.21.45c-3.88.75-7.91-.6-11.73.9-4.49,5.07-7.14,11.3-10.49,17-10.46,18-21,36-31.19,54.07-2.27,4-2.17,4.32,2.32,4.65a333.87,333.87,0,0,1,48.17,6.91,325.09,325.09,0,0,1,64.76,21.65A180.46,180.46,0,0,1,180.51,162c1,.71,2.13,1.19,3.13,1.89A26.71,26.71,0,0,1,186.89,166.22Z" transform="translate(-5.82 -2.92)"/><path class="cls-4" d="M232.27,174.85c5.34-3.84,10.37-8.13,16.24-11.21,4.78-.74,8.49-3.88,12.66-5.9a332.3,332.3,0,0,1,94.14-29.62c11.09-1.73,22.32-2.54,34-3.83-2.47-4.4-4.78-8.59-7.16-12.72-12-20.74-24-41.44-35.94-62.23a4.61,4.61,0,0,0-5.27-2.54c-7.08,1.09-11.46-1.82-14-8.49-1.19-3.16-3.33-6-5-8.93-1-1.65-.86-2.53,1.4-2.68,8.79-.59,17.52-2.1,26.38-2,1.82,0,3.08.3,4.13,2.15q35.1,61.76,70.34,123.44c.43.74.77,1.52,1.16,2.29a6.62,6.62,0,0,1-4.68.08,311.3,311.3,0,0,0-68.81-5,303.8,303.8,0,0,0-84.32,15.16c-11.35,3.75-22.4,8.24-33.35,13C233.21,176.14,232.2,176.5,232.27,174.85Z" transform="translate(-5.82 -2.92)"/><path class="cls-2" d="M93.44,373.68a228.16,228.16,0,0,0,92.44,31.23c57,6.52,111.09-2.45,161.05-31.87,4.15-2.44,8.07-5.3,12.1-8,.88-.51,1.58-.61,1.66.73-7.66,9.87-17.79,17-27.3,24.86-22.54,18.52-49.39,26.8-77.45,31.5A207.65,207.65,0,0,1,144.2,410.45c-17-6.66-31.07-17.79-45.36-28.64a38.06,38.06,0,0,1-7.1-6.44C91.08,373.57,91.59,373,93.44,373.68Z" transform="translate(-5.82 -2.92)"/><path class="cls-5" d="M298.21,40.45c.32.71.63,1.41.94,2.12.62,1.76,3.57,2.92,1.39,5.4-20.74,2-40.76,7.06-60.29,14.2-4.14,1.52-8.23,3.14-12.35,4.71-1.19.46-2.49,1.21-2.63-1,15.48-11.52,32.56-20,50.51-26.91,5.13-2,10.39-3.61,15.59-5.39,3.14-1.39,2.93,2,4.33,3A16.5,16.5,0,0,0,298.21,40.45Z" transform="translate(-5.82 -2.92)"/><path class="cls-6" d="M137.29,35.33c.85-1.11,1.41-2.11,3.39-1.51A230.71,230.71,0,0,1,206,65.4a3.1,3.1,0,0,1,.55.64c-.26,2-1.45,1.3-2.54.86a293.49,293.49,0,0,0-45.2-14.64,184.87,184.87,0,0,0-25.12-4.17c-2.67-.5-3.61-1.73-1.91-4.25a19.93,19.93,0,0,0,1.34-2.65C134.91,39.51,135.1,36.71,137.29,35.33Z" transform="translate(-5.82 -2.92)"/><path class="cls-7" d="M109.48,32.58a7.14,7.14,0,0,1,.57-1.57c2.23-3.26,1.14-4.5-2.53-4.29a3.59,3.59,0,0,1-3.14-.84c3.32-.63,6.48.53,9.72.81a21.51,21.51,0,0,1-3.49,6A.68.68,0,0,1,109.48,32.58Z" transform="translate(-5.82 -2.92)"/><path class="cls-8" d="M134,41.32a19.43,19.43,0,0,1-1.59,3.31c-1.42,2-.4,2.81,1.33,3.46-1.86.51-3.17-.34-4.27-1.72a18.63,18.63,0,0,1,3.39-6.09A1.42,1.42,0,0,1,134,41.32Z" transform="translate(-5.82 -2.92)"/><path class="cls-9" d="M134,41.32l-1.14-1a21.39,21.39,0,0,1,3.5-5.86l1,.91A14.69,14.69,0,0,1,134,41.32Z" transform="translate(-5.82 -2.92)"/><path class="cls-10" d="M93.44,373.68a1.57,1.57,0,0,0-1.7,1.69c-2-1.18-3.9-2.53-4.25-5.12l0,0C90,370.49,91.65,372.17,93.44,373.68Z" transform="translate(-5.82 -2.92)"/><path class="cls-11" d="M225.27,65.86c.54,1.2,1.66.91,2.63,1a19.61,19.61,0,0,1-5.65,2.75c-1.15.45-1.3-.17-1.18-1.09A9.94,9.94,0,0,1,225.27,65.86Z" transform="translate(-5.82 -2.92)"/><path class="cls-12" d="M204,66.9c.9-.11,1.95.2,2.54-.86a9,9,0,0,1,4.25,2.62c.12.83-.16,1.24-1,1Z" transform="translate(-5.82 -2.92)"/><path class="cls-13" d="M295.44,37c-1.58-.89-1.52-3.72-4.07-3.46.58-.92,1.83-1.41,1.8-2.73L296.45,37C296.15,37.45,295.81,37.47,295.44,37Z" transform="translate(-5.82 -2.92)"/><path class="cls-14" d="M232.27,174.85c.38.82,1.19.83,1.91,1a17,17,0,0,1-5.29,2.45c-.43.41-.79.35-1.07-.18A9.89,9.89,0,0,1,232.27,174.85Z" transform="translate(-5.82 -2.92)"/><path class="cls-15" d="M300.54,48c1-2.17-1.57-3.43-1.39-5.39,2,.9,2.72,2.74,3.46,4.58Z" transform="translate(-5.82 -2.92)"/><path class="cls-16" d="M6.92,151.74c1.16,1.62,2.94.46,4.35,1l-5.45,1.47A2.36,2.36,0,0,1,6.92,151.74Z" transform="translate(-5.82 -2.92)"/><path class="cls-17" d="M222.77,44.54c-1,1.53-2.5,2-4.7,1.63L221,43.74C221.47,44.21,222.3,44,222.77,44.54Z" transform="translate(-5.82 -2.92)"/><path class="cls-18" d="M221.06,180a2.09,2.09,0,0,0,1,1.84c-.94,1.2-2.15,1.74-4.58,1.34Z" transform="translate(-5.82 -2.92)"/><path class="cls-19" d="M210.82,182.6c.75-.31.67-1,.75-1.62a4.13,4.13,0,0,1,2.66,3A3,3,0,0,1,210.82,182.6Z" transform="translate(-5.82 -2.92)"/><path class="cls-20" d="M209.77,69.67l1-1c.94.55,2.12.87,2.24,2.29C211.52,71.61,210.7,70.5,209.77,69.67Z" transform="translate(-5.82 -2.92)"/><path class="cls-21" d="M221.07,68.54l1.18,1.09-2.82,1.63c-.91.25-1.14-.17-1-1Z" transform="translate(-5.82 -2.92)"/><path class="cls-22" d="M420.66,152.69l4.68-.08c.56.58.79,1.53-.26,1.19C423.62,153.33,421.91,153.88,420.66,152.69Z" transform="translate(-5.82 -2.92)"/><path class="cls-23" d="M360.69,365.81l-1.66-.73c1-.69,1.86-2.59,3.24-1C362.87,364.73,361.82,365.71,360.69,365.81Z" transform="translate(-5.82 -2.92)"/><path class="cls-24" d="M222.77,44.54c-.73,0-1.53.19-1.81-.8l2.78-1.59,1.65.78Z" transform="translate(-5.82 -2.92)"/><path class="cls-25" d="M87.49,370.25c-1.58.05-2.51-.73-3.27-2.46,1.94.22,3.06.77,3.23,2.5Z" transform="translate(-5.82 -2.92)"/><path class="cls-26" d="M208.5,44c-.33-.93.18-1,.55-1.06A1.42,1.42,0,0,1,210.64,44c.16.39.26,1.28-.69.95A6.16,6.16,0,0,1,208.5,44Z" transform="translate(-5.82 -2.92)"/><path class="cls-27" d="M218.44,70.27l1,1c-.58.66-1.45,1.32-2.08.54C216.52,70.74,217.7,70.53,218.44,70.27Z" transform="translate(-5.82 -2.92)"/><path class="cls-28" d="M227.82,178.16l1.07.18c-1,1-2,1.92-3.61,1.56A3.88,3.88,0,0,1,227.82,178.16Z" transform="translate(-5.82 -2.92)"/><path class="cls-29" d="M290.67,234.16a39.79,39.79,0,0,1,27.27-11.29c9.38,0,17.81,3.53,24.9,9.27a38.35,38.35,0,0,0-63.11,23.56A40.94,40.94,0,0,1,290.67,234.16Z" transform="translate(-5.82 -2.92)"/><path class="cls-29" d="M279.38,261.43c0-.36,0-.73,0-1.1,0,.16,0,.31,0,.47a38.66,38.66,0,0,0,1.75,11.61A49,49,0,0,1,279.38,261.43Z" transform="translate(-5.82 -2.92)"/><path class="cls-29" d="M94.46,289.55c-.43-.39-.83-.8-1.23-1.21a38.09,38.09,0,0,0,19.26,11.32A42.4,42.4,0,0,1,94.46,289.55Z" transform="translate(-5.82 -2.92)"/><path class="cls-29" d="M83.17,262.28c-.43-9.6,4.6-20.57,11.29-27.26a39.8,39.8,0,0,1,19.21-10.37A38.47,38.47,0,0,0,88.48,282,43.93,43.93,0,0,1,83.17,262.28Z" transform="translate(-5.82 -2.92)"/><path class="cls-30" d="M101.94,47.9l-.81-1.57c1-1.83,1.67-3.86,3.27-5.32.63.06.72.64,1,1.05A15.29,15.29,0,0,1,101.94,47.9Z" transform="translate(-5.82 -2.92)"/><path class="cls-31" d="M105.67,38.75a9.16,9.16,0,0,1,2.24-3.67c.56.08.64.58.84,1a10.79,10.79,0,0,1-2.44,4.35C105.63,40,105.86,39.31,105.67,38.75Z" transform="translate(-5.82 -2.92)"/><path class="cls-32" d="M180.67,163l1.82-.84c1.27-.17,2,.63,2.76,1.48,0,1.47-.76,1.56-1.85,1Z" transform="translate(-5.82 -2.92)"/><path class="cls-33" d="M183.4,164.63c.75-.06,1.48-.17,1.85-1,1.59.18,2,1.12,1.64,2.56A4.66,4.66,0,0,1,183.4,164.63Z" transform="translate(-5.82 -2.92)"/><path class="cls-34" d="M108.75,36.05l-.83-1a4.06,4.06,0,0,1,1.56-2.5l1.13.09Z" transform="translate(-5.82 -2.92)"/><path class="cls-35" d="M105.67,38.75l.64,1.65-.91,1.66-1-1.05C104.82,40.25,105.25,39.5,105.67,38.75Z" transform="translate(-5.82 -2.92)"/><path class="cls-36" d="M295.44,37l1-.07a5.55,5.55,0,0,1,1.76,3.5C296.49,40,295.87,38.56,295.44,37Z" transform="translate(-5.82 -2.92)"/><path class="cls-30" d="M101.14,46.33c-4.46,1.9-9.13.55-13.69.89C91.92,45.45,96.59,46.76,101.14,46.33Z" transform="translate(-5.82 -2.92)"/></svg>