<svg id="Calque_1" data-name="Calque 1" xmlns="http://www.w3.org/2000/svg" viewBox="0 0 1465.23 250"><defs><style>.cls-1{fill:#6dd018;}.cls-2{fill:#fdde34;}.cls-3{fill:#db6030;}.cls-4{fill:#4aaec8;}.cls-5{fill:#1374d9;}.cls-6{fill:#e74746;}.cls-7{fill:#4aaec9;}.cls-8{fill:#87ba31;}.cls-9{fill:#dd8384;}.cls-10{fill:#e3f5d3;}</style></defs><title>_logo_</title><path class="cls-1" d="M137.69.11c9.65-.38,17.66,2.85,23.55,10.71a22,22,0,0,1,4.18,10c.21,1.36.68,1.85,2.1,2a35.9,35.9,0,0,1,31.37,39.92c-.1.84-.23,1.69-.39,2.52-.31,1.65.35,1.72,1.54,1.92A25,25,0,0,1,217.5,78.43a3.61,3.61,0,0,1,.95,2.72,3.11,3.11,0,0,1-2.06,2.47,2.7,2.7,0,0,1-3.14-1.33,22.73,22.73,0,0,0-3.74-4.56,18.81,18.81,0,0,0-14-5c-3.51.18-4.75-1.51-3.67-4.79A30,30,0,0,0,172.9,30a29.71,29.71,0,0,0-7-1.45c-6.11-.54-5.41-1.27-6.05-5.77-1.07-7.49-5.22-12.74-12.27-15.35S133.79,6.07,128,11a17.82,17.82,0,0,0-6.29,12.49c-.09,1.13-.12,2.27-.12,3.41V223.46c0,5.76,1.32,11,5.59,15.12,5.77,5.51,12.65,7.17,20.19,4.5,7.86-2.8,11.91-8.76,12.79-17,.36-3.34,1-4,4.39-4.12a30.38,30.38,0,0,0,29-29.32c.12-2.87.94-3.93,3.78-4a19,19,0,0,0,17.35-25,3.84,3.84,0,0,1,1.31-4.44c16.1-14.37,14.07-37.67-4.26-49-2.59-1.6-3-3.22-1.09-5.35a19.26,19.26,0,0,0,5-12.16c.13-3,1.77-4.26,4-3.4a2.84,2.84,0,0,1,1.85,3,23.74,23.74,0,0,1-3.81,12.7c-.75,1.14-.75,1.65.38,2.47,17.92,13.84,19.55,38.07,3.69,54.28a2.47,2.47,0,0,0-.89,2.54,24.63,24.63,0,0,1-19.35,29.55c-1.82.38-2.37,1-2.61,2.88a35.82,35.82,0,0,1-30.41,30.48c-1.93.28-2.75.83-3.15,2.9a24.73,24.73,0,0,1-19.78,19.36,25.05,25.05,0,0,1-25.58-11.17,7.2,7.2,0,0,1-1.18-4.05q0-109.21,0-218.44a7.1,7.1,0,0,1,1.2-4A26,26,0,0,1,134.86,1C135.64.22,136.82.68,137.69.11Z" transform="translate(0.01 0)"/><path class="cls-2" d="M112.61,125.2V234.3a7.75,7.75,0,0,1-1.31,4.48,25,25,0,0,1-25.71,10.75,24.68,24.68,0,0,1-19.42-19.7c-.33-2-1.35-2.15-2.81-2.4C48.75,224.88,39,216.57,34.09,202.56a41.52,41.52,0,0,1-1.77-10.51,2.8,2.8,0,0,1,2.58-3.35,3,3,0,0,1,3.29,3,31.34,31.34,0,0,0,2.7,12.36c5.24,10.94,13.88,17,26,17.8,3.54.25,4.32.88,4.64,4.41.82,9.72,8.36,17.38,17.55,17.88,10.07.54,18.39-5.7,20.42-15.45a23.7,23.7,0,0,0,.28-4.76c0-65.82-.08-131.65.1-197.48,0-11-8.24-20.2-18.75-20.16-2.09,0-3.55-1.35-3.46-2.85A3.5,3.5,0,0,1,91.37.14h.06c8.94,1,16.1,4.94,20.75,12.88a5.72,5.72,0,0,1,.46,3.11Z" transform="translate(0.01 0)"/><path class="cls-2" d="M33.07,72.86c-6,.27-12,3.75-15.22,11s-2.3,14.21,2.77,20.43c2.33,2.85,2.17,4.27-.94,6.17-17.93,10.93-19.89,35-4,48.75a3.88,3.88,0,0,1,1.38,4.43c-2.59,9.2.13,16.71,7.94,22.24,2.75,1.93,2.89,3.73.47,5.31a2.69,2.69,0,0,1-3.18-.2,24.52,24.52,0,0,1-11.87-18.26,20.63,20.63,0,0,1,.4-8.35A2.21,2.21,0,0,0,10,162,38.84,38.84,0,0,1,.3,146a9.08,9.08,0,0,1-.3-2.69V129.88c0-4.63,2.23-8.43,4.39-12.24a31.12,31.12,0,0,1,9.16-10c1.09-.78,1.27-1.25.54-2.47-9.34-15.66-.9-34.36,17.06-37.8,1.92-.36,2.12-1,1.78-2.82-3.62-19.77,11-39.39,31-41.67,1.51-.17,2-.66,2.24-2.13A24.5,24.5,0,0,1,77.27,4.26c2.19-1.42,3.78-1.19,4.86.72S82,8.11,80.49,9.1a19.22,19.22,0,0,0-9.07,16c-.1,2.17-1.24,3.11-3.23,3.38a57.11,57.11,0,0,0-7.41,1A30.22,30.22,0,0,0,38.21,57a28.06,28.06,0,0,0,1.27,9.89C41,71.72,40.11,72.88,33.07,72.86Z" transform="translate(0.01 0)"/><path class="cls-3" d="M127,102.8c-.83-8.86,3.2-15.8,9.47-21.78,3-2.88,5.93-5.88,8.87-8.85a22.37,22.37,0,0,0,5.06-6.59,8,8,0,0,1,11.46-3.21,8.39,8.39,0,0,1,3.06,11.48,7.43,7.43,0,0,1-.49.75c-2.94,4-8.24,4.84-12,1.65-1.33-1.14-1.94-1-3.07.17C146,80,142.47,83.44,139,86.89c-4.16,4.12-6,9-6.24,14.83-.37,7.85,2.19,14,8,19.15,3,2.65,5.77,5.62,8.55,8.51,1.07,1.11,1.73,1.65,3.23.3a7.69,7.69,0,0,1,9.68-.51,8.42,8.42,0,0,1,3.64,9.06,8.67,8.67,0,0,1-7.86,6.54,8.37,8.37,0,0,1-8-5.29,10,10,0,0,0-2.52-3.69q-6.53-6.49-13-13.07A24.64,24.64,0,0,1,127,102.8Z" transform="translate(0.01 0)"/><path class="cls-4" d="M82.41,115.44c-.53,11.31-8.65,20.63-20.31,23.2a2.69,2.69,0,0,0-2.47,2.54A25.55,25.55,0,0,1,35.74,161.6a3.54,3.54,0,0,1-3.71-3c-.13-1.65,1.46-3.08,3.67-3.2,7.95-.42,13.56-4.3,17-11.43l.19-.42c1.65-4.07,1.65-4.18-2.59-5.43a25.17,25.17,0,0,1-17.13-31.21,23.93,23.93,0,0,1,1.2-3.25,12.33,12.33,0,0,1,1-1.79c1.2-1.93,2.58-2.42,4.12-1.51,1.73,1,2.12,2.42,1.13,4.42-3.25,6.59-3.4,13.19.57,19.51a19.16,19.16,0,0,0,35.33-9.22c.19-3.3,2.33-4.89,4.58-3.5C82.52,112.53,82.54,114,82.41,115.44Z" transform="translate(0.01 0)"/><path class="cls-5" d="M132.83,166.51v5.23a17.35,17.35,0,0,0,5.08,12.76c3.88,4,7.93,7.94,11.85,11.95.87.89,1.39,1,2.4.1,3.22-2.72,6.67-3,9.88-.92a8.45,8.45,0,0,1,3.84,9.2,8.67,8.67,0,0,1-7.84,6.55c-3.62.18-6.85-2.08-8.29-5.89a6.49,6.49,0,0,0-1.65-2.42q-6.9-6.82-13.66-13.69c-4.94-5-7.65-11-7.51-18.18.09-4.12.07-8.19,0-12.29,0-1.95.88-3.14,2.7-3.29a2.82,2.82,0,0,1,3.11,2.93c.13,2.65,0,5.31,0,8Z" transform="translate(0.01 0)"/><path class="cls-3" d="M199.38,85.55a8.4,8.4,0,0,1-10.42,9,2.8,2.8,0,0,0-3.13,1c-5.5,5.55-11.09,11-16.55,16.58a15,15,0,0,1-12,5c-1.74-.1-3.49,0-5.23,0a3,3,0,0,1-.06-5.91c2-.11,4.12-.08,6.14,0a8.39,8.39,0,0,0,6.35-2.56c5.92-5.88,11.78-11.8,17.74-17.64.91-.89.68-1.65.44-2.62a7.82,7.82,0,0,1,2.93-8.54c2.69-2.1,5.69-2.76,8.89-1C196.9,80.5,198.06,83.08,199.38,85.55Z" transform="translate(0.01 0)"/><path class="cls-6" d="M58.21,55.58a25.18,25.18,0,0,1,23.9,22.16c.18,1.48.58,1.54,1.83,1.13a20.16,20.16,0,0,1,6.25-1,3.18,3.18,0,0,1,3.43,2.91c0,1.62-1.34,2.88-3.3,3-11.16.87-18.12,7.81-18.9,19-.14,2-1.38,3.3-3,3.3s-3-1.46-2.92-3.62c.32-7.51,3.24-13.85,9.12-18.56a4.44,4.44,0,0,0,1.89-4.69c-.82-6.35-3.7-11.3-9.14-14.71a16.75,16.75,0,0,0-8.15-2.56,10.56,10.56,0,0,1-1.58-.15c-2.36-.37-3.52-1.65-3.29-3.53S56,55.49,58.21,55.58Z" transform="translate(0.01 0)"/><path class="cls-5" d="M191.76,166.91c-3.81.09-6.24-1.26-7.81-3.79a3.26,3.26,0,0,0-3.29-1.65c-8.95.05-17.91,0-26.86,0a12.91,12.91,0,0,1-2.48-.21,2.88,2.88,0,0,1-.2-5.54,10.16,10.16,0,0,1,2.69-.27c8.88,0,17.76,0,26.63,0a3.92,3.92,0,0,0,3.83-2,8.18,8.18,0,0,1,10.06-2.78,8.66,8.66,0,0,1,5.1,9.26C198.62,164,195.14,166.89,191.76,166.91Z" transform="translate(0.01 0)"/><path class="cls-4" d="M93.58,165.8c-.14,9.66-4.12,17.25-12.36,22.41a2.8,2.8,0,0,1-4.19-.77c-1.1-1.6-.55-3.11,1-4.12a20.68,20.68,0,0,0,7-7c5.11-9.06,2.52-19.87-6.17-25.88-1.3-.9-2.55-1.81-2.09-3.64.56-2.24,2.68-3,4.86-1.59A25,25,0,0,1,93.41,164C93.51,164.59,93.53,165.19,93.58,165.8Z" transform="translate(0.01 0)"/><path class="cls-3" d="M133.88,44.62c.92,0,1.83-.07,2.73,0a2.54,2.54,0,0,0,2.72-1.47,8.29,8.29,0,0,1,9.61-3.74,8.78,8.78,0,0,1,6.17,7.91,8.8,8.8,0,0,1-6,8.29,8.08,8.08,0,0,1-9.53-3.35,3.63,3.63,0,0,0-3.86-1.94c-1.89.12-3.79,0-5.68.06s-3-.76-3.09-2.59a2.81,2.81,0,0,1,2.82-3.16c1.35-.13,2.73,0,4.12,0Z" transform="translate(0.01 0)"/><path class="cls-7" d="M82.46,213.27a3.13,3.13,0,0,1-1.57,3.3c-2.11,1.13-4.24-.32-4.38-3.1a19.2,19.2,0,0,0-4.67-12,17.63,17.63,0,0,0-13-6.43,11,11,0,0,1-1.81-.21c-1.75-.4-2.9-1.4-2.63-3.35a3,3,0,0,1,3.4-2.66,25.27,25.27,0,0,1,24.69,24.49Z" transform="translate(0.01 0)"/><path class="cls-6" d="M88.51,50.46C80.46,49.74,73.62,45.57,68.85,38a2.7,2.7,0,0,1,.5-3.78,2.3,2.3,0,0,1,.33-.21,2.6,2.6,0,0,1,4,.56c1.64,2.26,3.24,4.56,5.6,6.2a19.75,19.75,0,0,0,10.33,3.72c2.61.15,4.12,1.2,4.12,3S92,50.54,88.51,50.46Z" transform="translate(0.01 0)"/><path class="cls-8" d="M199.38,85.55l-4.88-6.76C197.55,80,199,82.42,199.38,85.55Z" transform="translate(0.01 0)"/><path class="cls-9" d="M1464.15,169.13a24.55,24.55,0,0,1,.94-9.49A23.82,23.82,0,0,1,1464.15,169.13Z" transform="translate(0.01 0)"/><path class="cls-10" d="M137.69.11c-.72,1-1.82.82-2.83.9C135.44-.37,136.62,0,137.69.11Z" transform="translate(0.01 0)"/></svg>