<svg xmlns="http://www.w3.org/2000/svg" xmlns:xlink="http://www.w3.org/1999/xlink" viewBox="0 0 403.31 302.6"><defs><style>.cls-1{fill:none;}.cls-2{isolation:isolate;}.cls-3{fill:#ccc3bc;}.cls-4{fill:#f2e2e5;}.cls-5{fill:#e0d3d5;}.cls-6{fill:#ccbec1;}.cls-7{fill:#0a6c8e;}.cls-41,.cls-8{fill:#eee6de;}.cls-15,.cls-9{fill:#efd5bf;}.cls-10{opacity:0.58;}.cls-11{fill:#e8d3c1;}.cls-11,.cls-15,.cls-41,.cls-42{mix-blend-mode:multiply;}.cls-12{fill:#9e6718;}.cls-13{fill:#ffd773;}.cls-14{fill:#87510a;}.cls-16,.cls-34{fill:#fff;}.cls-16{opacity:0.46;}.cls-16,.cls-21,.cls-34,.cls-46,.cls-47,.cls-48{mix-blend-mode:overlay;}.cls-17{fill:#ee6d4a;}.cls-18{fill:#007f7c;}.cls-19{fill:#00aaac;}.cls-20{fill:#4cede5;}.cls-21{fill:#00c1bc;}.cls-22{fill:#167ba8;}.cls-23{fill:#3989b4;}.cls-24{fill:#0a759b;}.cls-25{fill:#3c9cc6;}.cls-26{fill:#b6e2ff;}.cls-27{fill:#003e60;}.cls-28{fill:#e0512f;}.cls-29{fill:#f48369;}.cls-30{fill:#f9a0a0;}.cls-31{fill:#cc3a1d;}.cls-32{fill:#ffbc00;}.cls-33{fill:#f7a500;}.cls-34{opacity:0.37;}.cls-35{fill:#cc8200;}.cls-36{fill:#6d3e06;}.cls-37{fill:#eadbce;}.cls-38{fill:#e5d1c3;}.cls-39{fill:#d6b8a1;}.cls-40{fill:#dbc2ad;}.cls-43{fill:#c4c4c3;}.cls-44{fill:url(#radial-gradient);}.cls-45{clip-path:url(#clip-path);}.cls-46,.cls-47{opacity:0.5;}.cls-46{fill:url(#radial-gradient-2);}.cls-47{fill:url(#radial-gradient-3);}.cls-48{fill:#e9f8ff;opacity:0.4;}</style><radialGradient id="radial-gradient" cx="294.76" cy="234.06" r="0.12" gradientUnits="userSpaceOnUse"><stop offset="0" stop-color="#fff"/><stop offset="0.21" stop-color="#e9e9f3"/><stop offset="1" stop-color="#9997c6"/></radialGradient><clipPath id="clip-path" transform="translate(-5.16 -8.12)"><path class="cls-1" d="M331.9,172.26a53.26,53.26,0,1,1-74.41-11.62A53.26,53.26,0,0,1,331.9,172.26Z"/></clipPath><radialGradient id="radial-gradient-2" cx="143.92" cy="167.92" r="45.83" gradientTransform="matrix(0.81, -0.59, 0.59, 0.81, -39.39, 139.41)" gradientUnits="userSpaceOnUse"><stop offset="0" stop-color="#fff"/><stop offset="0.14" stop-color="#fefefe" stop-opacity="0.99"/><stop offset="0.26" stop-color="#fcfcfb" stop-opacity="0.94"/><stop offset="0.39" stop-color="#f7f7f7" stop-opacity="0.87"/><stop offset="0.51" stop-color="#f1f1f1" stop-opacity="0.76"/><stop offset="0.63" stop-color="#e9e9e9" stop-opacity="0.63"/><stop offset="0.75" stop-color="#dfdfdf" stop-opacity="0.46"/><stop offset="0.86" stop-color="#d4d4d3" stop-opacity="0.27"/><stop offset="0.98" stop-color="#c7c7c6" stop-opacity="0.04"/><stop offset="1" stop-color="#c4c4c3" stop-opacity="0"/></radialGradient><radialGradient id="radial-gradient-3" cx="146.44" cy="173.75" r="33.17" gradientTransform="matrix(0.81, -0.59, 0.59, 0.81, -39.39, 139.41)" gradientUnits="userSpaceOnUse"><stop offset="0" stop-color="#fff"/><stop offset="0.24" stop-color="#f2f2f1" stop-opacity="0.77"/><stop offset="0.8" stop-color="#d0d0cf" stop-opacity="0.2"/><stop offset="1" stop-color="#c4c4c3" stop-opacity="0"/></radialGradient></defs><title>12643000_5044479</title><g class="cls-2"><g id="OBJECTS"><path class="cls-3" d="M320,77.34l-.7-.8c1.77-1.54,2.87-2.36,2.92-2.39l.63.85S321.75,75.83,320,77.34Z" transform="translate(-5.16 -8.12)"/><path class="cls-3" d="M305.7,234.64l0-1.06c2.52-.09,5-.19,7.37-.32l.05,1.07C310.68,234.45,308.22,234.56,305.7,234.64Zm11.6-.56-.07-1.06c2.47-.16,4.95-.34,7.35-.54l.09,1.06C322.26,233.74,319.78,233.93,317.3,234.08Zm11.57-.93-.1-1.06c2.49-.24,5-.52,7.32-.82l.13,1.06C333.84,232.63,331.37,232.91,328.87,233.15Zm11.54-1.38-.15-1.06c2.49-.35,4.93-.75,7.26-1.16l.19,1C345.37,231,342.91,231.41,340.41,231.77Zm11.45-2-.21-1c2.46-.48,4.87-1,7.18-1.58l.25,1C356.76,228.79,354.33,229.33,351.86,229.82Zm11.32-2.66-.29-1c2.44-.67,4.8-1.39,7-2.15l.35,1C368,225.75,365.63,226.48,363.18,227.16Zm11.06-3.61-.38-1c2.36-.91,4.62-1.88,6.73-2.9l.46,1C378.92,221.65,376.62,222.64,374.24,223.55Zm10.58-4.87-.52-.93a62.25,62.25,0,0,0,6.18-3.9l.62.87A64.27,64.27,0,0,1,384.82,218.68Zm9.63-6.59-.69-.81a43.63,43.63,0,0,0,5.12-5.15l.82.68A43.58,43.58,0,0,1,394.45,212.09Zm7.8-8.7-.89-.59a35.71,35.71,0,0,0,3.36-6.42l1,.39A36.93,36.93,0,0,1,402.25,203.39Zm4.81-10.67-1-.28a40.09,40.09,0,0,0,1.22-7.16l1.07.08A41.28,41.28,0,0,1,407.06,192.72Zm.34-11.61c0-.93,0-1.89-.1-2.86-.09-1.5-.25-3-.47-4.41l1.05-.17c.23,1.46.39,3,.49,4.52.06,1,.09,2,.1,2.91ZM406,169.76a37.38,37.38,0,0,0-2.47-6.83l1-.46a38.75,38.75,0,0,1,2.55,7Zm-4.49-10.45a32.53,32.53,0,0,0-4.59-5.6l.74-.76a33,33,0,0,1,4.74,5.79ZM393.76,151a36.2,36.2,0,0,0-6.21-3.75l.45-1a37.37,37.37,0,0,1,6.4,3.86Zm-10.06-5.35a50.5,50.5,0,0,0-7-1.94l.21-1a50,50,0,0,1,7.18,2Zm-51.21-.41c-.63,0-1.26,0-1.88,0l0-1.07A70,70,0,0,0,338,144L338,145C336.15,145.19,334.29,145.26,332.49,145.26Zm-6.12-.29a52.16,52.16,0,0,1-7.35-1.23l.25-1a51.47,51.47,0,0,0,7.2,1.21Zm15.89-.35-.13-1.06c1.24-.16,2.51-.34,3.79-.56s2.35-.38,3.5-.54l.15,1.06c-1.14.16-2.3.33-3.47.53S343.51,144.46,342.26,144.62Zm30.29-1.56a70.52,70.52,0,0,0-7.3-.54l0-1.06a72.91,72.91,0,0,1,7.41.54ZM353.74,143l-.11-1.06c2.52-.26,5-.42,7.4-.49l0,1.07C358.7,142.59,356.23,142.75,353.74,143Zm-38.81-.49a35.1,35.1,0,0,1-6.76-3.19l.55-.91a35.43,35.43,0,0,0,6.56,3.1Zm-10.25-5.68a26.2,26.2,0,0,1-5-5.58l.89-.59a25.05,25.05,0,0,0,4.82,5.35Zm-7.06-9.37a24.07,24.07,0,0,1-1.81-7.3l1.07-.09a22.85,22.85,0,0,0,1.72,7ZM296.86,116l-1.07-.08a30.09,30.09,0,0,1,1.1-6c.13-.44.26-.88.4-1.31l1,.32c-.13.42-.26.85-.38,1.28A28.83,28.83,0,0,0,296.86,116Zm2.85-11-1-.4a64.16,64.16,0,0,1,3.21-6.72l.93.52A61.86,61.86,0,0,0,299.71,104.93ZM305,94.73l-.9-.57c1.3-2,2.74-4.09,4.29-6.07l.84.66C307.7,90.7,306.28,92.72,305,94.73Zm6.9-9.22-.81-.7c1.62-1.86,3.34-3.67,5.11-5.39l.74.76C315.19,81.88,313.5,83.67,311.9,85.51Z" transform="translate(-5.16 -8.12)"/><path class="cls-3" d="M297.47,234.85v-1.07l3.72-.07,0,1.06Z" transform="translate(-5.16 -8.12)"/><polygon class="cls-4" points="317.39 54.95 297.11 41.67 384.59 24.54 317.39 54.95"/><polygon class="cls-5" points="317.39 54.95 323.3 68.25 384.59 24.54 317.39 54.95"/><polygon class="cls-6" points="326.08 61.18 323.3 68.25 336.41 59.55 326.08 61.18"/><polygon class="cls-4" points="326.08 61.18 342.79 89.26 384.59 24.54 326.08 61.18"/><polygon class="cls-7" points="283.38 238.74 273.98 237.66 270.85 241.44 283.38 238.74"/><path class="cls-8" d="M251.82,24.24l-.07,45.3s-53.28,4.09-64.84.43S180.78,51,180.79,43.73s.19-25.07,2.05-29.25,10.65-2,21.45-.66S251.82,24.24,251.82,24.24Z" transform="translate(-5.16 -8.12)"/><path class="cls-9" d="M180.79,43.73c0-7.29.19-25.07,2.05-29.25s10.65-2,21.45-.66,47.53,10.42,47.53,10.42l0,7.59c-9.88-2.4-35.54-7.33-44.12-8.4-10.81-1.35-18.42-2.77-20.28,1.41S184.91,45,184.9,52.33c0,4-1.65,10.45-1.2,16C176.5,63,180.78,50.23,180.79,43.73Z" transform="translate(-5.16 -8.12)"/><g class="cls-10"><path class="cls-11" d="M181.11,15.11l70.18,12.81S195,15.52,181.11,15.11Z" transform="translate(-5.16 -8.12)"/><path class="cls-11" d="M179.25,41.1l70.81,5.52S193,40.18,179.25,41.1Z" transform="translate(-5.16 -8.12)"/><path class="cls-11" d="M179.25,38.21,250,45.55S193.06,37.54,179.25,38.21Z" transform="translate(-5.16 -8.12)"/><path class="cls-11" d="M179.25,36.46,250,43.8S193.06,35.79,179.25,36.46Z" transform="translate(-5.16 -8.12)"/><path class="cls-11" d="M179.28,34.16l70.72,8S193.1,33.63,179.28,34.16Z" transform="translate(-5.16 -8.12)"/><path class="cls-11" d="M179.35,31.1l70.59,9.51S193.19,30.86,179.35,31.1Z" transform="translate(-5.16 -8.12)"/><path class="cls-11" d="M179.35,28.9l70.59,9.5S193.19,28.66,179.35,28.9Z" transform="translate(-5.16 -8.12)"/><path class="cls-11" d="M179.39,26.2l70.52,10.19S193.24,26.09,179.39,26.2Z" transform="translate(-5.16 -8.12)"/><path class="cls-11" d="M179.39,23.68l70.52,10.19S193.24,23.57,179.39,23.68Z" transform="translate(-5.16 -8.12)"/><path class="cls-11" d="M179.44,21.11l70.43,10.94S193.3,21.15,179.44,21.11Z" transform="translate(-5.16 -8.12)"/><path class="cls-11" d="M179.14,18.24l70.43,10.94S193,18.28,179.14,18.24Z" transform="translate(-5.16 -8.12)"/><path class="cls-11" d="M181.27,65.1l68.3-.08S195,67.07,181.27,65.1Z" transform="translate(-5.16 -8.12)"/><path class="cls-11" d="M179.52,43.28,249.77,48S193.37,45.81,179.52,43.28Z" transform="translate(-5.16 -8.12)"/><path class="cls-11" d="M179.54,45.61l70.2,4S193.25,48.51,179.54,45.61Z" transform="translate(-5.16 -8.12)"/><path class="cls-11" d="M179.6,48.7l70.08,2.51S193.33,51.32,179.6,48.7Z" transform="translate(-5.16 -8.12)"/><path class="cls-11" d="M179.59,50.91l70.08,2.53S193.32,53.53,179.59,50.91Z" transform="translate(-5.16 -8.12)"/><path class="cls-11" d="M179.62,53.64l70,1.82S193.36,56.12,179.62,53.64Z" transform="translate(-5.16 -8.12)"/><path class="cls-11" d="M179.61,56.18l70,1.82S193.35,58.66,179.61,56.18Z" transform="translate(-5.16 -8.12)"/><path class="cls-11" d="M179.64,58.78l69.93,1S193.39,61.11,179.64,58.78Z" transform="translate(-5.16 -8.12)"/><path class="cls-11" d="M179.33,61.62l69.93,1S193.08,64,179.33,61.62Z" transform="translate(-5.16 -8.12)"/><path class="cls-11" d="M180.71,67.22,251,68S194.49,69.25,180.71,67.22Z" transform="translate(-5.16 -8.12)"/></g><path class="cls-12" d="M188.08,8.19S71.93,20.7,62.46,23.52s-7.33,30.94-5.71,39.66,8,11.27,14.8,11.54S198.1,74.5,198.1,74.5s-16.14-3-17.85-15.23,1.09-36.67,1.64-40.81S188.08,8.19,188.08,8.19Z" transform="translate(-5.16 -8.12)"/><path class="cls-13" d="M136.83,61.5c-1.59-12,1-35.77,1.53-39.81.35-2.77,2.93-6.46,4.51-8.5h0l-8.31,1c-1.59,2.09-3.88,5.49-4.2,8.1-.51,4-3.13,27.84-1.54,39.81.93,7,4.12,10.72,6.63,12.62l8.81,0C141.69,73,137.86,69.27,136.83,61.5Z" transform="translate(-5.16 -8.12)"/><path class="cls-13" d="M122.91,61.91c-1.59-11.67,1-34.85,1.53-38.79.35-2.7,2.91-6.27,4.49-8.26l-8.37,1c-1.58,2-3.81,5.3-4.14,7.81-.51,3.94-3.12,27.12-1.53,38.79.93,6.77,4.09,10.41,6.58,12.27l8.81,0C127.72,73.08,123.94,69.42,122.91,61.91Z" transform="translate(-5.16 -8.12)"/><path class="cls-14" d="M177.23,40.73c.09-1.85.18-3.64.24-5.31,0-1.11.07-2.24.1-3.37.22-8.76.46-17.83,5.59-21.9,2.32-1.83,5.32-2.43,8.91-1.78,10.35,1.88,54,11.2,63.45,13.21v6.18c-6.15-1.32-53.74-11.48-64.32-13.41-2.4-.43-3.46.14-4.05.61-3,2.38-3.22,10.41-3.4,17.49,0,1.15-.06,2.29-.1,3.42-.06,1.7-.22,4.67-.24,5.4-.05,1.56-.86,23.51,2.84,25.95,4.11,2,38.25,3.75,69.22,2.23v6.11c-12,.58-39.78-.36-57.35-1.06-7.22-.29-12.72-.9-14.7-2C175.85,68.34,176.55,54.3,177.23,40.73Z" transform="translate(-5.16 -8.12)"/><path class="cls-15" d="M187.06,49S188.14,64,188,73.7c5.77.62,12,.87,12,.87S197.42,49.67,187.06,49Z" transform="translate(-5.16 -8.12)"/><path class="cls-16" d="M64.11,25.17S142.68,16,155.55,14.79s17.23-2.36,19-1.14,1,12.6,0,14.27S165.65,29.5,157,29.73,64,33.8,61.5,33.87s-2-3.85-1.12-5.44S62.33,25.37,64.11,25.17Z" transform="translate(-5.16 -8.12)"/><path class="cls-17" d="M255.52,120.36s5.88,15.79,5.69,28.8a76.94,76.94,0,0,0,4.31-7.16l7,6.27s-4.32-29-9.88-37.82S255.52,120.36,255.52,120.36Z" transform="translate(-5.16 -8.12)"/><path class="cls-18" d="M45,120.84l21.13,13.6h177l19.57-13.6s-85.44-2.91-113.44-5S45,120.84,45,120.84Z" transform="translate(-5.16 -8.12)"/><path class="cls-19" d="M45,73.61s209.28.88,216.92,1.76c4.7,1.47,4.41,13.52,4.7,23.81s.59,20.11-4,21.66S48.42,121,45,120.84s-5.78-6.77-6.17-17.54S37.26,73.58,45,73.61Z" transform="translate(-5.16 -8.12)"/><path class="cls-20" d="M67,73.71l-7.6,0A10.34,10.34,0,0,0,57.63,80v29.93c0,3.91,1.9,8.48,3.35,11.07l9.31.07a20.14,20.14,0,0,1-5.14-10.47c-.9-7.14-.76-25.21-.39-29.48C65.05,77.77,66,75,67,73.71Z" transform="translate(-5.16 -8.12)"/><path class="cls-20" d="M80.27,73.77l-7.59,0A10.35,10.35,0,0,0,71,80v29.93c0,4,1.94,8.59,3.4,11.16l9.33.06a20.17,20.17,0,0,1-5.22-10.55c-.9-7.14-.76-25.21-.39-29.48C78.42,77.82,79.29,75.07,80.27,73.77Z" transform="translate(-5.16 -8.12)"/><path class="cls-20" d="M236.85,121.46l9.24-.08c1.43-2.63,3.2-7,3.2-10.8V80.65A11,11,0,0,0,248,75l-7.67-.11a17.36,17.36,0,0,1,1.84,6.88c.37,4.26.51,22.33-.39,29.47A19.89,19.89,0,0,1,236.85,121.46Z" transform="translate(-5.16 -8.12)"/><path class="cls-20" d="M223.42,121.53l9.24,0c1.44-2.62,3.26-7.07,3.26-10.91V80.65a10.9,10.9,0,0,0-1.39-5.82l-7.68-.08a16.63,16.63,0,0,1,2,7c.37,4.26.51,22.33-.4,29.47A19.84,19.84,0,0,1,223.42,121.53Z" transform="translate(-5.16 -8.12)"/><path class="cls-21" d="M45,76.84H257c4.9,0,6.56,2.2,7,6.11s-1.18,4.58-11,4.46-201.53,0-208,0S40.14,76.84,45,76.84Z" transform="translate(-5.16 -8.12)"/><path class="cls-22" d="M161.12,285.34S24.47,258.18,14.29,255.08s-13.29-33.22-1.78-37,141.76-11.74,141.76-11.74l151.61,8.7Z" transform="translate(-5.16 -8.12)"/><path class="cls-23" d="M14.29,255.08c10.18,3.1,146.83,30.26,146.83,30.26l78.06-39.78L8.24,221.47C2.11,230.43,5.65,252.45,14.29,255.08Z" transform="translate(-5.16 -8.12)"/><path class="cls-8" d="M302.23,218.68C274.1,221,173.72,229.75,160,237.36c-15.95,8.86-10.63,43.86,2.66,44.74,10.76.72,104.36-19.2,139.54-26.79Z" transform="translate(-5.16 -8.12)"/><path class="cls-9" d="M167.4,248.32c12.68-7,99.69-15.06,134.83-18.06V218.68C274.1,221,173.72,229.75,160,237.36c-14.48,8-11.43,37.63-.8,43.67C155.76,269.77,157.38,253.89,167.4,248.32Z" transform="translate(-5.16 -8.12)"/><path class="cls-24" d="M305.88,251.12c-42.83,9.29-130.18,27.69-142.41,27.68h-.56c-3.53-.24-6.95-5.11-8.53-12.14-2.21-9.88-.43-22.11,7.26-26.38,12.14-6.75,104.7-15.39,144.24-18.56v-6.66C282,217,173.61,226,158.41,234.46c-11,6.12-13.18,21.73-10.51,33.64,2.29,10.24,7.1,16.83,13.79,17.28.21,0,1.23.06,1.5.06,14.5,0,109.25-20.27,142.69-27.52Z" transform="translate(-5.16 -8.12)"/><path class="cls-11" d="M162.69,242.91l137.77-18.83S189,236.26,162.69,242.91Z" transform="translate(-5.16 -8.12)"/><path class="cls-11" d="M161,246.75,298.8,227.92S187.39,240.1,161,246.75Z" transform="translate(-5.16 -8.12)"/><path class="cls-11" d="M157.49,251.07l140.2-19.69S183.85,244.42,157.49,251.07Z" transform="translate(-5.16 -8.12)"/><path class="cls-11" d="M157.33,255.41l140.14-21.09S183.68,248.77,157.33,255.41Z" transform="translate(-5.16 -8.12)"/><path class="cls-11" d="M157.33,259.32l140.14-22S183.68,252.67,157.33,259.32Z" transform="translate(-5.16 -8.12)"/><path class="cls-11" d="M157.33,263l140.14-23.12S183.68,256.33,157.33,263Z" transform="translate(-5.16 -8.12)"/><path class="cls-11" d="M158.4,265.58l139.29-22.9S184.75,258.93,158.4,265.58Z" transform="translate(-5.16 -8.12)"/><path class="cls-11" d="M158.4,268.73l139.07-23.17S184.75,262.09,158.4,268.73Z" transform="translate(-5.16 -8.12)"/><path class="cls-11" d="M160.38,272.39,298,247.49S186.73,265.74,160.38,272.39Z" transform="translate(-5.16 -8.12)"/><path class="cls-11" d="M162.69,275.61,298.8,249.9S189,269,162.69,275.61Z" transform="translate(-5.16 -8.12)"/><path class="cls-25" d="M10,223.41s92.53,13.62,111.8,16.44,23.92,2,23.26,10.05-3.32,8-30.73,4.23S15.17,236.36,10,235.53,7.16,223,10,223.41Z" transform="translate(-5.16 -8.12)"/><path class="cls-26" d="M97.12,269.66a3.23,3.23,0,0,1-.53,0c-24.74-4-54.52-10.29-63.06-12.12a4.36,4.36,0,0,1-3.33-3.24c-1.17-4.88-3.26-17.08,2.56-25a4,4,0,0,1,3.68-1.52l62.74,7.68a3.41,3.41,0,0,1,2.37,1.44,3.32,3.32,0,0,1,.5,2.7,82.3,82.3,0,0,0-1.67,26.47,3.33,3.33,0,0,1-1,2.73A3.23,3.23,0,0,1,97.12,269.66ZM35.93,228.53a3.13,3.13,0,0,0-2.53,1.23c-5.63,7.62-3.58,19.54-2.44,24.32a3.6,3.6,0,0,0,2.73,2.65c8.54,1.83,38.3,8.1,63,12.11a2.43,2.43,0,0,0,2.08-.63,2.49,2.49,0,0,0,.79-2.08,82.82,82.82,0,0,1,1.7-26.73,2.55,2.55,0,0,0-.39-2.06,2.58,2.58,0,0,0-1.82-1.1l-62.73-7.69A3,3,0,0,0,35.93,228.53Z" transform="translate(-5.16 -8.12)"/><ellipse class="cls-27" cx="116.5" cy="250.41" rx="7.31" ry="10.2"/><path class="cls-24" d="M116.17,258.86c0-5.63,3.27-10.2,7.31-10.2a5.43,5.43,0,0,0-1.83-.33c-4,0-7.3,4.56-7.3,10.2s3.27,10.2,7.3,10.2h0C118.51,267.6,116.17,263.61,116.17,258.86Z" transform="translate(-5.16 -8.12)"/><ellipse class="cls-27" cx="16.71" cy="231.88" rx="5.59" ry="7.81"/><path class="cls-24" d="M17.68,240.26c0-4.31,2.5-7.81,5.59-7.81a4.18,4.18,0,0,0-1.4-.26c-3.09,0-5.59,3.5-5.59,7.81s2.5,7.81,5.59,7.81h0C19.46,246.94,17.68,243.89,17.68,240.26Z" transform="translate(-5.16 -8.12)"/><path class="cls-15" d="M164.05,257.87s1.19,16.89,1.07,27.47c3.08-.24,12.57-1.63,12.57-1.63S175.19,258.17,164.05,257.87Z" transform="translate(-5.16 -8.12)"/><path class="cls-17" d="M164.05,257.81s11.36,7.21,12,41.22c5.32-5.52,9-9,9-9l9.6,5.62s-6.32-36-13.76-41.05C170,255.78,164.05,257.81,164.05,257.81Z" transform="translate(-5.16 -8.12)"/><path class="cls-28" d="M144.62,231.39s119.31-14.46,128.11-17.65,11.47-29.35,1.53-32-122.37-8.53-122.37-8.53L21,177.68Z" transform="translate(-5.16 -8.12)"/><path class="cls-17" d="M272.73,213.74c-8.8,3.19-128.11,17.65-128.11,17.65l-58-34.21,58.3-11.38L278,184.43C283.23,191.85,280.18,211,272.73,213.74Z" transform="translate(-5.16 -8.12)"/><path class="cls-8" d="M24.17,180.63c24.27.59,110.93,3.07,122.75,9,13.76,6.84,9.17,37.32-2.3,38.76C135.33,229.5,54.53,217,24.17,212.25Z" transform="translate(-5.16 -8.12)"/><path class="cls-9" d="M140.55,199.42c-10.94-5.45-86.05-8-116.38-8.79v-10c24.27.59,110.93,3.07,122.75,9,12.5,6.21,9.86,31.9.69,37.66C150.6,217.34,149.2,203.72,140.55,199.42Z" transform="translate(-5.16 -8.12)"/><path class="cls-29" d="M21,208.82c37,5.86,112.37,17.33,122.93,16.71l.49,0c3-.39,6-4.77,7.36-10.91,1.91-8.64.37-19.11-6.27-22.41C135,187,55.15,184.17,21,183.43v-5.75c20.63.44,114.19,2.79,127.3,9.31,9.52,4.73,11.38,18.1,9.08,28.51-2,8.95-6.8,15-12.58,15.69l-.62.05c-12.52.73-94.31-12-123.18-16.55Z" transform="translate(-5.16 -8.12)"/><g class="cls-10"><path class="cls-11" d="M144.62,194.5,25.7,185.2S121.87,190.1,144.62,194.5Z" transform="translate(-5.16 -8.12)"/><path class="cls-11" d="M146.05,197.73l-118.92-9.3S123.3,193.33,146.05,197.73Z" transform="translate(-5.16 -8.12)"/><path class="cls-11" d="M149.11,201.28l-121-9.92S126.36,196.88,149.11,201.28Z" transform="translate(-5.16 -8.12)"/><path class="cls-11" d="M149.25,205l-121-11.15S126.5,200.62,149.25,205Z" transform="translate(-5.16 -8.12)"/><path class="cls-11" d="M149.25,208.4l-121-11.91S126.5,204,149.25,208.4Z" transform="translate(-5.16 -8.12)"/><path class="cls-11" d="M149.25,211.55l-121-12.89S126.5,207.15,149.25,211.55Z" transform="translate(-5.16 -8.12)"/><path class="cls-11" d="M148.33,213.85,28.09,201.11S125.57,209.45,148.33,213.85Z" transform="translate(-5.16 -8.12)"/><path class="cls-11" d="M148.33,216.58l-120-13S125.57,212.17,148.33,216.58Z" transform="translate(-5.16 -8.12)"/><path class="cls-11" d="M146.62,219.83,27.8,205.29S123.86,215.43,146.62,219.83Z" transform="translate(-5.16 -8.12)"/><path class="cls-11" d="M144.62,222.73,27.13,207.41S121.87,218.32,144.62,222.73Z" transform="translate(-5.16 -8.12)"/></g><path class="cls-29" d="M276.54,187.16S201.63,193,182,194.94c-16.89,1.69-21.67.52-21.1,7.45s10.24,5.46,34.22,2.9c26.63-2.85,76.83-7.66,81.28-8.63S279,186.65,276.54,187.16Z" transform="translate(-5.16 -8.12)"/><path class="cls-30" d="M264.88,215.36a.43.43,0,0,1-.38-.31.36.36,0,0,1,.27-.47c1.28-.28,5.39-2.92,6-5.77a134.94,134.94,0,0,0,1.91-15.36,7.94,7.94,0,0,0-3.45-7.61.41.41,0,0,1-.18-.54.37.37,0,0,1,.53-.14,8.9,8.9,0,0,1,3.88,8.39A135.2,135.2,0,0,1,271.57,209c-.7,3.09-5,6-6.59,6.31Z" transform="translate(-5.16 -8.12)"/><path class="cls-30" d="M259.74,215.9a.44.44,0,0,1-.38-.31.36.36,0,0,1,.27-.47c1.28-.28,5.39-2.92,6-5.77A132.68,132.68,0,0,0,267.57,194c.38-5.37-3.29-7.52-3.45-7.61a.43.43,0,0,1-.18-.54.37.37,0,0,1,.53-.14,8.86,8.86,0,0,1,3.88,8.39,133,133,0,0,1-1.92,15.49c-.69,3.09-5,6-6.58,6.31Z" transform="translate(-5.16 -8.12)"/><path class="cls-31" d="M177.47,202.44c.47,9.6-.92,16.56-4.92,25.51l10.07-1.27a65,65,0,0,0,4.14-22.75,22.21,22.21,0,0,0-3.61-13.18l-9.35.62A22.47,22.47,0,0,1,177.47,202.44Z" transform="translate(-5.16 -8.12)"/><path class="cls-31" d="M192.18,201.48A50.32,50.32,0,0,1,187.65,226l10-1.28A67.14,67.14,0,0,0,201.48,203c.06-6.18-1.71-10.41-3.63-13.2l-9.35.62A22.38,22.38,0,0,1,192.18,201.48Z" transform="translate(-5.16 -8.12)"/><path class="cls-15" d="M139.91,203.59s-1.1,17.66-1,27.52c-2.87-.22-12-1.09-12-1.09S129.52,203.87,139.91,203.59Z" transform="translate(-5.16 -8.12)"/><path class="cls-32" d="M139.91,203.59s-10.6,7.93-11.21,39.63c-5-5.15-8.37-8.41-8.37-8.41l-9,5.23s5.89-33.55,12.82-38.26C134.39,202.9,139.91,203.59,139.91,203.59Z" transform="translate(-5.16 -8.12)"/><path class="cls-8" d="M60.82,125.83v45.44s52.64,6.25,64.06,3S131,155.56,131,148.24s-.15-25.16-2-29.43-10.52-2.43-21.19-1.52S60.82,125.83,60.82,125.83Z" transform="translate(-5.16 -8.12)"/><path class="cls-9" d="M131,148.24c0-7.32-.15-25.16-2-29.43s-10.52-2.43-21.19-1.52-47,8.54-47,8.54v7.61c9.77-2,35.13-5.92,43.61-6.65,10.67-.91,18.2-2,20,2.23s2.44,20.36,2.44,27.68c0,4,1.61,10.55,1.16,16.13C135.18,167.78,131,154.76,131,148.24Z" transform="translate(-5.16 -8.12)"/><g class="cls-10"><path class="cls-11" d="M130.69,119.52l-69.36,10S117,119.37,130.69,119.52Z" transform="translate(-5.16 -8.12)"/><path class="cls-11" d="M132.49,145.67l-70,2.68S118.88,144.18,132.49,145.67Z" transform="translate(-5.16 -8.12)"/><path class="cls-11" d="M132.49,142.77l-69.92,4.5S118.85,141.54,132.49,142.77Z" transform="translate(-5.16 -8.12)"/><path class="cls-11" d="M132.49,141l-69.92,4.51S118.85,139.78,132.49,141Z" transform="translate(-5.16 -8.12)"/><path class="cls-11" d="M132.47,138.7l-69.88,5.21S118.81,137.61,132.47,138.7Z" transform="translate(-5.16 -8.12)"/><path class="cls-11" d="M132.41,135.63l-69.76,6.69S118.73,134.83,132.41,135.63Z" transform="translate(-5.16 -8.12)"/><path class="cls-11" d="M132.41,133.42l-69.76,6.69S118.73,132.62,132.41,133.42Z" transform="translate(-5.16 -8.12)"/><path class="cls-11" d="M132.37,130.71l-69.68,7.38S118.69,130,132.37,130.71Z" transform="translate(-5.16 -8.12)"/><path class="cls-11" d="M132.37,128.19l-69.68,7.38S118.69,127.52,132.37,128.19Z" transform="translate(-5.16 -8.12)"/><path class="cls-11" d="M132.33,125.6l-69.6,8.14S118.64,125.08,132.33,125.6Z" transform="translate(-5.16 -8.12)"/><path class="cls-11" d="M132.63,122.73,63,130.87S119,122.22,132.63,122.73Z" transform="translate(-5.16 -8.12)"/><path class="cls-11" d="M130.46,169.66,61.61,166S116.86,171.07,130.46,169.66Z" transform="translate(-5.16 -8.12)"/><path class="cls-11" d="M132.22,147.84l-69.41,1.92S118.54,149.82,132.22,147.84Z" transform="translate(-5.16 -8.12)"/><path class="cls-11" d="M132.2,150.17l-69.37,1.21S118.65,152.53,132.2,150.17Z" transform="translate(-5.16 -8.12)"/><path class="cls-11" d="M132.14,153.27,62.9,153S118.57,155.34,132.14,153.27Z" transform="translate(-5.16 -8.12)"/><path class="cls-11" d="M132.14,155.49,62.9,155.2S118.57,157.57,132.14,155.49Z" transform="translate(-5.16 -8.12)"/><path class="cls-11" d="M132.11,158.23l-69.17-1S118.53,160.16,132.11,158.23Z" transform="translate(-5.16 -8.12)"/><path class="cls-11" d="M132.11,160.77l-69.17-1S118.54,162.71,132.11,160.77Z" transform="translate(-5.16 -8.12)"/><path class="cls-11" d="M132.08,163.38,63,161.61S118.49,165.17,132.08,163.38Z" transform="translate(-5.16 -8.12)"/><path class="cls-11" d="M132.38,166.24,63.3,164.47S118.8,168,132.38,166.24Z" transform="translate(-5.16 -8.12)"/><path class="cls-11" d="M131,171.8l-70-3.23S117.39,173.28,131,171.8Z" transform="translate(-5.16 -8.12)"/></g><path class="cls-32" d="M123.82,112.3s114.73,17.23,124.08,20.44S256,160,254.41,168.68s-7.93,11-14.64,11S121,178.23,121,178.23s8.78-2.15,10.49-14.39-1-36.81-1.57-41S123.82,112.3,123.82,112.3Z" transform="translate(-5.16 -8.12)"/><path class="cls-13" d="M172.91,127.44c.5,3.89,3.05,26.74,1.46,38.12-1.37,9.78-7.58,12.62-9.3,13.22l9.6.12c2.54-1.41,6.56-4.81,7.62-12.45,1.59-11.38-1-34.23-1.46-38.11-.32-2.51-2.58-5.85-4.14-7.92l-8.22-1.28C170,121.15,172.57,124.78,172.91,127.44Z" transform="translate(-5.16 -8.12)"/><path class="cls-13" d="M186.66,129.36c.5,3.79,3.05,26.06,1.46,37.15-1.16,8.11-5.83,11.31-8.26,12.46l9.3.11c2.51-1.59,5.92-5,6.88-11.7,1.59-11.09-1-33.36-1.45-37.14-.32-2.41-2.52-5.62-4.08-7.63l-8.27-1.31C183.8,123.26,186.32,126.78,186.66,129.36Z" transform="translate(-5.16 -8.12)"/><path class="cls-33" d="M134.48,145.38c-.08-1.87-.17-3.67-.23-5.34l-.09-3.38c-.21-8.81-.42-17.91-5.49-22.19-2.29-1.94-5.25-2.66-8.8-2.15-10.22,1.47-53.39,9.05-62.71,10.69v6.19c6.09-1.07,53.11-9.34,63.58-10.84,2.36-.34,3.41.27,4,.76,3,2.52,3.17,10.57,3.34,17.68,0,1.16.05,2.31.09,3.44.05,1.71.21,4.69.23,5.43.05,1.56.82,23.61-2.84,25.91-4.07,1.85-37.79.11-68.39-2.66v6.13c11.9,1.07,39.3,3.35,56.66,3.35,7.13,0,12.57-.39,14.52-1.4C135.81,173.12,135.14,159,134.48,145.38Z" transform="translate(-5.16 -8.12)"/><path class="cls-15" d="M124.76,153.25s-1.09,15.05-1,24.76c-5.7.39-11.84.39-11.84.39S114.53,153.52,124.76,153.25Z" transform="translate(-5.16 -8.12)"/><path class="cls-23" d="M124.76,153.24s-11.1,9.13-11.7,40.48c-4.88-4.33-8.23-7.05-8.23-7.05l-8.8,6.5s6.2-34.32,13-40A139.56,139.56,0,0,1,124.76,153.24Z" transform="translate(-5.16 -8.12)"/><path class="cls-34" d="M135.64,117.44s104,16.32,107.73,17,4.41,4.42,5.2,7.26-2.26,1.67-8.53,1.08S147,131.16,142.26,130.5s-5.38-2.38-6.17-5-1.91-6.38-1.76-7.17S134.84,117.31,135.64,117.44Z" transform="translate(-5.16 -8.12)"/><path class="cls-35" d="M142.32,178.21a.51.51,0,0,1-.44-.24.53.53,0,0,1,.14-.74c.92-.61,4.43-6.47,4.7-12.78.26-6.16.26-20.11,0-31.78-.26-11.33-3.95-15.47-4-15.51a.54.54,0,0,1,0-.76.53.53,0,0,1,.75,0c.16.17,4,4.42,4.28,16.22s.26,25.67,0,31.84-3.81,12.72-5.17,13.63A.58.58,0,0,1,142.32,178.21Z" transform="translate(-5.16 -8.12)"/><path class="cls-35" d="M148.24,178.81a.53.53,0,0,1-.3-1c.92-.61,4.43-6.48,4.7-12.79.27-6.15.27-20.11,0-31.77-.26-11.34-3.95-15.48-4-15.52a.53.53,0,0,1,0-.75.53.53,0,0,1,.75,0c.16.18,4,4.42,4.28,16.22s.26,25.67,0,31.85-3.81,12.71-5.17,13.62A.48.48,0,0,1,148.24,178.81Z" transform="translate(-5.16 -8.12)"/><path class="cls-32" d="M187.06,49s11.22,9.55,11.79,40.83c4.94-4.12,8.34-6.69,8.34-6.69l8.9,6.84S209.85,55.48,203,49.54A142.65,142.65,0,0,0,187.06,49Z" transform="translate(-5.16 -8.12)"/><path class="cls-14" d="M158.08,202.91s28.55,18.63,44.44,68.36c-3.51,8.09,1.55,18.5,12.67,14.22,7.7-1.92,50.42-13.27,80.08,25.23,43.91-17.68,94-34.31,94-34.31s1.86-5.14,1.54-5.36c-1.36-1-7.27,2.58-10.25,1.23-17.06-7.7-55.25-23-78.62-17.9-9.12,1.93-14,.53-14-4.47s-15.5-47.23-27.38-58.12c-29.39.29-75.83,9.29-94.09,9.57-.65,0-4.93-4.19-6.12-4C159.59,197.49,158.08,202.91,158.08,202.91Z" transform="translate(-5.16 -8.12)"/><path class="cls-36" d="M160.38,197.36s31.13,22.25,47,72c-3.5,8.09,0,15.34,11.07,11.07,7.7-1.93,50-10,79,25.33,43.91-17.68,93.34-34.69,93.34-34.69s-53.91-28-84.71-21.23c-9.12,1.93-14,.54-14-4.47s-15.5-47.23-27.38-58.12C228,187.59,160.38,197.36,160.38,197.36Z" transform="translate(-5.16 -8.12)"/><path class="cls-37" d="M265.75,179.66l-90,6c-3.46,11,36.14,64.22,36.14,64.22a119.38,119.38,0,0,0,7.48,18l78-22.57C289.07,210.12,265.75,179.66,265.75,179.66Z" transform="translate(-5.16 -8.12)"/><path class="cls-38" d="M297.47,245.56l-.06-.24-78,22.57.42.84c42.13-7.87,80.63,21,80.63,21s19.34-6.22,93-34.33C374.56,246.15,313.4,241.74,297.47,245.56Z" transform="translate(-5.16 -8.12)"/><path class="cls-39" d="M302.27,283.33h0s-32.69-26.83-80.57-16.27c-5.6-24-30.68-74.52-45.87-81.43-4.8,3.83-10.72,8.08-10.72,8.08s34.37,31.95,44.5,75c7.64-.32,11.38,8.07,11.38,8.07s25.91-5.46,46.05.81,32.8,23.33,32.8,23.33l.26-.09,92.28-33.24,1.07-12.2Z" transform="translate(-5.16 -8.12)"/><path class="cls-40" d="M302.23,283.34s-32.69-26.83-80.57-16.27c-5.6-24-30.68-74.52-45.87-81.43-4.8,3.83-10.72,8.08-10.72,8.08s34.37,31.95,44.5,75c7.64-.32,11.38,8.07,11.38,8.07s25.91-5.46,46.05.81,32.8,23.33,32.8,23.33l.26-.09,2.21-17.52Z" transform="translate(-5.16 -8.12)"/><path class="cls-37" d="M221.66,267.89s34.54-14.49,80.61,7.72c49-13.61,87.4-25.75,87.4-25.75s-51.87-14.09-92.2-4.3S225.66,265.22,221.66,267.89Z" transform="translate(-5.16 -8.12)"/><path class="cls-8" d="M221.66,267.07s2.85-47.7-32.5-88c22.9-2.68,88.5-3.85,88.5-3.85s21.47,38.68,19.81,70.33C262,254.57,221.66,267.07,221.66,267.07Z" transform="translate(-5.16 -8.12)"/><path class="cls-32" d="M304.06,244.18s-61.63,16.49-74.86,21.51-12.34,36.5-12.34,36.5L211.17,294l-5.33,5s2.28-26.12,15-35.13S292.23,244.14,304.06,244.18Z" transform="translate(-5.16 -8.12)"/><path class="cls-41" d="M286.33,236.8a143,143,0,0,0-23.77,1.87,64.5,64.5,0,0,0-2.31-21.38c-5.21-19.19-17-32.68-26.32-30.15s-12.67,20.14-7.46,39.32c3.61,13.28,10.36,23.82,17.27,28.23,6.86,4.73,23.34,8.06,42.59,8.06,25.41,0,46-5.8,46-13S311.74,236.8,286.33,236.8Z" transform="translate(-5.16 -8.12)"/><path class="cls-27" d="M331.9,172.26a53.26,53.26,0,1,1-74.41-11.62A53.26,53.26,0,0,1,331.9,172.26Z" transform="translate(-5.16 -8.12)"/><g class="cls-42"><path class="cls-43" d="M295.17,234.65a1.76,1.76,0,0,0-.14-.27l0,0Z" transform="translate(-5.16 -8.12)"/></g><path class="cls-23" d="M245.64,175.43c.43-.39.88-.45,1.32-.79a12.36,12.36,0,0,0,2.21-2.81c.45-.58,1.79-2.42,2.64-1.88,0,.27-.45,1-.2,1.28s.88-.21,1.15-.26a6,6,0,0,0,.08,1.81c.85.11.85-.86.94-1.44a4.52,4.52,0,0,1,.58-1.82,5.11,5.11,0,0,0,.72-1.39,7.16,7.16,0,0,1,.45-1.71,20.32,20.32,0,0,1,2.15-2.71c.4-.48.94-.81,1.34-1.26s.81-1.07,1.25-1.58c.64-.73,1.89-2.29,3-2.13-.41.69-1.45,1.1-1.81,1.82-.25.49,0,.57-.51.95s-1,.45-.94,1.06c.28,0,.56-.06.69.19.55,0,1-.82,1.38-.37s-.48,1-.38,1.45c.13.6,1-.5,1.12-.76a9.2,9.2,0,0,1,.58-1.57,14.55,14.55,0,0,1,1.6-1.44,4.08,4.08,0,0,1,1.37-1,18.88,18.88,0,0,0,1.87-.9c.39-.23.8-.73,1.27-.67l.07.13c.28-.23.67-.44.95-.64s.6-.55.83-.69a24.43,24.43,0,0,1,2.83-1.26c.54-.24.81-.78,1.34-.85.22,0,.31.11.62,0s.44-.39.63-.51c.41-.26,3-.63,2.66-1.23s-3.1,0-3.63,0a22,22,0,0,0-2.8.32,53,53,0,0,0-15.54,7.83,53.85,53.85,0,0,0-6.39,5.48,70.28,70.28,0,0,0-5.27,6.36c-.45.6-.92,1.19-1.36,1.78-.53.79-1,1.6-1.52,2.42a7.26,7.26,0,0,0-.48,1.54c.67-.6,1.41-1.14,2.1-1.71C245,176.19,245.26,175.76,245.64,175.43Z" transform="translate(-5.16 -8.12)"/><path class="cls-23" d="M274.6,162.81c-.64-.2-.81.38-1.29.54l0-.35a7.14,7.14,0,0,0-.93.06,3.27,3.27,0,0,1,0-.62c0-.05.19-.09.25-.13s-.09-.16-.06-.25c.29-.23.22-.33.25-.66a1.8,1.8,0,0,0-.19-.2c-.24.08-.81.32-.91.37s-.61-.11-.6.42a5.27,5.27,0,0,0-1.31.42c-.46.79.71.47.36,1.13a1.41,1.41,0,0,0-1.3-.13,2.85,2.85,0,0,1-.94.25c.21.73,0,.64-.27,1.15-.09.13-.35.1-.48.28s.1.53,0,.72c-.44.61-2.18.7-1.57,1.8.54-.49,1.13.24,1.59-.38.34.2,1.49-.79,1.73-1.1s.24-.73.64-1c.12-.07.71,0,.93-.08-.17.74-1.44,1.3-1.53,2s.48.38.79.2.25-1.15.68-.3c.55-.2,1.42-.62,1.58-1.21a.85.85,0,0,0,.84.35c.14-.52.78-.6.69-1.29a1.86,1.86,0,0,1,.37.19.69.69,0,0,0-.08-.94C274.39,163.92,274.53,163.32,274.6,162.81Z" transform="translate(-5.16 -8.12)"/><path class="cls-44" d="M294.85,234.21a1.09,1.09,0,0,0-.13-.27l-.05,0Z" transform="translate(-5.16 -8.12)"/><path class="cls-23" d="M339,185.61a53.25,53.25,0,0,0-50.62-35.2,2.19,2.19,0,0,0-1,.84c-.3.53-.26.32,0,.73s1.61.34,1.83.64c.8,1.06-1.13.67-.84,1.45-.33.14-1.65-.18-.78.72-.06,0-.18,0-.23.08.12.94.86.63,1.59.74.91.13,1.38.72.46,1.32.33.45.47,1.23-.25,1.32-.3-.87-.55.1-.85,0s-.63-.32-.24-.78a2.52,2.52,0,0,1-1.31-.19c.1-.05.29-.21.39-.26-.3,0-.95.2-1.15,0-.38-.36.08-.61.39-.67a3.53,3.53,0,0,1-1.14-.31c.29-.28.72-.4,1-.76-.32-.38-1.23-.27-1.69-.3a8.78,8.78,0,0,0-1.82-.26,4.53,4.53,0,0,0-3.31,1.61c-.84,1.14-2.05,1.11-3.22,1.91-.77.53-2.1,1.73-2,2.71.07.09.16-.05.18-.05-.27,1.13,1.45.47.95-.49.2.1.34,0,.56.18.22-.27,1.11-1.92,1.34-.59.5,0,.54-.53,1.1-.44a16.6,16.6,0,0,0-.06,2.33c.83.22,2.05-.84,1.7-1.66,1-.23.16-1.2.44-1.84a3.93,3.93,0,0,1,.68-.83c.3-.25.35-.57.93-.46.1.63-.55.93-.44,1.57,1.06.1.94.74,2.07.23.67-.3,1.37-.67,1.33.53.63.23,1.37-.09,2,.11.25.08.31.37.49.46s.77.17.81.22c1.39,1.63-1.89.81-2,.92-.34-.68-1.66-.15-1.92.37-.37.74.6,1.06-.58,1.08-.35,0-.46-.23-.95,0-.32.13-.48.45-.83.6s-.81.1-1.13.19-.94.45-1.14.45c-.61,0-1.09-.68-1.89-.45-.58.16-.51.42-.95.73s-.79.12-1.11.32c-.76.49-.39,1.39-.85,2-.19.26-.58.25-.8.51s-.2.68-.47,1a3.22,3.22,0,0,1-1.1-.16c-.48.67-1.77-.21-2.18.82a2.33,2.33,0,0,1,.36,0c-.14.14-.17.4-.26.53,1.64-.06.78,1.81-.11,2.3-.32-.35-1.07.24-1.51.36-.18,0-.24.28-.38.3s-.24-.23-.38-.21c-.46.06-.78.2-1.1-.11a3.41,3.41,0,0,0-.79,1.25,5.18,5.18,0,0,0-.4,1.68c-.14.95-1.7,3,.38,2.65a8.56,8.56,0,0,0,1.43-.75c.19-.09.22-.37.38-.44s.41.06.57,0a3.15,3.15,0,0,0,.95-.48c.38-.36.64-.77,1-1.16a3.75,3.75,0,0,0,.9-1.38c2,.09.44-1.4,1.7-1.88.66-.25,1,.37,1.66,0,.3-.19.22-.58.47-.77s.5-.06.76-.18c.65-.28.67-.49,1.44-.26.2,0,.35.28.57.37s.51,0,.78.08c.56.17,2.45,1.67,2.61.13-.78,0-2.37-.31-2.05-1.42,1.82-.77,2.86.6,4.15,1.4A3.92,3.92,0,0,1,285,172c.34.73,0,1.69,1.19,1.43a4.25,4.25,0,0,0,.17-.63c0-.06-.12-.14-.14-.19.79-.36,0-.53,0-.87s-.32-.09-.22-.5c0-.17.6-.14.67-.37.17-.57-.77-.58.12-.95.49-.2,1.13-.05.86.57a.62.62,0,0,1,.38.76l.35,0c.14.61-.23,1.69.47,2a2.22,2.22,0,0,0,0,.44c.83.12,1.32-.32,2.07-.56a5.51,5.51,0,0,1,2-.47c.41.09.31.49.76.46.29,0,.59-.56.82-.67,1.18-.57.62.25,1,1a2.46,2.46,0,0,1-.39-.09c.28.23.64.42.88.63a9.74,9.74,0,0,1-1.42-.08c.35.09,1.3.35,1.26,1a5.09,5.09,0,0,0,.55,0c0,.09,0,.18,0,.27a2.43,2.43,0,0,0-.19.29l-.45,0c0,.42-.27.56-.65.53-.05-.07-.09-.17-.14-.25-.44.31-2.52,1.22-2.64.47-.3,0-.43-.16-.72,0a.9.9,0,0,0-.88-.54c-.27.36-.06.78-.25,1.06s-.67.37-.86.8a.61.61,0,0,1,0,.86c-.71,0-.49-.73-.94-1-.19-.11-.43.06-.65,0a7.32,7.32,0,0,0-.92-.4c-1.86-.26-.07,1.93-1.42,2.09-.18-.15-3.49,1.5-3.15.23-1-.12-.09-.59-.34-1s-.92-.21-1.35-.19-2.93.12-2.1-1.21c-.11,0-.23-.1-.35-.13.17-.76-.18-1-.5-1.58-.52-.24-.75.21-1.21.37a5.89,5.89,0,0,1-1.54.11c-.64,0-2.26-.1-2.64.72a4.57,4.57,0,0,0-2.54,1.34c-.64.48-.54.52-1.25.3-.43-.13-1-.78-1.32,0-.55-.11-.7.19-1,.49a9.81,9.81,0,0,0-.93.87c-.39.64-.44,2-1.23,2.36.06.52-.6,1-.87,1.4a3.11,3.11,0,0,1-1.5,1.15c.05.5-.76,1.24-1.14,1.57.12,0,.23.11.36.14-.13.73-1.23,1.38-1.49,2.14.16,0,.38.05.54,0-.06.55.37,1,.09,1.48-.7,0-.88.67-1.48.79.11.31-.07.29.25.48a3.36,3.36,0,0,0-.46,1.68c.13.79.52.75.22,1.61-.4,1.13-1.3,1.86-1.33,3l.34,0a1.18,1.18,0,0,1,.32.92c.13,0,.31,0,.44,0a1.07,1.07,0,0,1-.07,1.09,1.32,1.32,0,0,0,.46.68c0-.11.16-.25.21-.35.95-.15,1.25,1.36,1.71,2a9.86,9.86,0,0,1,.73,1.13c.22.38.29.93.47,1.23s.69.48,1,.85.23.91,1.06,1,2.21-.26,2.19-1.21c.56-.15.71.35,1.12.36s.59-.19,1-.19c.65,0,1.5.73,1.71-.55.58,0,.83-.52,1.22-.84s1.12-.4,1.49-.71c.65-.55.76-2.61,1.71-1.38a1.9,1.9,0,0,1,0,.25c1-.12,1.37,1.21,1.66,1.83.12.24.24,1.27.3,1.31.51.32,1.15-.25,1.16-.75.41-.11.55.25.91.16s.46-.45.87-.55a2.09,2.09,0,0,1,1.06.08c.61.27.22.22.55.68a3.79,3.79,0,0,1,.86,1.8c.07.84-.53,1.54-.58,2.36a1.78,1.78,0,0,0,.88,1.58c.51.44.73.83,1.3,1.28s3.81.83,2.56,1.94c1.31.05.3.86.63,1.47a.57.57,0,0,0,.08.13c-.34.61-.39,1.42.59,1.56a7,7,0,0,0,0,1c0,.15-.32.26-.3.37s.46.38.47.5A2.25,2.25,0,0,1,287,220c-.5.66-.93.84-1.18,1.64a1.83,1.83,0,0,0-.2.82s.17,1.16.17,1.16c.24.53,1.34.85,1.87,1.07.79.31,1,.84,1.52,1.13.31.16.71,0,1.06.07s.59.31.95.38c.92.19,1.6-.06.75.85-.26.28-.75.19-.74.74,1,.46-1.09,1.5-.22,2.31.33.32,1,.12,1.33.44s0,1.12.66,1.45a3.15,3.15,0,0,1,0,.44c.31.19.16.1.38.38a2.38,2.38,0,0,1,1.36,1.07c.19.08.1.19.23.46.05.08-.13.3-.08.45s.33.07.37.18a3.84,3.84,0,0,1,.2,1.53c.75.1,1.53.23,1.51,1.13.75.1.6-.74.82-1.21a4.91,4.91,0,0,1,.85-1.17c.54-.65.18-.49,1.06-.73.56-.15,1.12-.17,1.15-.93a7.84,7.84,0,0,0,3.15-1.12,2.75,2.75,0,0,0,1.37-1c.47-.74.08-.8.18-1.48-.91-.33.14-1.44-.92-1.65.31-1.09,2.22-.38,2.37-1.38a3.11,3.11,0,0,0,1.56-.89,1.35,1.35,0,0,0,.31-1.6c-.15-.3-.41-.53-.57-.84s.12-.27-.26-.68-1.21-.3-1.36-1c-.2-.93.89-.83,1.54-1,1-.32.83-.79,1.48-1.52.24-.27.71-.27.88-.49s.08-.86.27-1.2.51-.33.67-.77a2.56,2.56,0,0,0,.17-.83c-.16-.17.09-1.08,0-1.53-.1-.69-.52-1.2-.3-1.88-.13,0-.22-.09-.35-.12.39-1-.66-1.12-1.34-1.31h0c0-.06-.05-.11-.08-.16a5.92,5.92,0,0,0-.83-1c-.35-.36-.84-.42-1-1-.51-.17-2.84.28-1.86-1,.32-.43,1-.2,1.4-.4.62-.3.46-.28.68-1,.2.08.51,0,.72.06.26-.57,0-1.37.22-1.88.13-.25.63-.44.83-.66a2.07,2.07,0,0,0,.48-.85,3.82,3.82,0,0,1,1-1.51,1.72,1.72,0,0,0,.76-1.59,3.25,3.25,0,0,0-.44,0c-.06-.52.42-.72.47-1.2,1.25-.25.53-1.22.93-1.91.19-.35.79-.38.93-.68s-.28-.88-.15-1.38a2.27,2.27,0,0,0,1.95-2.11l-.25-.1c0-.94.76-1.76.95-2.73s.76-2.27.34-3c-.94-.15-.57,1-.95,1.38s-1.49-.13-1.51.76c-.84.1-1,1.24-1.8,1.51s-2-.3-2,1c-.9-.12-3.32,1.32-3.66-.06.44-.2,2.37-1.24.75-1.36a1,1,0,0,0-.12-1c-1.09-.16-1.36,1.32-2-.19-.37,0-.65.05-1,.07.05-.9-.17-.93-.68-1.48-.33-.37-.25,0-.47-.61a9.87,9.87,0,0,1-.21-1.39,2.58,2.58,0,0,1-1.42-.55c-.19-.22,0-.64-.18-.79s-.59-.15-.84-.28c-.9-.43-1.8-.59-2.73-1.06.38-1-1.17-.68-1.6-.94-.94-.58-.51-1.12.17-1.4.53-.23,1.68.1,1.39-.45-.43-.82-1.2-.17-1.85-.32-.37-.69.53-1.11,1.43-1.53.48.24.86,1,1.11,1.26s1,.71,1,1.31a1,1,0,0,1,1.13.66c1.26-.1,2.39.75,3.49,1.25.59.26,3.33,1.22,3.33,1.58,1.23.14.94,1.14.75,2,.95,0-.28,1.49.93,1.91a3.89,3.89,0,0,0,2.74-.38,14,14,0,0,1,1.61-.47c.27-.07.62,0,.85-.22.44-.33.1-.38.28-.63.51-.7,1.45-1.1,2.1-1.8-.57-.58.46-1.28.64-1.9-1.05,0-.86-1.18-.67-1.87-.15.06-.48,0-.63.07,0-.34.9-3-.47-1.7.05-.86-.45-.46-.87-.56-.72-.18-.47.15-.75-.66-.21-.6-.47-1.95-1.41-1.69-.27.68-.12,1.94-1.34,1.78-.41-.05-.39-.49-.75-.57s-.6.23-1.07,0-.93-1.24-1.3-1.61-1.58-.62-1.15-1.59c-1-.13-.43-1.78.59-1.45.68.23.54,1.41,1.68,1,0,.72,0,.84.39,1.22s.72,0,1,.64c.71.21,1.06-.57,1.76-.53a4.57,4.57,0,0,0,1.26,1,5.82,5.82,0,0,0,1.95,0c.35-.14.22-.56.52-.72s.56,0,.82,0c.58-.11,1.59-.59,1.34.64a6.38,6.38,0,0,1,1.43.23c.87.06.68-.18,1.29.47-.11,1,2.7,1.14,3.39,1,.42.46,1.23.31,1.08,1.11.65.27.08.61.25,1s.46.37.95.79c.12.1.16.42.2.45a3.55,3.55,0,0,0,.58.27,1.85,1.85,0,0,1,.39,1.32,2,2,0,0,1,1.5,2c0,.42-.3.8-.12,1.16.27.57.65.26,1,.56.79.63.47,1.34,1.16,1.82V181.4c-.79-.28.17-1.17-.31-1.75-.34-.41-1.52-.44-1.94-.8a2.83,2.83,0,0,1-.49-.82c-.18-.31-.71-.35-.46-.93.14-.32.65-.17.83-.49s0-.82.11-1.22c.13,0,.31,0,.45,0,0-.55-.2-1.45.66-1.2-.1.7.1,1.85.94,1.8.38.76-.5,1.16.18,1.81.28.26.75,0,1,.32s.08.79.08,1c.94.4,1,1.64,2.15,1.42-.07-.3,0-.49-.28-.74.65-.66.5.41.6.57.18.31.51.54.64.94s0,.9.07,1.26.41.55.32,1.09C336.47,183.89,338.26,185.5,339,185.61Zm-44.51-16.2c-1-1.08-.7.64-1.25.94s-.88-.28-1.31-.37-.85.11-1.23,0c-.74-.24-1.08-.9-1.69-1.33s-.64-.06-.89-.57c-.1-.21.75-.48-.05-.65a1.71,1.71,0,0,0,0-.45c-.57-.06-1.68.61-1.8-.09-.65,0-1.22.07-1.86,0,.26-1.14,1.37-1.17,2.36-1.31s1.91-.4,2.73-.55c.26,0,1-.29,1.13-.28.44,0,.71.35,1.12.48s.64.07,1.09-.2c.2-.12.44-1,.83-.3l.47.19c.11.13.23.12.2.36.11,0,.24,0,.35,0s.07.32.1.44c-.15.1-.16.19-.26.29.22,0,.34.15.54.2-.1.59-2.09.53-.84,1.14.79.38,1.91-.12,2.74,0a2.49,2.49,0,0,0-.08.35c.41,0,.56,0,.67.38l.16,0C297.85,170,294.73,167.92,294.48,169.41Zm8.44.74c-1.05-.49-.78-.86-1-1.87s-1.31-1.13-1.25-2.06c-.58-.05-1.2-.23-1-.95-.7.16-.82-.3-1.1-.69.06-.46.43-1.23-.2-1.42.33-.56.82-.65.58-1.39.66,0,.94-.67,1.57-.79,0-.13.05-.31,0-.44.46,0,.94,0,1.4,0,.08.16-.07.11-.09.18l.1.56c.6,1.09-1.61,1.47-1.45,2.4.23,1.31,2.17,1.35,3.23,1.4a.89.89,0,0,0,.45,1c-1.23.67.8,1.36,1.35,1.34,0,.13,0,.31,0,.44.49,0,.91-.33,1.38-.06-.26,1.19,1.2.72.41,1.95a1.38,1.38,0,0,1,1.14.59C307.12,171.7,304.34,170.83,302.92,170.15Z" transform="translate(-5.16 -8.12)"/><path class="cls-23" d="M312.49,229.1a1.29,1.29,0,0,0,1.54-.38c.18-.19.22-.54.38-.69s.61-.17.76-.37,0-.63.18-.84.63-.12.88-.35c.54-.48.24-.92.36-1.61.19-1.12,1.37-1.2,2.36-1.75.43-.23,1.09-.46.78-1s-1-.06-1.5-.2c.11-.86.33-1-.76-1.14a.92.92,0,0,1,.93-1c-.13-.25,0-.49-.08-.73.95,0,.75-1.26.84-1.81a9.52,9.52,0,0,0,.29-1c0-.36-.15-.76-.12-1,.07-.67.62-3.54-.72-3.91a4.57,4.57,0,0,0-.49-.56l-.57.1c.81,1,.37,1.09-.09,2-.31.59.05,1.55-.35,2.1-.24.31-.79.38-1.07.64a4.24,4.24,0,0,0-.68,1c-.15.28-.23.82-.38,1-.3.44-.76.48-1.11.8-.78.73-.5,1.25-.31,2.06a5.32,5.32,0,0,1,0,2.15c-.08.37-.28.77-.39,1.14,0,0-.25.61-.27.49,0,.2.37.44.37.52a7.12,7.12,0,0,1-.38,2.2C312.75,227.56,312.88,228.57,312.49,229.1Z" transform="translate(-5.16 -8.12)"/><path class="cls-23" d="M256.71,245.37c-.22-.26-.39-.75-.61-1.06a21.06,21.06,0,0,0-1.37-1.85c-.57-.66-1.45-1.14-1.8-1.92s-.28-1.82-1.19-2.09c.12-.72-.53-1-.41-1.77a2.48,2.48,0,0,1-1.12-.77,3.12,3.12,0,0,1-.49-1.3c-.05-.18-.36-.3-.43-.57,0,0,.16-.56.17-.59.16-.57,0-.66.66-.95s.77.25,1-.46a2.66,2.66,0,0,0-.31-1.22c-.4-.91-.4-1.49-1.49-1.57-.45-.31-.24-.59-.4-1-.23-.63-.47-1.23-.64-1.89-.08-.34,0-1-.18-1.24s-.58-.21-.79-.44c-.75-.82-.24-.86.21-1.35a1.64,1.64,0,0,0,.46-.74s-.21-.25-.16-.4.38-.19.44-.3a4.94,4.94,0,0,0,.8-1.94c.05-.76-.42-1.21-.5-1.92s.32-1.1-.59-1.77c-.43-.32-1.58-.48-1.69-1-.66-.14-1.59.77-1.61-.37-1.05-.32-1,1-1.86.82-.21-.58-.87-2-1.51-2.18-.12-.61.7-2.23-.57-2l0-1c-.26-.17-.21-.07-.27-.4-.22-1.15.57-3-.73-3.8-.56-.35-1.21.2-1.8-.28s-.47-1.56-.38-2.14a3.34,3.34,0,0,0-.31-2.2c-.3-.79-.07-1.36-.28-2.17-.32-1.25-.47-2.46-.75-3.8a53.27,53.27,0,0,0,20.47,50.3c.36,0,.73,0,1.06,0C257.42,245.79,257,245.72,256.71,245.37Z" transform="translate(-5.16 -8.12)"/><path class="cls-23" d="M321.12,243.35v-.12a2.75,2.75,0,0,1-.56,1.07,1.62,1.62,0,0,0-.52.89,2.24,2.24,0,0,1-.25.56,4.55,4.55,0,0,0-.31.44c-.24.18-.59.23-.82.45-.36.37-.29.52-.82.76a4.93,4.93,0,0,1-1.14.48c-1,.15-.87-1.13-1.75-1-.13.28-.49.29-.76.43-.27-.46-.62-.25-1-.17a2.91,2.91,0,0,1-1.77,1.55c-.62.14-.52-.09-1.08-.18a1.64,1.64,0,0,0-.69.14c-.26.18-.18.35-.38.5s-.71.25-1.07.48a5.46,5.46,0,0,1-1.09.76c-.56.2-1.08.17-1.62.41a8.5,8.5,0,0,0-1.45.48,1.07,1.07,0,0,0-.68-.24c0,.11,0,.26,0,.36-.34,0-.49.28-.75.46s-.3,0-.46.17a.88.88,0,0,0-.29.38c.4.08.23.23.17.5,0,0-.4.58-.38.57-.42.3-1.43.24-1.64-.29-.25.25-.73.31-.88.61a9.84,9.84,0,0,0-1-.37c-.61-.1-.74.21-1.19.37-.72.25-1.46-.23-2.14-.06,0-.57-.61-.49-.52.06a1.44,1.44,0,0,0-.83.13.94.94,0,0,0-.93,0c-.64-.63-2.47.8-3,1.25-.12.1-.12.35-.25.47s-.31.13-.44.25-.39.38-.61.56-.35.28-.55.42a53,53,0,0,0,32.67-10.23l.27-.2a4.71,4.71,0,0,1,.12-.85c.07-.23.88-.8.14-.83.37-.27.13-.41.19-.68S321.25,243.63,321.12,243.35Z" transform="translate(-5.16 -8.12)"/><path class="cls-23" d="M267.71,161.74s1.25-.58,1.33-.64c.41-.32.11-1,.92-.87.46-.82.94-1.28,1.36-2,.23,0,.3-.2.46-.3l.47-.47a10.75,10.75,0,0,1-2.36,1.11c-.42.1-.73,0-1.13.12-.95.25-.48.3-.86.94C267.66,160,266.41,161.59,267.71,161.74Z" transform="translate(-5.16 -8.12)"/><g class="cls-45"><path class="cls-46" d="M219.12,168.82a45.86,45.86,0,1,1-64.09-10A45.85,45.85,0,0,1,219.12,168.82Z" transform="translate(-5.16 -8.12)"/><path class="cls-47" d="M215.25,171.64a41.07,41.07,0,1,1-57.39-9A41.06,41.06,0,0,1,215.25,171.64Z" transform="translate(-5.16 -8.12)"/></g><path class="cls-48" d="M270,153.85c-8.05,4.16-14.15,10.69-16.78,19.06-6.2,19.73,9.16,42.14,34.31,50,22.73,7.15,45.68,0,54.46-16a53.24,53.24,0,0,0-72-53.09Z" transform="translate(-5.16 -8.12)"/></g></g></svg>