<svg id="Calque_1" data-name="Calque 1" xmlns="http://www.w3.org/2000/svg" viewBox="0 0 782.02 210"><defs><style>.cls-1{fill:#3a7bec;}.cls-2{fill:#ebac26;}.cls-3{fill:#2ba04d;}.cls-4{fill:#da3337;}.cls-5{fill:#e1696c;}.cls-6{fill:#e1595d;}.cls-7{fill:#f53b3f;}</style></defs><title>text-2</title><path class="cls-1" d="M-1.15,85.75c0-27.49.07-55-.08-82.47,0-3.18,1.94-2,3.16-2,14.56-.07,29.12,0,43.68,0,12.13,0,24.26.17,36.39,0,3.56-.05,4.31,1.1,3.72,4.41-2,11.12-3.87,22.27-5.54,33.44-.39,2.64-1.82,2.48-3.63,2.47-11.19,0-22.38,0-33.56-.16-3.2,0-4.22.9-4.09,4.09.25,5.79.2,11.59,0,17.39-.07,2.49.74,3.22,3.21,3.2C52,66,61.83,66.22,71.67,66c3.14-.06,4,.82,3.49,3.88-2,11.11-3.86,22.24-5.72,33.38-.37,2.17-1.26,3.14-3.71,3.08-7.81-.17-15.64,0-23.45-.12-2.71-.06-3.5.8-3.43,3.44.15,6.33.11,12.67,0,19,0,2.15.73,2.8,2.81,2.79,14.42,0,28.85.05,43.27,0a12.21,12.21,0,0,0,11.13-8c1.66-5.11,0-9.15-3.85-12.65-5-4.5-11-4.89-17.1-4.35-4.07.37-4.57-1.1-3.91-4.64,2-10.84,3.85-21.72,5.64-32.6.37-2.27,1.24-3.09,3.66-3.14,6.7-.15,11.54-4.43,12.38-10.51.82-5.86-2.52-11.27-8.72-13.33-2.43-.81-2.64-1.88-2.25-4.07,1.91-10.58,3.79-21.17,5.39-31.8.54-3.59,1.57-4.61,5.37-3.63,23.7,6.08,40,26,40.53,50.34.25,11.11-3.91,20.83-11,29.25-1.74,2.07-1.86,3.21.14,5.2,14.28,14.27,18.51,31.14,11.23,50-7.37,19.14-21.58,30.83-42,33.54-15.65,2.07-31.5.5-47.25.7-13.75.18-27.5-.16-41.24,0-3.52,0-4.66-.77-4.57-4.45.3-13.59.28-27.19.32-40.79s0-27.18,0-40.77Z" transform="translate(1.52 -1.06)"/><path class="cls-2" d="M601.74,149.34a44.09,44.09,0,0,1-21.43,9.12c-27,3.72-53.07-13.08-59.84-39.59-5.86-22.93-2.66-44.31,14.82-61.74,14.75-14.7,39.52-19,57-10.62a57.28,57.28,0,0,1,9.11,5.86c.3-.21.68-.34.69-.5.43-7.1.43-7.24,7.55-7.43,7.55-.19,15.1,0,22.64-.14,2.32,0,3,.82,3,3.08q.06,28.29.33,56.59c0,3.24-.91,4.68-4.5,5-8,.63-16,1.86-24,2.81-2,.24-4,.35-6.38.55,1.73-5.66,2.72-11,1.68-16.53-2.58-13.73-13.21-21.57-27.6-20.2-12.45,1.19-22.31,12.32-22.27,25.15a25.34,25.34,0,0,0,22.83,25.11c9.21.79,17-1.91,22.73-9.56a3.84,3.84,0,0,1,2.85-1.88c10.69-1.23,21.36-2.59,32-3.85,1.07-.13,2.48-.67,2.48,1.47,0,12.5,1.26,25.06-1,37.48-4.44,24.72-22.13,41.64-47.08,44.93-16.21,2.14-32.05.77-46.79-7-11.25-5.94-11.19-6-3.47-15.92,2.57-3.29,5.19-6.55,7.67-9.91,1.24-1.67,2.1-2.16,4.14-.72,12.06,8.51,25.47,9.72,39.34,6A18.05,18.05,0,0,0,601.74,149.34Z" transform="translate(1.52 -1.06)"/><path class="cls-3" d="M686.79,94.43c-3,7.28-3.89,14.31-1.59,21.6a29.12,29.12,0,1,0,39.53-35.25,28.54,28.54,0,0,0-34.48,8.73,7.18,7.18,0,0,1-6.65,3.23c-12-.15-24-.06-36.37-.06C650.67,78,657.73,65.8,669,56.4c20.08-16.72,42.92-21.2,67.38-12.11C761.18,53.5,775.93,72,779.74,98.2c6,41.16-24.86,70-53.15,75.45-35.52,6.8-70.22-14.81-78.89-49.46a69.73,69.73,0,0,1-1.38-26.87c.21-1.53.32-2.92,2.47-2.91C661.3,94.45,673.81,94.43,686.79,94.43Z" transform="translate(1.52 -1.06)"/><path class="cls-4" d="M292.73,98.32c4.45,0,8.9.13,13.34-.06,2.51-.1,3.33.77,3.94,3.23a25,25,0,1,0,29.57-30.38c-13.88-3-27.94,6.32-29.84,20.3-.55,4-1.72,5-5.63,4.72-8.06-.59-16.16-.73-24.24-.8-2.83,0-3.56-.84-3.44-3.69,1.44-34.14,35.1-59.92,69.25-52.92A58,58,0,0,1,392.29,97.2c-.58,27.57-21.33,51.18-49,55.75-32.55,5.38-64.34-19.34-66.78-51.8-.21-2.77.23-3.86,3.27-3.66,4.29.27,8.62.06,12.93.06Z" transform="translate(1.52 -1.06)"/><path class="cls-4" d="M247.66,94c-4.45,0-8.9-.08-13.34,0-2.57.06-3.56-.87-4.22-3.51a25,25,0,0,0-49.16,3.05c-1.72,13.52,7.86,25.67,21.86,27.74,12.82,1.88,25.74-7.5,27.51-20.54.55-4,2-4.57,5.53-4.36,8.07.47,16.16.55,24.25.55,3.06,0,3.81,1,3.62,4-2.3,34.64-36.89,60.11-70.73,52-29.64-7.14-49.19-35.36-44.65-64.48,4.87-31.27,31.39-52.34,62.8-49.91,27.41,2.12,50.48,25.41,52.52,52.85.22,3-.61,3.74-3.48,3.46-4.15-.41-8.34-.44-12.51-.63Z" transform="translate(1.52 -1.06)"/><path class="cls-2" d="M432.19,52.69c5.29-4.25,10.18-7.51,15.79-9.52,23.6-8.45,46.85,2.6,56.33,26.68,3.66,9.31,4.95,19,5,28.9.15,17.52.07,35,.29,52.56,0,3.22-1.12,3.75-4,3.69-8.62-.16-17.25-.16-25.87.08-3.16.08-4.11-.72-4.08-4,.14-16.71,0-33.42,0-50.14,0-5.81-.25-11.6-2.54-17.07-3-7.16-7.83-12.26-15.95-13.22-7.81-.93-13.95,2.32-18.67,8.27-4.55,5.73-6,12.5-6,19.72.1,17.38,0,34.77.25,52.15.05,3.67-1.09,4.52-4.55,4.43-8.35-.23-16.71-.14-25.07,0-2.58,0-3.48-.62-3.48-3.37q0-52-.3-103.91c0-3,.59-4.25,3.94-4.18,7.94.16,15.9.11,23.83-.3,4.05-.2,5.85.84,5.08,5.07A28.14,28.14,0,0,0,432.19,52.69Z" transform="translate(1.52 -1.06)"/><path class="cls-4" d="M359.09,170.14c-3.61,4.16-7.58,7.94-11.53,11.77-10.89,10.57-23.85,17.44-38.1,22-32.82,10.48-65.24,9.67-97.09-4-7.7-3.3-14.18-8.55-20.92-13.37-.38-1-1.38-1.16-2.15-1.65-2.07-.8-3.49-2.44-5-3.93-.17-.92.2-1.28,1.11-1.12,27.79,15.34,57.66,21,89.12,18.85,27.88-1.89,53.89-9.67,77.45-25,2.12-1.38,3.67-3.57,6.22-4.29C359,169,359.11,169.51,359.09,170.14Z" transform="translate(1.52 -1.06)"/><path class="cls-5" d="M185.4,179.88,184.29,181a5,5,0,0,1-3.08-3.34C183.19,177.74,184.27,178.86,185.4,179.88Z" transform="translate(1.52 -1.06)"/><path class="cls-6" d="M359.09,170.14l-.9-.74c.5-.67,1.11-1.86,1.93-1.05S359.9,169.79,359.09,170.14Z" transform="translate(1.52 -1.06)"/><path class="cls-7" d="M189.3,184.93c1.27-.16,2.34-.08,2.15,1.65A3.29,3.29,0,0,1,189.3,184.93Z" transform="translate(1.52 -1.06)"/></svg>