<svg id="Calque_1" data-name="Calque 1" xmlns="http://www.w3.org/2000/svg" viewBox="0 0 300 97.35"><defs><style>.cls-1{fill:#424242;}.cls-2{fill:#131313;}.cls-3{fill:#3a7cec;}.cls-4{fill:#ebac26;}.cls-5{fill:#2ba04d;}.cls-6{fill:#da3337;}.cls-7{fill:#111;}.cls-8{fill:#030303;}.cls-9{fill:#0b0b0b;}.cls-10{fill:#070707;}.cls-11{fill:#0f0f0f;}.cls-12{fill:#050505;}.cls-13{fill:#161616;}.cls-14{fill:#010101;}.cls-15{fill:#020202;}.cls-16{fill:#0a0a0a;}.cls-17{fill:#0c0c0c;}.cls-18{fill:#080808;}.cls-19{fill:#0d0d0d;}.cls-20{fill:#343434;}.cls-21{fill:#333;}.cls-22{fill:#141414;}.cls-23{fill:#1d1d1d;}.cls-24{fill:#101010;}.cls-25{fill:#1c1c1c;}.cls-26{fill:#121212;}.cls-27{fill:#202020;}.cls-28{fill:#3e3e3e;}.cls-29{fill:#262626;}.cls-30{fill:#0e0e0e;}.cls-31{fill:#585858;}.cls-32{fill:#151515;}.cls-33{fill:#242424;}.cls-34{fill:#494949;}.cls-35{fill:#2a2a2a;}.cls-36{fill:#272727;}.cls-37{fill:#3a3a3a;}.cls-38{fill:#323232;}.cls-39{fill:#060606;}.cls-40{fill:#3b3b3b;}.cls-41{fill:#454545;}.cls-42{fill:#535353;}.cls-43{fill:#505050;}.cls-44{fill:#e15a5e;}.cls-45{fill:#545454;}.cls-46{fill:#fefefe;}.cls-47{fill:#e9e9e9;}.cls-48{fill:#4b4b4b;}</style></defs><title>_text_</title><path class="cls-1" d="M107.34,102l-.8-.57a.29.29,0,0,1,.23-.2l1.46.45c-.12.26-.46.1-.61.32Z" transform="translate(-5 -4.67)"/><path class="cls-2" d="M107.62,102l.61-.32c.45,0,1-.23,1.31.32Z" transform="translate(-5 -4.67)"/><path class="cls-3" d="M63.83,46.36c-.42-5-3.15-8.69-7-11.7-1.55-1.22-1.57-1.2-.64-3a17.1,17.1,0,0,0,2.1-8,19,19,0,0,0-5-12.37c-5.49-5.92-12.24-7.56-20-6.09C24.4,6.85,15.44,8.27,6.49,9.75c-1.18.2-1.7.25-1.41,1.83,2,10.87,3.75,21.77,5.59,32.66Q13,58.19,15.38,72.16c.16,1,.44,1.24,1.51,1.06,9.93-1.74,19.88-3.41,29.82-5.09C57.79,66.26,64.76,57.44,63.83,46.36Zm-38.44-15a1.13,1.13,0,0,1-1,.52,1.25,1.25,0,0,1-.85-2.13,1.56,1.56,0,0,1-.16-.2,1.27,1.27,0,0,1,.45-2.28,2,2,0,0,1,.09-.35A5.45,5.45,0,0,1,24,25.42a1.39,1.39,0,0,1-.3,0,1.22,1.22,0,0,1-1.13-1.69,1.26,1.26,0,0,1,.77-2.22,1.14,1.14,0,0,1,.95.45,1.21,1.21,0,0,1,.48-.09,1.13,1.13,0,0,1,1,.47,4.59,4.59,0,0,1,2.85-1,4.79,4.79,0,0,1,2.63-.73,5.47,5.47,0,0,1,1.1.11,6.48,6.48,0,0,1,.92-.1A4.79,4.79,0,0,1,35.84,20l.52,0a5.06,5.06,0,0,1,2-.38c6.41,0,6.4,9.94,0,9.94a4.41,4.41,0,0,1-.52,0,5.08,5.08,0,0,1-1.85.38,4.81,4.81,0,0,1-2.63.72,6.1,6.1,0,0,1-1.08-.1,4.76,4.76,0,0,1-.94.09,5.1,5.1,0,0,1-5.39-.08A1.21,1.21,0,0,1,25.39,31.37ZM43.71,53.5l-.52,0a5.06,5.06,0,0,1-2,.38H41a4.8,4.8,0,0,1-2.64.73,5.08,5.08,0,0,1-.89-.08,5.17,5.17,0,0,1-.89.08h-.05a1.13,1.13,0,0,1-1,.57,1.25,1.25,0,0,1-.45-.08,4.91,4.91,0,0,1-2.41.59,5.76,5.76,0,0,1-1.28-.15,1.15,1.15,0,0,1-.87.36,1.2,1.2,0,0,1-.71-.22,1.23,1.23,0,0,1-.72.22,1.26,1.26,0,0,1-.47-2.4A5.59,5.59,0,0,1,28.09,49a1.21,1.21,0,0,1-.48.09,1.24,1.24,0,0,1,0-2.48,1.15,1.15,0,0,1,1.18,1,4.36,4.36,0,0,1,2.87-1.78,4.74,4.74,0,0,1,2.75-.8h.2a5.13,5.13,0,0,1,2-.37,5.08,5.08,0,0,1,.89.08,5.08,5.08,0,0,1,.89-.08h.23a4.8,4.8,0,0,1,2.64-.73,4.24,4.24,0,0,1,.51,0,5.15,5.15,0,0,1,2-.38C50.11,43.57,50.1,53.5,43.71,53.5Z" transform="translate(-5 -4.67)"/><path class="cls-4" d="M253.77,14.33c-2.82-.3-5.64-.67-8.46-1-.91-.11-2-.51-2.68-.14s-.31,1.78-.64,2.66c0,0-.06.06-.14.12-.74-.64-1.46-1.34-2.25-1.93-6.93-5.22-17.89-4.33-24.55,2.09-6,5.75-7.73,13-6.64,20.93,2.08,15.25,19.11,21.52,29.14,15.16a6.88,6.88,0,0,1-5.68,5.91c-5.5.86-10.59-.2-14.82-4.08-.56-.51-.8-.49-1.28,0-1.46,1.52-3,3-4.45,4.5-2.14,2.15-2.21,2.23.21,4.1,6.71,5.21,14.38,6.67,22.59,5.25a19,19,0,0,0,14.52-11.22A30.54,30.54,0,0,0,251,46.86c1.18-10.47,2.44-20.93,3.7-31.39C254.73,14.72,254.56,14.41,253.77,14.33Zm-23.34,28.4a10.11,10.11,0,0,1-9.94-9.93c-.24-5.37,4.74-9.94,9.94-9.94a10.1,10.1,0,0,1,9.93,9.94C240.6,38.16,235.62,42.73,230.43,42.73Z" transform="translate(-5 -4.67)"/><path class="cls-5" d="M279.49,18.74A25.43,25.43,0,1,0,305,44.17,25.36,25.36,0,0,0,279.49,18.74Zm.3,36.68c-6.27,0-10.91-5.12-11.18-11.18s5.33-11.18,11.18-11.18c6.26,0,10.9,5.13,11.18,11.18S285.63,55.42,279.79,55.42Z" transform="translate(-5 -4.67)"/><path class="cls-6" d="M88.2,11.94a21.89,21.89,0,1,0,21.87,21.89A21.86,21.86,0,0,0,88.2,11.94Zm.22,31.87a10.12,10.12,0,0,1-9.94-9.94c-.24-5.37,4.74-9.94,9.94-9.94a10.12,10.12,0,0,1,9.94,9.94C98.6,39.24,93.62,43.81,88.42,43.81Z" transform="translate(-5 -4.67)"/><path class="cls-6" d="M136.59,10.08A21.89,21.89,0,1,0,158.5,32,21.9,21.9,0,0,0,136.59,10.08Zm.12,32.29a10.11,10.11,0,0,1-9.94-9.93c-.24-5.37,4.74-9.94,9.94-9.94a10.12,10.12,0,0,1,9.94,9.94C146.89,37.8,141.91,42.37,136.71,42.37Z" transform="translate(-5 -4.67)"/><path class="cls-4" d="M177.58,14.38c1-.64,1.88-1.23,2.8-1.73,9.59-5.18,20.68-.49,23.91,10,1.33,4.36,1.29,8.78,1,13.23-.35,5.68-.72,11.35-1.06,17-.12,1.92-.08,1.91-2,1.78-3.25-.21-6.5-.43-9.75-.57-.93,0-1.09-.32-1-1.23.47-7,.87-14,1.29-21a12.27,12.27,0,0,0-.92-5.65c-2.14-5-8-6.12-12-2.38a11.36,11.36,0,0,0-3.38,8c-.41,6.5-.83,13-1.18,19.5-.07,1.27-.45,1.71-1.79,1.58-3.24-.32-6.5-.5-9.75-.69-.87,0-1-.34-.93-1.18.55-8.19,1-16.39,1.53-24.59.31-5,.69-10.06,1-15.1,0-.87.26-1.19,1.19-1.12,3.39.25,6.78.44,10.16.62.88,0,1.24.36,1.09,1.26C177.69,12.84,177.66,13.53,177.58,14.38Z" transform="translate(-5 -4.67)"/><path class="cls-6" d="M147.84,60.73a31.86,31.86,0,0,1-3.69,3.84c-6.81,6.78-15.3,9.9-24.56,11.18A48.31,48.31,0,0,1,92.17,72,47.11,47.11,0,0,1,81,64.34s0-.16,0-.11c22.86,11.08,45.09,10.58,66.56-3.79C147.84,60.35,147.91,60.47,147.84,60.73Z" transform="translate(-5 -4.67)"/><path class="cls-7" d="M139.73,98.21a1.58,1.58,0,0,1-2,.17c-.44-.24-.32-1-.25-1.61a10.65,10.65,0,0,0-.2-4.86.2.2,0,0,1,0-.26c.64-1.78.37-2.89-1.09-3.66a9.46,9.46,0,0,0,1.08,0c1-.15,1.35.17,1.31,1.24-.09,2.51,0,5,0,7.53C138.63,97.51,138.61,98.3,139.73,98.21Z" transform="translate(-5 -4.67)"/><path class="cls-7" d="M81.71,88.46a1.3,1.3,0,0,0-.36,1.13c0,2.46,0,4.91,0,7.37,0,.68.2,1.15.94,1.24a.19.19,0,0,1,.06.19c0,.06,0,.09-.07.09H78.85c1.27-.33,1.56-.9,1.53-1.82-.08-2.23,0-4.46,0-6.7a2.08,2.08,0,0,0-.27-1.44C80.65,88,81,88,81.71,88.46Z" transform="translate(-5 -4.67)"/><path class="cls-8" d="M161.87,97.88c1.24-1.82.75-3.77.44-5.71,0-.25-.32-.45-.18-.75.92-.6.58-2.6-.55-3.28,2-.28,2-.28,2,1.64v6.89c0,.71-.1,1.49,1,1.63-1.09.69-1.81-.22-2.66-.22-.1,0-.14-.09-.11-.13A.13.13,0,0,1,161.87,97.88Z" transform="translate(-5 -4.67)"/><path class="cls-9" d="M230,91.32c-1.17,2-1.1,6.25.24,7.14h-2.9c1.35-1.11,1.26-7.39-.07-8.21,1.18-.62,1.83.1,2.37,1A.22.22,0,0,1,230,91.32Z" transform="translate(-5 -4.67)"/><path class="cls-10" d="M185.29,90.74c-1.21,1.64-.91,2.48,1,3,.83.23,1.67.45,2.47.75a1.74,1.74,0,0,1,1.23,2,1.7,1.7,0,0,1-1.67,1.65c-.31.15-.34,0-.31-.27a1.83,1.83,0,0,0,1.05-1.77c-.12-.89-1-1-1.65-1.19s-1.59-.38-2.36-.65a2,2,0,0,1-1.47-1.92A1.85,1.85,0,0,1,185,90.44C185.29,90.34,185.35,90.47,185.29,90.74Z" transform="translate(-5 -4.67)"/><path class="cls-11" d="M221.62,90.2c2.14-.14,2.14-.14,2.14,1.84,0,1.55,0,3.11,0,4.67,0,.75,0,1.47.9,1.78h-2.9C223.19,97.4,223.15,91.06,221.62,90.2Z" transform="translate(-5 -4.67)"/><path class="cls-12" d="M206.13,96.77c.09.7-.45,1.13-.77,2-1.27-2.54-2.43-4.83-3.57-7.12-.29-.6-.52-1.23-1.26-1.44h3.37c-1.4.53-1.15,1.39-.61,2.4.69,1.29,1.3,2.62,2,3.92.15.3.26,1,.79.27Z" transform="translate(-5 -4.67)"/><path class="cls-13" d="M110.46,95.45l-.93.45c1,.45,2.19.6,2.66,1.73a2.55,2.55,0,0,1,0,1.88c-.41,1-.9,2.12-2.49,2a9.25,9.25,0,0,0,.94-.86,2.32,2.32,0,0,0-1.42-4,3.45,3.45,0,0,0-1,0c-.92.1-1.67,0-1.8-1.15.31-.26.57-.13.82.11s0,.29.18.39c0-.14-.06-.28,0-.44a.75.75,0,0,1,.27-.26A7.81,7.81,0,0,1,110,95,.63.63,0,0,1,110.46,95.45Z" transform="translate(-5 -4.67)"/><path class="cls-14" d="M126.19,90.25C128,90,128,90,128,91.81c0,1.56,0,3.12,0,4.68,0,.79-.07,1.58.86,2h-2.62C127.56,97.22,127.48,91.13,126.19,90.25Z" transform="translate(-5 -4.67)"/><path class="cls-8" d="M121.08,97.81c.9-2,.55-4.13.39-6.21-.06-.88-.88-1.13-1.63-1.4h3.52a2,2,0,0,0-.84,1.91c0,1.28,0,2.57,0,3.85a2,2,0,0,1-1.4,2.11c-.11,0-.15-.1-.12-.16S121.05,97.81,121.08,97.81Z" transform="translate(-5 -4.67)"/><path class="cls-15" d="M173.15,97.85c1-2,.49-4.13.44-6.2,0-.79-.77-1.11-1.42-1.46h3.39c-1,.55-.95,1.34-.95,2.11,0,1.23,0,2.47,0,3.7a2,2,0,0,1-1.42,2.07c-.11,0-.14-.09-.12-.14S173.11,97.85,173.15,97.85Z" transform="translate(-5 -4.67)"/><path class="cls-16" d="M158.56,90.69A4.79,4.79,0,0,0,159.1,98c0,.23,0,.37-.3.22-1.92-.65-2.58-2.2-2.64-4-.06-1.6.37-3.06,2.07-3.75C158.53,90.28,158.58,90.44,158.56,90.69Z" transform="translate(-5 -4.67)"/><path class="cls-8" d="M196.84,97.22a12,12,0,0,0,.54-3.86c0-.66-.31-.72-.8-.73.65-.44.59-1,.23-1.58-.06-.28,0-.42.33-.34a2.29,2.29,0,0,1,1.12,2.18c0,1.27,0,2.55,0,3.82,0,.72.05,1.37.88,1.68-1,.14-2,.53-1.82-1.16C197.36,96.85,197,97.18,196.84,97.22Z" transform="translate(-5 -4.67)"/><path class="cls-8" d="M169.31,98.14A2,2,0,0,1,167.63,96c0-1.37,0-2.74,0-4.12a1.48,1.48,0,0,0-.93-1.65h2.48c-1,1.4-.9,6.2.14,7.77Z" transform="translate(-5 -4.67)"/><path class="cls-8" d="M117.25,98.17a2,2,0,0,1-1.7-2.14c0-1.32,0-2.65,0-4,0-.77,0-1.57-.92-1.89h2.59c-1.22,1.18-.67,2.61-.71,3.92s-.37,2.77.77,3.89Z" transform="translate(-5 -4.67)"/><path class="cls-17" d="M217,90.42a3.84,3.84,0,0,1,2.61,3.86c-.07,1.83-.75,3.33-2.67,4a.51.51,0,0,1-.15-.37c.46-1,1.28-1.73,1.44-2.9.24-1.77-.61-3-1.65-4.29C216.65,90.44,216.74,90.27,217,90.42Z" transform="translate(-5 -4.67)"/><path class="cls-16" d="M213.89,98.17a3.6,3.6,0,0,1-2.46-3.56,4,4,0,0,1,2.26-4.15c.31-.24.5-.14.59.22a1.37,1.37,0,0,1-.4.7,4.18,4.18,0,0,0,.06,5.94,1.14,1.14,0,0,1,.34.59C214.24,98.13,214.17,98.31,213.89,98.17Z" transform="translate(-5 -4.67)"/><path class="cls-7" d="M110.46,95.45l-.36-.26c0-.5.41-.81.57-1.23a1.89,1.89,0,0,0-1.46-2.84c-.66-.55-1.52,0-2.21-.38a.32.32,0,0,1,0-.36,2.25,2.25,0,0,1,1.58-.27c.61,0,1.19.13,1.43-.63.11-.32.33-.46.62-.23s0,.38-.15.51c-.51.48-.14.58.26.82a2.6,2.6,0,0,1,1.51,2.56A2.52,2.52,0,0,1,110.46,95.45Z" transform="translate(-5 -4.67)"/><path class="cls-18" d="M133.51,90.73a5.1,5.1,0,0,0,0,6.86c.07.27,0,.4-.31.3-2.78-1.93-2.78-5.9,0-7.45C133.51,90.33,133.57,90.47,133.51,90.73Z" transform="translate(-5 -4.67)"/><path class="cls-19" d="M90.83,94.61a3.26,3.26,0,0,0,1.91,3.3c0,.25,0,.41-.3.26a3.66,3.66,0,0,1-2.57-3.49,3.84,3.84,0,0,1,2-4c.26-.11.38,0,.45.25-.37,1.06-1.21,1.94-1.17,3.15A1.42,1.42,0,0,1,90.83,94.61Z" transform="translate(-5 -4.67)"/><path class="cls-7" d="M142.31,94.57c-.24.76.16,1.41.34,2.1.08.34-.05.47-.38.41-1.72-2.28-1.34-4.88.91-6.33.27-.1.33.09.38.28a19.64,19.64,0,0,1-1,2.19C142.29,93.63,142.55,94.15,142.31,94.57Z" transform="translate(-5 -4.67)"/><path class="cls-16" d="M194.88,93.64c-.2.4-.65.47-1,.71-.93.69-1.5,1.53-.9,2.7a1.8,1.8,0,0,0,2.54.89,1.83,1.83,0,0,1,.53-.07c-.85,1-1.87.74-2.87.35a2,2,0,0,1-1.41-2c0-1.24.9-1.88,1.87-2.39.36-.19.76-.52,1.24-.23Z" transform="translate(-5 -4.67)"/><path class="cls-9" d="M107,90.38l0,.33a2.64,2.64,0,0,1-.56,1.06c-.81,1.48-.41,2.46,1.19,2.91a.58.58,0,0,1-.08.73v.3q-.1.14-.21,0l-.89-.3a2.41,2.41,0,0,1-1.65-2.77A2.5,2.5,0,0,1,107,90.38Z" transform="translate(-5 -4.67)"/><path class="cls-7" d="M92.77,90.25c2.86-.45,4.48,1,4.61,4a.67.67,0,0,1-.93-.09A3.36,3.36,0,0,1,96,93.07a3.26,3.26,0,0,0-2.88-2.38C92.91,90.6,92.75,90.5,92.77,90.25Z" transform="translate(-5 -4.67)"/><path class="cls-20" d="M142.31,94.57c-.23-.45-.49-.9,0-1.37a7.42,7.42,0,0,0,5.29.07c.59-.47.69.47,1.14.4.42.82-.08.91-.72.91Z" transform="translate(-5 -4.67)"/><path class="cls-11" d="M148.71,93.67c-.17.13-.05,1-.55.24-.14-.2-.07-.53-.31-.71-.94-1.19-1.84-2.44-3.53-2.62a.28.28,0,0,1-.11-.22c0-.08,0-.12,0-.12C146.88,89.84,148.28,90.92,148.71,93.67Z" transform="translate(-5 -4.67)"/><path class="cls-21" d="M96.57,94c.17.36.5.31.81.32-.71.59-1.54.22-2.31.26-1.41.07-2.83,0-4.24,0V94A8.72,8.72,0,0,1,96.57,94Z" transform="translate(-5 -4.67)"/><path class="cls-22" d="M188,97.91l.31.27c-1.18.79-2.47.51-3.68.24-.68-.15-.76-1-1-2C185.09,97.82,186.35,98.63,188,97.91Z" transform="translate(-5 -4.67)"/><path class="cls-23" d="M144.07,97.72c1.44.7,2.64,0,3.94-.85-.65,1.54-2.76,2.23-3.91,1.43-.24-.16-.1-.4,0-.61Z" transform="translate(-5 -4.67)"/><path class="cls-24" d="M185.29,90.74l-.31-.3c1-.67,2.18-.36,3.27-.26.73.06.67.84.92,1.33.1.3,0,.37-.31.32C187.85,90.88,186.82,90,185.29,90.74Z" transform="translate(-5 -4.67)"/><path class="cls-11" d="M230.45,90.47c2.12-.94,2.75-.56,3,2-.65-1-1.28-1.75-2.39-1.75C230.75,90.87,230.47,91,230.45,90.47Z" transform="translate(-5 -4.67)"/><path class="cls-13" d="M196,90.47A4.52,4.52,0,0,0,192.44,92c.07-1.31.46-2,1.67-1.91a8.59,8.59,0,0,1,1.9.08.16.16,0,0,1,.07.18Q196.05,90.47,196,90.47Z" transform="translate(-5 -4.67)"/><path class="cls-25" d="M92.44,98.17l.3-.26a4.76,4.76,0,0,0,3.65-.85C95.82,98.65,94.45,98.94,92.44,98.17Z" transform="translate(-5 -4.67)"/><path class="cls-9" d="M84.76,98.2c1.33-.2,1.79-1.41,2.61-2.41-.34,2.78-.41,2.84-2.6,2.69a.18.18,0,0,1-.07-.19Q84.73,98.2,84.76,98.2Z" transform="translate(-5 -4.67)"/><path class="cls-17" d="M106.77,101.25l-.23.2c-1.91-1.14-2.11-1.79-.84-3A2.79,2.79,0,0,0,106.77,101.25Z" transform="translate(-5 -4.67)"/><path class="cls-23" d="M223.75,88.92c-.1.42-.32.74-.8.74s-.61-.17-.6-.56a.71.71,0,0,1,.76-.75A.61.61,0,0,1,223.75,88.92Z" transform="translate(-5 -4.67)"/><path class="cls-26" d="M128,88.81c0,.52-.24.78-.66.83s-.67-.09-.71-.46.3-.76.73-.82A.54.54,0,0,1,128,88.81Z" transform="translate(-5 -4.67)"/><path class="cls-27" d="M84.76,98.2v.28a6.57,6.57,0,0,1-2.5,0V98.2Z" transform="translate(-5 -4.67)"/><path class="cls-28" d="M81.71,88.46a1.25,1.25,0,0,0-1.63.06l-1.39-.46h4.54Z" transform="translate(-5 -4.67)"/><path class="cls-29" d="M133.51,90.73l-.3-.29c1-.48,2-.84,2.89.31A3.12,3.12,0,0,0,133.51,90.73Z" transform="translate(-5 -4.67)"/><path class="cls-13" d="M214.2,90.7l-.51-.24a3.88,3.88,0,0,1,3.33,0l-.34.25A4.36,4.36,0,0,1,214.2,90.7Z" transform="translate(-5 -4.67)"/><path class="cls-11" d="M213.89,98.17l.31-.23a4.86,4.86,0,0,1,2.75,0v.34A3.45,3.45,0,0,1,213.89,98.17Z" transform="translate(-5 -4.67)"/><path class="cls-30" d="M158.8,98.18l.3-.22a4.18,4.18,0,0,0,2.77-.08.44.44,0,0,1,0,.2A3,3,0,0,1,158.8,98.18Z" transform="translate(-5 -4.67)"/><path class="cls-31" d="M172.11,98.49a2.1,2.1,0,0,1-2,0c0-.18.19-.19.3-.27h1.42C171.92,98.29,172.09,98.31,172.11,98.49Z" transform="translate(-5 -4.67)"/><path class="cls-31" d="M120.06,98.48a2.12,2.12,0,0,1-2,0c0-.18.19-.2.3-.28h1.43C119.87,98.29,120,98.31,120.06,98.48Z" transform="translate(-5 -4.67)"/><path class="cls-27" d="M158.56,90.69l-.33-.27a2.67,2.67,0,0,1,2.5-.16c0,.25,0,.35-.29.23A3.54,3.54,0,0,0,158.56,90.69Z" transform="translate(-5 -4.67)"/><path class="cls-30" d="M134.35,98.06c.9.48,1.86-.46,2.75.11a4.1,4.1,0,0,1-2.76.23A.24.24,0,0,1,134.35,98.06Z" transform="translate(-5 -4.67)"/><path class="cls-32" d="M210.17,90.27c-.71-.06-.67,1-1.41.89.27-.37,0-.62-.19-.89C209.07,90,209.59,90.18,210.17,90.27Z" transform="translate(-5 -4.67)"/><path class="cls-33" d="M142.27,97.08l.38-.41c.44.39.72,1,1.42,1v0C143.11,98.57,142.78,97.55,142.27,97.08Z" transform="translate(-5 -4.67)"/><path class="cls-34" d="M194.88,93.64l0,0a1.08,1.08,0,0,1,1.13-.69C196,93.72,195.43,93.66,194.88,93.64Z" transform="translate(-5 -4.67)"/><path class="cls-35" d="M230.45,90.47c.13.25.39.22.61.28l-1,.57-.36,0A1,1,0,0,1,230.45,90.47Z" transform="translate(-5 -4.67)"/><path class="cls-36" d="M134.35,98.06v.34a1.63,1.63,0,0,1-1.13-.51l.31-.3Z" transform="translate(-5 -4.67)"/><path class="cls-37" d="M196,90.47a2.44,2.44,0,0,0,0-.27,1.39,1.39,0,0,1,1.13.51l-.33.34Z" transform="translate(-5 -4.67)"/><path class="cls-38" d="M144.26,90.24v.29c-.1.48-.39.61-.84.48l-.24-.26C143.47,90.44,143.73,90.05,144.26,90.24Z" transform="translate(-5 -4.67)"/><path class="cls-39" d="M208.48,92.17a1.2,1.2,0,0,1-.61,1A1.24,1.24,0,0,1,208.48,92.17Z" transform="translate(-5 -4.67)"/><path class="cls-7" d="M172.11,98.49l-.3-.28,1.34-.36a.33.33,0,0,1,0,.22A1.25,1.25,0,0,1,172.11,98.49Z" transform="translate(-5 -4.67)"/><path class="cls-40" d="M137.35,91.65l0,.26c-.3-.37-.94-.52-.78-1.19C136.9,90.94,137.29,91.15,137.35,91.65Z" transform="translate(-5 -4.67)"/><path class="cls-41" d="M92.77,90.25l.29.23c-.1.52-.38.7-.88.47l-.34-.28A1.32,1.32,0,0,1,92.77,90.25Z" transform="translate(-5 -4.67)"/><path class="cls-15" d="M206.13,96.77h-.08a1.9,1.9,0,0,1,.55-1.09l.1,0A1,1,0,0,1,206.13,96.77Z" transform="translate(-5 -4.67)"/><path class="cls-24" d="M120.06,98.48l-.3-.27,1.32-.4a.46.46,0,0,1,0,.26A1.32,1.32,0,0,1,120.06,98.48Z" transform="translate(-5 -4.67)"/><path class="cls-18" d="M206.7,95.67l-.1,0a.86.86,0,0,1,.62-.85C207.06,95.2,207.14,95.57,206.7,95.67Z" transform="translate(-5 -4.67)"/><path class="cls-42" d="M87.76,94.77c.08.48.08.86-.22.87-.52,0-.18-.32-.1-.51S87.6,94.94,87.76,94.77Z" transform="translate(-5 -4.67)"/><path class="cls-24" d="M118.33,98.21l-.3.28c-.27-.08-.64.09-.78-.32a.31.31,0,0,1,0-.19Z" transform="translate(-5 -4.67)"/><path class="cls-43" d="M188.86,91.83l.31-.32c.25.25.54.6.16.85C189.13,92.5,189,92.05,188.86,91.83Z" transform="translate(-5 -4.67)"/><path class="cls-7" d="M170.39,98.21l-.3.27c-.28-.07-.66.1-.78-.34a.18.18,0,0,1,0-.16Z" transform="translate(-5 -4.67)"/><path class="cls-44" d="M147.84,60.73l-.28-.29c.23-.22.46-.73.78-.38S148.1,60.56,147.84,60.73Z" transform="translate(-5 -4.67)"/><path class="cls-45" d="M160.44,90.49l.29-.23c.29.09.6.14.74.46C161,91.15,160.76,90.7,160.44,90.49Z" transform="translate(-5 -4.67)"/><path class="cls-46" d="M27.07,46.43c-.57.1-.58.42-.52.79a1.12,1.12,0,0,1,1.06-.64,1.15,1.15,0,0,1,1.18,1,4.42,4.42,0,0,1,2.86-1.77l.23-.15Z" transform="translate(-5 -4.67)"/><path class="cls-46" d="M28.57,53.46A5.59,5.59,0,0,1,28.09,49a1.27,1.27,0,0,1-1.28-.2q.53,3.13,1,6.27c.09.53.25.82.82.76A1.27,1.27,0,0,1,28.57,53.46Z" transform="translate(-5 -4.67)"/><path class="cls-46" d="M47.89,46a5.48,5.48,0,0,1-.68,6.08,4.57,4.57,0,0,0,1.49-2.68A3.85,3.85,0,0,0,47.89,46Z" transform="translate(-5 -4.67)"/><path class="cls-46" d="M43.22,24.43a4.67,4.67,0,0,0-.88-2.72,5.53,5.53,0,0,1,.66,4.1A4.86,4.86,0,0,0,43.22,24.43Z" transform="translate(-5 -4.67)"/><path class="cls-46" d="M25.15,22a1.09,1.09,0,0,1,.55.4A4.4,4.4,0,0,1,27,21.65Z" transform="translate(-5 -4.67)"/><path class="cls-46" d="M25.41,31.34l0,.05,1.73-.3a4.24,4.24,0,0,1-1.17-.57A1.16,1.16,0,0,1,25.41,31.34Z" transform="translate(-5 -4.67)"/><path class="cls-46" d="M24,25.42a1.45,1.45,0,0,1-.3,0,1.15,1.15,0,0,1-.9-.38c.15.83.3,1.66.44,2.5a1.13,1.13,0,0,1,.61-.29,2.37,2.37,0,0,1,.09-.36A5.4,5.4,0,0,1,24,25.42Z" transform="translate(-5 -4.67)"/><path class="cls-46" d="M234.46,41.82a8.74,8.74,0,0,0,3.24-2.32A10.63,10.63,0,0,1,234.46,41.82Z" transform="translate(-5 -4.67)"/><path class="cls-46" d="M268.61,44.24c-.22-5,3.56-9.36,8.18-10.73a11,11,0,0,0-4.47,19A12,12,0,0,1,268.61,44.24Z" transform="translate(-5 -4.67)"/><path class="cls-46" d="M135.11,22.65a9.34,9.34,0,0,0-3.88,1.57A10.25,10.25,0,0,1,135.11,22.65Z" transform="translate(-5 -4.67)"/><path class="cls-47" d="M107.4,95.71a.17.17,0,0,0,.21,0l.33.37a.69.69,0,0,1-.84,0Z" transform="translate(-5 -4.67)"/><path class="cls-48" d="M108.16,93.32c-.11-.48.25-.57.57-.69a1.66,1.66,0,0,1-.55,1.15A.38.38,0,0,1,108.16,93.32Z" transform="translate(-5 -4.67)"/><path class="cls-19" d="M108.16,93.32l0,.46c-.08.35-.17.7-.58.82A1.69,1.69,0,0,1,108.16,93.32Z" transform="translate(-5 -4.67)"/></svg>