<svg id="Calque_1" data-name="Calque 1" xmlns="http://www.w3.org/2000/svg" viewBox="0 0 1082.61 258.19"><defs><style>.cls-1{fill:#3a7cec;}.cls-2{fill:#ebac26;}.cls-3{fill:#2ba04d;}.cls-4{fill:#da3337;}.cls-5{fill:#f43a3e;}.cls-6{fill:#e84a4d;}.cls-7{fill:#b6cef7;}</style></defs><title>_text_</title><path class="cls-1" d="M5.08,24.06Q60.45,14.64,115.81,5.25C123,4,123,4.16,123,11.28c0,14.66-.1,29.33.08,44,0,3.39-1,4.41-4.35,4.92-15.8,2.43-31.53,5.27-47.3,7.84-2.73.44-3.65,1.47-3.11,4.29,1.54,8,3.29,16,4.11,24.12.52,5.17,2.75,5.13,6.75,4.39,13.1-2.41,26.28-4.42,39.38-6.8,3.31-.6,4.6-.32,4.54,3.6-.24,15.66-.18,31.33,0,47,0,3.12-.86,4.23-4,4.71-10.85,1.64-21.63,3.8-32.48,5.49-3,.46-4,1.39-3.45,4.45,1.66,8.83,3.28,17.68,4.59,26.57.46,3.13,1.87,3.28,4.38,2.84,18.86-3.29,37.73-6.46,56.59-9.76,7.81-1.36,13.43-7,14.26-14,.88-7.41-2.5-12.78-10.06-16.64s-14.93-2.28-22.49-.88c-6.38,1.2-6.38,1.23-6.38-5.4,0-14.83.11-29.66-.08-44.49,0-3.34,1-4.56,4.22-5.15C137.71,90.56,143.24,84,143,75.2s-6.2-14.8-16-16c-2.43-.3-3-1.07-3-3.32.06-16,.1-32,0-48,0-3,1.08-3.6,3.81-3.51,34.59,1.15,63.37,25.89,68.95,59.85C199,78.33,196,91.77,188.61,104c-2.06,3.45-1.87,5,1.47,7.36,13.92,9.9,24.25,22.61,26.75,40,5.71,39.79-19.55,74.47-59.21,81.47-36.71,6.47-73.5,12.5-110.22,18.89-3.74.65-4.11-1.09-4.58-3.88Q33,189.26,23,130.69,14.37,80,5.82,29.3a21,21,0,0,0-.7-2.39A1.82,1.82,0,0,1,5.08,24.06Z" transform="translate(-3.14 -4.33)"/><path class="cls-2" d="M842.76,176a61,61,0,0,1-33.37,8.93c-38.54-.8-70.6-31.83-72.35-70.3-1.19-26.07,5.08-49.66,24.4-68.33C784,24.42,820.69,19.94,846,35.49c4.54,2.78,8.33,6.46,12.41,10.26,1.58-3.7-.18-8.85,2.78-10.29s7.11.14,10.74.55c9.59,1.08,19.17,2.32,28.77,3.32,3.17.34,3.94,1.4,3.53,4.74C901,70.34,898.09,96.65,895,123c-.22,1.87.27,4.1-2.94,4.08-15.09-.08-30.19,0-45.88,0,3.6-7,5.92-13.62,5.86-21C851.92,87.25,839.55,73.63,821,72.1A34.63,34.63,0,0,0,784.11,101c-2.75,17.75,8.72,34.93,26.14,38.83,12.8,2.86,24.18.27,33.18-9.8a6.21,6.21,0,0,1,5.24-2.09c13.83.06,27.66,0,41.49.06,1.75,0,4.41-.94,3.91,2.63-2.36,17-2.31,34.33-7.41,50.83-9.63,31.13-31.35,48.58-63.33,52.25a104.13,104.13,0,0,1-65.84-13.89,64.12,64.12,0,0,1-13.87-11.38c-1.74-1.82-1.91-3,0-4.88q10.53-10.32,20.77-20.94c1.8-1.86,2.76-1.81,4.74,0,15,13.75,33,17.47,52.47,14.76C833.07,195.82,841,187.06,842.76,176Z" transform="translate(-3.14 -4.33)"/><path class="cls-3" d="M959,128c-4.59,10-6.06,19.78-3,30,5.11,17.17,21.55,29.29,39,28.5,18.68-.84,33.84-13.53,37.67-31.54a39.67,39.67,0,0,0-21.53-43.7c-16.34-8-36.08-3.91-47.39,10.43-3.29,4.17-6.53,5.48-11.57,5.37-14.16-.32-28.33-.29-42.48,0-4.5.09-5.21-.95-4-5.21,13.1-46.21,60.48-74.79,107.38-64.59a91.65,91.65,0,0,1,71.9,78.84c3.08,24.72-3.58,47-18.48,66.63-15.32,20.21-36,31.83-61.13,35.1-49.79,6.47-96.13-29.36-102.29-78.93a92.75,92.75,0,0,1,.54-27.38c.31-1.8.29-3.61,3-3.6C924,128.05,941.22,128,959,128Z" transform="translate(-3.14 -4.33)"/><path class="cls-4" d="M361.22,106c-6.17,0-12.33-.1-18.49,0-2.69.06-4-.39-4.67-3.53-3.52-17.07-18.79-28.14-36.34-26.71-16.53,1.35-30,15.44-30.78,32.09-.78,17.62,11.19,32.37,28.71,35.38a33.81,33.81,0,0,0,37.89-23.84,21.37,21.37,0,0,0,1.28-7.83c-.39-4.4,1.73-4.72,5.22-4.67,11.66.16,23.33.26,35,0,4.15-.11,4.92,1.29,4.81,5.07-1.17,42.87-37.13,77.17-80.27,76.42a78.74,78.74,0,1,1,79.82-86.08c.35,3.55-.87,3.81-3.67,3.74C373.55,105.9,367.38,106,361.22,106Z" transform="translate(-3.14 -4.33)"/><path class="cls-4" d="M423.4,107c6,0,12,.17,18-.07,3.07-.12,4.16.82,4.9,3.9a34,34,0,0,0,62.6,9.14,34.06,34.06,0,0,0-39.71-49.39c-13.33,4.17-23.19,16.3-23.63,30.34-.15,4.78-1.81,5.24-5.76,5.16q-17.23-.35-34.48,0c-3.68.08-4.76-.83-4.71-4.65.49-38.13,29.64-71.21,67.51-76.35C507,19.81,544,43.37,554.77,80.23c11.14,38.13-6.62,77.63-42.47,94.42C464.08,197.25,406.87,165,401,112c-.41-3.64,0-5.42,4.4-5.12C411.38,107.31,417.4,107,423.4,107Z" transform="translate(-3.14 -4.33)"/><path class="cls-2" d="M626.86,40c8.82-6.54,17.53-10.89,27.27-12.89,30.66-6.29,59,11.26,68.86,42.22,5,15.77,4.73,31.83,3.73,48-1.25,20.27-2.61,40.53-3.81,60.8-.42,7.19-.27,7.26-7.17,6.86-11.63-.66-23.26-1.53-34.9-2-3.4-.14-4.13-1.32-3.92-4.51,1.6-23.76,3-47.52,4.57-71.28.48-7.38.21-14.63-2.17-21.71-3.39-10.06-9.76-17.16-20.45-19.09-10.36-1.88-19,2-25.92,9.71-6.3,7-9.2,15.45-9.83,24.59-1.61,23.42-2.92,46.85-4.35,70.28,0,.5-.1,1-.09,1.5.1,4.78-1.3,6.75-6.92,6.07-11.22-1.36-22.56-1.73-33.87-2.29-3.18-.16-4.25-1-4-4.41,2.38-35.88,4.6-71.76,6.86-107.65.75-11.8,1.58-23.59,2.14-35.39.14-3,1-4,4.11-3.8q18.42,1.31,36.88,2.22c3.34.17,4.38,1.49,3.74,4.72A80.9,80.9,0,0,0,626.86,40Z" transform="translate(-3.14 -4.33)"/><path class="cls-4" d="M284.14,220.89c17.69,9.45,36.19,16.81,55.91,20.62,59.51,11.49,115.8,3.61,167.89-28.6,3.09-1.91,6-4.11,9-6.18a2.25,2.25,0,0,1,.26,2.61c-26.4,31.3-61.06,46.63-100.85,51.59-33.52,4.17-66.07.31-97.07-13.72C308.94,242.54,299.74,236,291,228.89c-2-1.61-4.92-2-6-4.71C282.36,221.65,282.36,221.63,284.14,220.89Z" transform="translate(-3.14 -4.33)"/><path class="cls-5" d="M284.14,220.89c-1.6,1.53,1.09,2.06.77,3.29-2.65-.56-3.61-3.21-6.51-4.58C281.3,218.55,282.75,219.6,284.14,220.89Z" transform="translate(-3.14 -4.33)"/><path class="cls-6" d="M517.19,209.34c-.09-.87-.17-1.74-.26-2.61a5.49,5.49,0,0,1,4.11-2.59C520.79,206.83,518.48,207.73,517.19,209.34Z" transform="translate(-3.14 -4.33)"/><path class="cls-7" d="M5.08,24.06c0,1,0,1.9,0,2.85-1,0-2-.25-2-1.47S4,24,5.08,24.06Z" transform="translate(-3.14 -4.33)"/></svg>